{
.appVersion = "1076";
DisplayStrings = (
"/ereversed-cy"
);
classes = (
{
automatic = 1;

glyphs = (
{
glyphname = A;
layers = (
{
anchors = (
{
name = bottom;
position = "{177, 0}";
},
{
name = ogonek;
position = "{264, 5}";
},
{
name = top;
position = "{226, 754}";
}
);
layerId = "27A8C2A5-6B67-4598-967C-E5EC4FB8AE70";
paths = (
{
closed = 1;
nodes = (
"273 0 OFFCURVE",
"279 2 OFFCURVE",
"282 8 CURVE SMOOTH",
"284 14 OFFCURVE",
"285 18 OFFCURVE",
"285 28 CURVE SMOOTH",
"285 32 LINE SMOOTH",
"285 61 OFFCURVE",
"283 104 OFFCURVE",
"279 163 CURVE SMOOTH",
"275 221 OFFCURVE",
"273 264 OFFCURVE",
"273 293 CURVE",
"260 459 LINE SMOOTH",
"252 547 OFFCURVE",
"234 727 OFFCURVE",
"226 740 CURVE",
"221 747 OFFCURVE",
"213 750 OFFCURVE",
"203 750 CURVE SMOOTH",
"198 750 OFFCURVE",
"194 745 OFFCURVE",
"188 733 CURVE SMOOTH",
"183 722 OFFCURVE",
"178 709 OFFCURVE",
"174 693 CURVE SMOOTH",
"165 661 OFFCURVE",
"159 637 OFFCURVE",
"156 622 CURVE SMOOTH",
"146 581 OFFCURVE",
"135 516 OFFCURVE",
"120 428 CURVE SMOOTH",
"104 341 OFFCURVE",
"92 274 OFFCURVE",
"82 230 CURVE SMOOTH",
"79 220 OFFCURVE",
"74 198 OFFCURVE",
"67 164 CURVE SMOOTH",
"60 130 OFFCURVE",
"53 100 OFFCURVE",
"46 72 CURVE SMOOTH",
"40 44 OFFCURVE",
"36 27 OFFCURVE",
"35 22 CURVE",
"35 21 OFFCURVE",
"35 21 OFFCURVE",
"35 21 CURVE",
"34 20 OFFCURVE",
"34 20 OFFCURVE",
"34 19 CURVE SMOOTH",
"34 10 OFFCURVE",
"45 2 OFFCURVE",
"55 2 CURVE SMOOTH",
"61 2 OFFCURVE",
"64 5 OFFCURVE",
"65 10 CURVE",
"66 13 OFFCURVE",
"83 92 OFFCURVE",
"96 143 CURVE SMOOTH",
"103 167 OFFCURVE",
"106 180 OFFCURVE",
"109 180 CURVE SMOOTH",
"144 180 OFFCURVE",
"244 165 OFFCURVE",
"244 148 CURVE SMOOTH",
"244 17 LINE SMOOTH",
"244 7 OFFCURVE",
"253 0 OFFCURVE",
"263 0 CURVE SMOOTH"
);
},
{
closed = 1;
nodes = (
"222 193 OFFCURVE",
"219 193 OFFCURVE",
"216 194 CURVE",
"213 194 OFFCURVE",
"211 194 OFFCURVE",
"210 194 CURVE SMOOTH",
"171 194 OFFCURVE",
"137 199 OFFCURVE",
"109 208 CURVE",
"109 214 LINE SMOOTH",
"109 236 OFFCURVE",
"115 260 OFFCURVE",
"124 290 CURVE SMOOTH",
"128 305 OFFCURVE",
"131 316 OFFCURVE",
"133 324 CURVE",
"146 381 OFFCURVE",
"161 467 OFFCURVE",
"174 548 CURVE SMOOTH",
"187 628 OFFCURVE",
"194 669 OFFCURVE",
"205 701 CURVE",
"205 698 OFFCURVE",
"206 694 OFFCURVE",
"207 689 CURVE",
"208 684 OFFCURVE",
"208 680 OFFCURVE",
"209 678 CURVE",
"212 647 OFFCURVE",
"217 608 OFFCURVE",
"221 562 CURVE SMOOTH",
"230 469 OFFCURVE",
"243 293 OFFCURVE",
"243 203 CURVE SMOOTH",
"243 197 OFFCURVE",
"236 193 OFFCURVE",
"223 193 CURVE SMOOTH"
);
}
);
width = 353;
},
{
anchors = (
{
name = bottom;
position = "{175, 0}";
},
{
name = ogonek;
position = "{275, 5}";
},
{
name = top;
position = "{194, 758}";
}
);
layerId = "156B637B-193E-48A3-AAC8-7B4A3960F885";
paths = (
{
closed = 1;
nodes = (
"280 0 OFFCURVE",
"291 12 OFFCURVE",
"291 34 CURVE SMOOTH",
"291 70 OFFCURVE",
"288 124 OFFCURVE",
"281 195 CURVE SMOOTH",
"273 267 OFFCURVE",
"270 317 OFFCURVE",
"270 347 CURVE SMOOTH",
"270 378 OFFCURVE",
"264 447 OFFCURVE",
"250 552 CURVE SMOOTH",
"237 657 OFFCURVE",
"231 721 OFFCURVE",
"231 745 CURVE",
"224 750 OFFCURVE",
"213 753 OFFCURVE",
"199 753 CURVE SMOOTH",
"185 753 OFFCURVE",
"170 730 OFFCURVE",
"155 684 CURVE SMOOTH",
"124 592 OFFCURVE",
"98 445 OFFCURVE",
"75 308 CURVE SMOOTH",
"63 239 OFFCURVE",
"52 178 OFFCURVE",
"42 125 CURVE SMOOTH",
"32 71 OFFCURVE",
"23 40 OFFCURVE",
"17 31 CURVE",
"21 18 OFFCURVE",
"35 11 OFFCURVE",
"61 11 CURVE",
"77 37 OFFCURVE",
"85 87 OFFCURVE",
"94 131 CURVE SMOOTH",
"98 153 OFFCURVE",
"104 170 OFFCURVE",
"110 182 CURVE",
"149 180 OFFCURVE",
"208 170 OFFCURVE",
"227 157 CURVE",
"227 26 LINE SMOOTH",
"227 7 OFFCURVE",
"237 0 OFFCURVE",
"258 0 CURVE SMOOTH"
);
},
{
closed = 1;
nodes = (
"174 215 OFFCURVE",
"145 219 OFFCURVE",
"117 227 CURVE",
"119 285 OFFCURVE",
"172 591 OFFCURVE",
"193 612 CURVE",
"193 611 OFFCURVE",
"193 608 OFFCURVE",
"193 604 CURVE SMOOTH",
"193 567 OFFCURVE",
"204 445 OFFCURVE",
"216 327 CURVE SMOOTH",
"222 268 OFFCURVE",
"225 231 OFFCURVE",
"226 218 CURVE",
"218 216 OFFCURVE",
"211 215 OFFCURVE",
"206 215 CURVE SMOOTH"
);
}
);
width = 350;
}
);
note = A;
unicode = 0041;
},
{
glyphname = AE;
layers = (
{
anchors = (
{
name = bottom;
position = "{206, 0}";
},
{
name = top;
position = "{279, 756}";
}
);
layerId = "27A8C2A5-6B67-4598-967C-E5EC4FB8AE70";
paths = (
{
closed = 1;
nodes = (
"240 -20 OFFCURVE",
"245 -18 OFFCURVE",
"250 -14 CURVE SMOOTH",
"255 -10 OFFCURVE",
"258 -7 OFFCURVE",
"259 -7 CURVE SMOOTH",
"263 -5 OFFCURVE",
"277 -4 OFFCURVE",
"301 -3 CURVE SMOOTH",
"324 -3 OFFCURVE",
"346 -1 OFFCURVE",
"366 1 CURVE SMOOTH",
"386 3 OFFCURVE",
"396 8 OFFCURVE",
"396 15 CURVE SMOOTH",
"396 23 OFFCURVE",
"383 28 OFFCURVE",
"374 28 CURVE SMOOTH",
"361 28 OFFCURVE",
"342 26 OFFCURVE",
"317 22 CURVE SMOOTH",
"292 19 OFFCURVE",
"273 17 OFFCURVE",
"260 17 CURVE SMOOTH",
"254 17 OFFCURVE",
"251 23 OFFCURVE",
"251 34 CURVE SMOOTH",
"251 39 OFFCURVE",
"251 45 OFFCURVE",
"252 55 CURVE SMOOTH",
"252 64 OFFCURVE",
"252 71 OFFCURVE",
"252 75 CURVE SMOOTH",
"252 102 OFFCURVE",
"252 142 OFFCURVE",
"250 194 CURVE SMOOTH",
"249 247 OFFCURVE",
"249 287 OFFCURVE",
"249 313 CURVE",
"275 313 LINE SMOOTH",
"322 313 OFFCURVE",
"346 319 OFFCURVE",
"346 330 CURVE",
"333 347 LINE",
"323 347 OFFCURVE",
"310 346 OFFCURVE",
"293 342 CURVE SMOOTH",
"276 339 OFFCURVE",
"263 337 OFFCURVE",
"253 337 CURVE",
"249 343 LINE",
"249 369 OFFCURVE",
"249 408 OFFCURVE",
"250 459 CURVE SMOOTH",
"251 511 OFFCURVE",
"251 550 OFFCURVE",
"251 576 CURVE SMOOTH",
"251 593 OFFCURVE",
"250 618 OFFCURVE",
"248 651 CURVE SMOOTH",
"246 684 OFFCURVE",
"245 709 OFFCURVE",
"245 725 CURVE",
"278 729 OFFCURVE",
"311 731 OFFCURVE",
"343 731 CURVE",
"350 743 LINE",
"350 753 OFFCURVE",
"339 759 OFFCURVE",
"318 759 CURVE SMOOTH",
"310 759 OFFCURVE",
"296 758 OFFCURVE",
"279 756 CURVE SMOOTH",
"262 755 OFFCURVE",
"250 754 OFFCURVE",
"241 754 CURVE SMOOTH",
"233 754 OFFCURVE",
"226 749 OFFCURVE",
"219 740 CURVE SMOOTH",
"212 730 OFFCURVE",
"204 710 OFFCURVE",
"195 680 CURVE SMOOTH",
"151 536 OFFCURVE",
"107 380 OFFCURVE",
"64 211 CURVE SMOOTH",
"39 111 OFFCURVE",
"25 45 OFFCURVE",
"24 13 CURVE SMOOTH",
"24 9 OFFCURVE",
"28 1 OFFCURVE",
"32 1 CURVE SMOOTH",
"38 1 OFFCURVE",
"43 8 OFFCURVE",
"48 21 CURVE SMOOTH",
"57 47 OFFCURVE",
"67 102 OFFCURVE",
"67 102 CURVE",
"117 293 LINE SMOOTH",
"118 296 OFFCURVE",
"126 299 OFFCURVE",
"140 302 CURVE SMOOTH",
"154 304 OFFCURVE",
"171 306 OFFCURVE",
"189 307 CURVE SMOOTH",
"207 309 OFFCURVE",
"218 310 OFFCURVE",
"220 310 CURVE",
"226 303 LINE",
"226 282 OFFCURVE",
"227 250 OFFCURVE",
"228 208 CURVE SMOOTH",
"229 166 OFFCURVE",
"230 133 OFFCURVE",
"230 112 CURVE SMOOTH",
"230 70 OFFCURVE",
"228 31 OFFCURVE",
"222 -6 CURVE",
"236 -20 LINE"
);
},
{
closed = 1;
nodes = (
"128 357 OFFCURVE",
"210 666 OFFCURVE",
"222 680 CURVE",
"227 647 OFFCURVE",
"229 608 OFFCURVE",
"229 563 CURVE SMOOTH",
"229 534 OFFCURVE",
"228 493 OFFCURVE",
"227 441 CURVE SMOOTH",
"226 388 OFFCURVE",
"225 353 OFFCURVE",
"225 336 CURVE",
"200 330 OFFCURVE",
"166 326 OFFCURVE",
"125 324 CURVE"
);
}
);
width = 408;
},
{
anchors = (
{
name = bottom;
position = "{246, 0}";
},
{
name = top;
position = "{299, 758}";
}
);
layerId = "156B637B-193E-48A3-AAC8-7B4A3960F885";
paths = (
{
closed = 1;
nodes = (
"276 -21 OFFCURVE",
"283 -18 OFFCURVE",
"291 -13 CURVE",
"299 -8 OFFCURVE",
"306 -6 OFFCURVE",
"312 -6 CURVE SMOOTH",
"327 -6 LINE SMOOTH",
"407 -6 OFFCURVE",
"446 5 OFFCURVE",
"446 26 CURVE SMOOTH",
"446 41 OFFCURVE",
"429 50 OFFCURVE",
"413 50 CURVE SMOOTH",
"400 50 OFFCURVE",
"382 49 OFFCURVE",
"357 45 CURVE SMOOTH",
"333 42 OFFCURVE",
"314 40 OFFCURVE",
"302 40 CURVE",
"302 72 OFFCURVE",
"302 118 OFFCURVE",
"301 177 CURVE SMOOTH",
"300 236 OFFCURVE",
"299 279 OFFCURVE",
"299 304 CURVE",
"338 303 LINE",
"342 303 LINE SMOOTH",
"379 303 OFFCURVE",
"397 314 OFFCURVE",
"397 335 CURVE",
"377 359 LINE",
"372 359 LINE SMOOTH",
"363 359 OFFCURVE",
"350 357 OFFCURVE",
"334 355 CURVE SMOOTH",
"318 352 OFFCURVE",
"306 350 OFFCURVE",
"300 350 CURVE",
"300 374 OFFCURVE",
"300 411 OFFCURVE",
"301 459 CURVE SMOOTH",
"302 508 OFFCURVE",
"303 545 OFFCURVE",
"303 569 CURVE SMOOTH",
"303 585 OFFCURVE",
"302 609 OFFCURVE",
"300 639 CURVE SMOOTH",
"297 668 OFFCURVE",
"296 690 OFFCURVE",
"296 703 CURVE",
"326 707 OFFCURVE",
"357 708 OFFCURVE",
"391 708 CURVE",
"401 729 LINE",
"401 731 LINE SMOOTH",
"401 750 OFFCURVE",
"387 759 OFFCURVE",
"358 759 CURVE SMOOTH",
"350 759 OFFCURVE",
"337 758 OFFCURVE",
"320 756 CURVE SMOOTH",
"303 755 OFFCURVE",
"290 754 OFFCURVE",
"281 754 CURVE SMOOTH",
"271 754 OFFCURVE",
"262 751 OFFCURVE",
"255 743 CURVE SMOOTH",
"251 738 OFFCURVE",
"249 734 OFFCURVE",
"246 731 CURVE SMOOTH",
"244 729 OFFCURVE",
"241 724 OFFCURVE",
"238 717 CURVE SMOOTH",
"236 709 OFFCURVE",
"234 705 OFFCURVE",
"233 703 CURVE SMOOTH",
"231 698 OFFCURVE",
"225 674 OFFCURVE",
"225 674 CURVE",
"222 666 OFFCURVE",
"214 642 OFFCURVE",
"202 603 CURVE SMOOTH",
"177 524 OFFCURVE",
"167 487 OFFCURVE",
"140 400 CURVE SMOOTH",
"114 312 OFFCURVE",
"98 253 OFFCURVE",
"80 182 CURVE SMOOTH",
"62 110 OFFCURVE",
"53 55 OFFCURVE",
"53 23 CURVE SMOOTH",
"53 12 OFFCURVE",
"62 0 OFFCURVE",
"72 0 CURVE SMOOTH",
"80 0 OFFCURVE",
"86 5 OFFCURVE",
"93 15 CURVE",
"104 35 OFFCURVE",
"108 55 OFFCURVE",
"114 84 CURVE SMOOTH",
"116 99 OFFCURVE",
"118 107 OFFCURVE",
"119 110 CURVE",
"168 298 LINE",
"174 301 OFFCURVE",
"182 302 OFFCURVE",
"190 304 CURVE SMOOTH",
"206 306 OFFCURVE",
"215 307 OFFCURVE",
"233 308 CURVE SMOOTH",
"243 309 OFFCURVE",
"250 309 OFFCURVE",
"254 309 CURVE",
"254 289 OFFCURVE",
"255 258 OFFCURVE",
"257 216 CURVE SMOOTH",
"258 175 OFFCURVE",
"259 144 OFFCURVE",
"259 124 CURVE SMOOTH",
"259 100 OFFCURVE",
"256 59 OFFCURVE",
"251 1 CURVE",
"250 1 LINE",
"272 -21 LINE"
);
},
{
closed = 1;
nodes = (
"193 407 OFFCURVE",
"219 504 OFFCURVE",
"255 626 CURVE",
"256 612 OFFCURVE",
"256 591 OFFCURVE",
"256 563 CURVE SMOOTH",
"256 535 OFFCURVE",
"256 496 OFFCURVE",
"255 445 CURVE SMOOTH",
"253 395 OFFCURVE",
"253 361 OFFCURVE",
"252 345 CURVE",
"234 341 OFFCURVE",
"209 338 OFFCURVE",
"178 336 CURVE"
);
}
);
width = 491;
}
);
note = AE;
unicode = 00C6;
},
{
glyphname = B;
layers = (
{
anchors = (
{
name = bottom;
position = "{161, 0}";
},
{
name = top;
position = "{127, 754}";
}
);
layerId = "27A8C2A5-6B67-4598-967C-E5EC4FB8AE70";
paths = (
{
closed = 1;
nodes = (
"114 -6 LINE SMOOTH",
"119 -6 OFFCURVE",
"126 -4 OFFCURVE",
"134 -1 CURVE",
"143 2 OFFCURVE",
"149 3 OFFCURVE",
"154 4 CURVE",
"175 13 OFFCURVE",
"192 22 OFFCURVE",
"206 32 CURVE SMOOTH",
"233 50 OFFCURVE",
"250 70 OFFCURVE",
"259 100 CURVE SMOOTH",
"269 130 OFFCURVE",
"271 160 OFFCURVE",
"271 211 CURVE SMOOTH",
"271 301 OFFCURVE",
"246 356 OFFCURVE",
"175 427 CURVE",
"218 485 OFFCURVE",
"239 540 OFFCURVE",
"239 593 CURVE SMOOTH",
"239 685 OFFCURVE",
"190 750 OFFCURVE",
"99 750 CURVE SMOOTH",
"82 750 OFFCURVE",
"73 726 OFFCURVE",
"73 678 CURVE SMOOTH",
"73 632 OFFCURVE",
"74 562 OFFCURVE",
"77 470 CURVE SMOOTH",
"79 377 OFFCURVE",
"80 308 OFFCURVE",
"80 261 CURVE SMOOTH",
"80 233 OFFCURVE",
"79 191 OFFCURVE",
"78 135 CURVE SMOOTH",
"76 78 OFFCURVE",
"75 36 OFFCURVE",
"75 8 CURVE SMOOTH",
"75 -1 OFFCURVE",
"87 -6 OFFCURVE",
"112 -6 CURVE SMOOTH"
);
},
{
closed = 1;
nodes = (
"119 33 OFFCURVE",
"118 33 OFFCURVE",
"116 34 CURVE SMOOTH",
"115 34 OFFCURVE",
"113 34 OFFCURVE",
"113 34 CURVE",
"113 170 OFFCURVE",
"111 287 OFFCURVE",
"108 385 CURVE",
"112 385 OFFCURVE",
"120 387 OFFCURVE",
"131 391 CURVE SMOOTH",
"142 394 OFFCURVE",
"151 396 OFFCURVE",
"157 396 CURVE",
"214 372 OFFCURVE",
"243 301 OFFCURVE",
"243 181 CURVE SMOOTH",
"243 103 OFFCURVE",
"188 33 OFFCURVE",
"119 33 CURVE SMOOTH"
);
},
{
closed = 1;
nodes = (
"108 433 LINE",
"108 460 OFFCURVE",
"107 500 OFFCURVE",
"106 553 CURVE SMOOTH",
"104 606 OFFCURVE",
"104 646 OFFCURVE",
"104 673 CURVE SMOOTH",
"104 702 OFFCURVE",
"113 716 OFFCURVE",
"130 716 CURVE SMOOTH",
"174 716 OFFCURVE",
"213 665 OFFCURVE",
"213 619 CURVE SMOOTH",
"213 584 OFFCURVE",
"203 540 OFFCURVE",
"186 501 CURVE SMOOTH",
"169 462 OFFCURVE",
"141 432 OFFCURVE",
"111 432 CURVE"
);
}
);
width = 322;
},
{
anchors = (
{
name = bottom;
position = "{157, 0}";
},
{
name = top;
position = "{133, 758}";
}
);
layerId = "156B637B-193E-48A3-AAC8-7B4A3960F885";
paths = (
{
closed = 1;
nodes = (
"111 -8 LINE SMOOTH",
"135 -8 OFFCURVE",
"157 -3 OFFCURVE",
"177 7 CURVE SMOOTH",
"216 28 OFFCURVE",
"239 60 OFFCURVE",
"256 96 CURVE SMOOTH",
"273 133 OFFCURVE",
"280 163 OFFCURVE",
"280 183 CURVE SMOOTH",
"280 275 OFFCURVE",
"248 365 OFFCURVE",
"167 419 CURVE",
"211 451 OFFCURVE",
"248 526 OFFCURVE",
"248 586 CURVE SMOOTH",
"248 683 OFFCURVE",
"191 750 OFFCURVE",
"96 750 CURVE SMOOTH",
"79 750 OFFCURVE",
"68 740 OFFCURVE",
"64 723 CURVE SMOOTH",
"60 705 OFFCURVE",
"59 694 OFFCURVE",
"59 675 CURVE SMOOTH",
"59 669 LINE SMOOTH",
"59 624 OFFCURVE",
"60 556 OFFCURVE",
"62 466 CURVE SMOOTH",
"64 375 OFFCURVE",
"65 308 OFFCURVE",
"65 263 CURVE SMOOTH",
"65 235 OFFCURVE",
"64 194 OFFCURVE",
"63 140 CURVE SMOOTH",
"62 85 OFFCURVE",
"61 44 OFFCURVE",
"61 17 CURVE SMOOTH",
"61 0 OFFCURVE",
"76 -8 OFFCURVE",
"107 -8 CURVE SMOOTH"
);
},
{
closed = 1;
nodes = (
"121 173 OFFCURVE",
"120 283 OFFCURVE",
"116 375 CURVE",
"152 375 LINE",
"160 372 LINE",
"170 367 OFFCURVE",
"186 349 OFFCURVE",
"201 323 CURVE SMOOTH",
"216 297 OFFCURVE",
"228 243 OFFCURVE",
"228 180 CURVE SMOOTH",
"228 110 OFFCURVE",
"188 54 OFFCURVE",
"121 44 CURVE"
);
},
{
closed = 1;
nodes = (
"117 457 OFFCURVE",
"116 494 OFFCURVE",
"115 545 CURVE SMOOTH",
"113 597 OFFCURVE",
"113 636 OFFCURVE",
"113 663 CURVE SMOOTH",
"113 684 OFFCURVE",
"118 694 OFFCURVE",
"127 694 CURVE SMOOTH",
"165 694 OFFCURVE",
"199 647 OFFCURVE",
"199 608 CURVE SMOOTH",
"199 573 LINE",
"197 568 OFFCURVE",
"193 559 OFFCURVE",
"189 545 CURVE SMOOTH",
"180 518 OFFCURVE",
"173 500 OFFCURVE",
"161 477 CURVE SMOOTH",
"149 453 OFFCURVE",
"134 438 OFFCURVE",
"117 434 CURVE"
);
}
);
width = 314;
}
);
note = B;
unicode = 0042;
},
{
glyphname = C;
layers = (
{
anchors = (
{
name = bottom;
position = "{199, 0}";
},
{
name = top;
position = "{165, 754}";
}
);
layerId = "27A8C2A5-6B67-4598-967C-E5EC4FB8AE70";
paths = (
{
closed = 1;
nodes = (
"224 -16 OFFCURVE",
"249 -12 OFFCURVE",
"272 -2 CURVE SMOOTH",
"296 7 OFFCURVE",
"313 26 OFFCURVE",
"313 50 CURVE SMOOTH",
"313 60 OFFCURVE",
"310 64 OFFCURVE",
"304 64 CURVE SMOOTH",
"297 64 OFFCURVE",
"291 60 OFFCURVE",
"285 52 CURVE",
"269 33 OFFCURVE",
"246 23 OFFCURVE",
"215 23 CURVE SMOOTH",
"182 23 OFFCURVE",
"147 36 OFFCURVE",
"130 62 CURVE SMOOTH",
"111 92 OFFCURVE",
"89 341 OFFCURVE",
"89 420 CURVE SMOOTH",
"89 430 OFFCURVE",
"89 448 OFFCURVE",
"88 472 CURVE SMOOTH",
"88 496 OFFCURVE",
"87 515 OFFCURVE",
"87 528 CURVE SMOOTH",
"87 551 OFFCURVE",
"88 571 OFFCURVE",
"90 588 CURVE SMOOTH",
"93 623 OFFCURVE",
"103 665 OFFCURVE",
"119 688 CURVE SMOOTH",
"136 712 OFFCURVE",
"166 730 OFFCURVE",
"205 730 CURVE SMOOTH",
"211 730 OFFCURVE",
"221 728 OFFCURVE",
"232 723 CURVE",
"244 718 OFFCURVE",
"251 716 OFFCURVE",
"255 716 CURVE SMOOTH",
"266 716 OFFCURVE",
"271 720 OFFCURVE",
"271 727 CURVE SMOOTH",
"271 748 OFFCURVE",
"236 764 OFFCURVE",
"213 764 CURVE SMOOTH",
"194 764 OFFCURVE",
"177 762 OFFCURVE",
"162 758 CURVE SMOOTH",
"131 750 OFFCURVE",
"111 736 OFFCURVE",
"96 713 CURVE SMOOTH",
"80 690 OFFCURVE",
"72 669 OFFCURVE",
"67 635 CURVE SMOOTH",
"63 601 OFFCURVE",
"61 573 OFFCURVE",
"61 532 CURVE SMOOTH",
"61 521 OFFCURVE",
"61 504 OFFCURVE",
"62 481 CURVE SMOOTH",
"62 458 OFFCURVE",
"62 440 OFFCURVE",
"62 428 CURVE SMOOTH",
"62 349 OFFCURVE",
"82 93 OFFCURVE",
"99 56 CURVE SMOOTH",
"116 20 OFFCURVE",
"164 -16 OFFCURVE",
"202 -16 CURVE SMOOTH"
);
}
);
width = 330;
},
{
anchors = (
{
name = bottom;
position = "{169, 0}";
},
{
name = top;
position = "{169, 758}";
}
);
layerId = "156B637B-193E-48A3-AAC8-7B4A3960F885";
paths = (
{
closed = 1;
nodes = (
"209 -16 OFFCURVE",
"220 -15 OFFCURVE",
"230 -14 CURVE SMOOTH",
"252 -11 OFFCURVE",
"276 -2 OFFCURVE",
"292 9 CURVE SMOOTH",
"309 21 OFFCURVE",
"320 41 OFFCURVE",
"320 66 CURVE",
"310 76 OFFCURVE",
"300 81 OFFCURVE",
"291 81 CURVE SMOOTH",
"283 81 OFFCURVE",
"271 75 OFFCURVE",
"253 63 CURVE SMOOTH",
"236 51 OFFCURVE",
"222 45 OFFCURVE",
"211 45 CURVE SMOOTH",
"184 45 OFFCURVE",
"162 58 OFFCURVE",
"146 83 CURVE SMOOTH",
"130 107 OFFCURVE",
"119 133 OFFCURVE",
"112 173 CURVE SMOOTH",
"104 212 OFFCURVE",
"100 242 OFFCURVE",
"99 287 CURVE SMOOTH",
"97 332 OFFCURVE",
"96 354 OFFCURVE",
"96 394 CURVE SMOOTH",
"96 418 LINE SMOOTH",
"96 426 OFFCURVE",
"98 438 OFFCURVE",
"101 453 CURVE SMOOTH",
"104 468 OFFCURVE",
"105 480 OFFCURVE",
"105 488 CURVE SMOOTH",
"105 495 OFFCURVE",
"104 507 OFFCURVE",
"104 522 CURVE SMOOTH",
"103 537 OFFCURVE",
"102 549 OFFCURVE",
"102 557 CURVE SMOOTH",
"102 570 OFFCURVE",
"102 581 OFFCURVE",
"103 589 CURVE SMOOTH",
"103 605 OFFCURVE",
"106 633 OFFCURVE",
"111 648 CURVE SMOOTH",
"116 663 OFFCURVE",
"125 681 OFFCURVE",
"139 691 CURVE SMOOTH",
"153 700 OFFCURVE",
"174 707 OFFCURVE",
"201 707 CURVE",
"201 705 LINE",
"214 705 LINE",
"214 705 LINE",
"219 697 OFFCURVE",
"238 693 OFFCURVE",
"250 693 CURVE SMOOTH",
"265 693 OFFCURVE",
"278 701 OFFCURVE",
"278 715 CURVE SMOOTH",
"278 745 OFFCURVE",
"240 764 OFFCURVE",
"208 764 CURVE SMOOTH",
"118 764 OFFCURVE",
"49 712 OFFCURVE",
"49 630 CURVE SMOOTH",
"49 620 OFFCURVE",
"50 609 OFFCURVE",
"52 599 CURVE",
"47 575 OFFCURVE",
"45 544 OFFCURVE",
"45 506 CURVE SMOOTH",
"45 496 OFFCURVE",
"45 477 OFFCURVE",
"44 450 CURVE SMOOTH",
"44 423 OFFCURVE",
"44 402 OFFCURVE",
"44 387 CURVE SMOOTH",
"44 357 OFFCURVE",
"44 331 OFFCURVE",
"45 308 CURVE SMOOTH",
"47 260 OFFCURVE",
"52 197 OFFCURVE",
"61 153 CURVE SMOOTH",
"69 109 OFFCURVE",
"85 61 OFFCURVE",
"106 32 CURVE SMOOTH",
"127 4 OFFCURVE",
"159 -16 OFFCURVE",
"198 -16 CURVE SMOOTH"
);
}
);
width = 337;
}
);
leftMetricsKey = O;
note = C;
unicode = 0043;
},
{
glyphname = D;
layers = (
{
anchors = (
{
name = bottom;
position = "{190, 0}";
},
{
name = center;
position = "{190, 377}";
},
{
name = top;
position = "{127, 754}";
}
);
layerId = "27A8C2A5-6B67-4598-967C-E5EC4FB8AE70";
paths = (
{
closed = 1;
nodes = (
"132 -2 OFFCURVE",
"212 52 OFFCURVE",
"252 139 CURVE SMOOTH",
"293 225 OFFCURVE",
"315 328 OFFCURVE",
"315 409 CURVE SMOOTH",
"315 420 OFFCURVE",
"315 430 OFFCURVE",
"315 440 CURVE SMOOTH",
"314 460 OFFCURVE",
"312 501 OFFCURVE",
"308 532 CURVE SMOOTH",
"304 562 OFFCURVE",
"295 604 OFFCURVE",
"284 635 CURVE SMOOTH",
"272 666 OFFCURVE",
"254 700 OFFCURVE",
"232 720 CURVE SMOOTH",
"210 741 OFFCURVE",
"179 755 OFFCURVE",
"144 755 CURVE SMOOTH",
"139 755 LINE SMOOTH",
"88 755 OFFCURVE",
"63 747 OFFCURVE",
"63 731 CURVE SMOOTH",
"63 725 OFFCURVE",
"66 715 OFFCURVE",
"70 704 CURVE SMOOTH",
"75 692 OFFCURVE",
"77 684 OFFCURVE",
"78 679 CURVE",
"80 663 OFFCURVE",
"82 616 OFFCURVE",
"83 540 CURVE SMOOTH",
"84 463 OFFCURVE",
"85 422 OFFCURVE",
"85 419 CURVE",
"92 146 LINE",
"95 58 LINE",
"96 53 OFFCURVE",
"93 46 OFFCURVE",
"88 38 CURVE SMOOTH",
"83 29 OFFCURVE",
"80 22 OFFCURVE",
"80 18 CURVE SMOOTH",
"80 6 OFFCURVE",
"101 -2 OFFCURVE",
"116 -2 CURVE SMOOTH"
);
},
{
closed = 1;
nodes = (
"126 161 LINE SMOOTH",
"126 203 OFFCURVE",
"124 267 OFFCURVE",
"119 351 CURVE SMOOTH",
"114 436 OFFCURVE",
"111 499 OFFCURVE",
"111 542 CURVE SMOOTH",
"111 560 OFFCURVE",
"110 588 OFFCURVE",
"107 625 CURVE SMOOTH",
"104 661 OFFCURVE",
"103 689 OFFCURVE",
"103 708 CURVE SMOOTH",
"103 715 OFFCURVE",
"109 719 OFFCURVE",
"124 719 CURVE SMOOTH",
"231 719 OFFCURVE",
"285 622 OFFCURVE",
"285 427 CURVE SMOOTH",
"285 405 OFFCURVE",
"284 382 OFFCURVE",
"282 358 CURVE SMOOTH",
"277 310 OFFCURVE",
"264 239 OFFCURVE",
"243 185 CURVE SMOOTH",
"221 130 OFFCURVE",
"182 76 OFFCURVE",
"131 49 CURVE",
"126 49 LINE"
);
}
);
width = 381;
},
{
anchors = (
{
name = bottom;
position = "{131, 0}";
},
{
name = center;
position = "{92, 379}";
},
{
name = top;
position = "{161, 758}";
}
);
layerId = "156B637B-193E-48A3-AAC8-7B4A3960F885";
paths = (
{
closed = 1;
nodes = (
"134 -2 OFFCURVE",
"157 6 OFFCURVE",
"180 24 CURVE SMOOTH",
"224 60 OFFCURVE",
"255 116 OFFCURVE",
"281 180 CURVE SMOOTH",
"306 244 OFFCURVE",
"318 306 OFFCURVE",
"318 347 CURVE SMOOTH",
"318 350 OFFCURVE",
"318 353 OFFCURVE",
"317 357 CURVE",
"316 361 OFFCURVE",
"316 365 OFFCURVE",
"316 369 CURVE SMOOTH",
"316 372 OFFCURVE",
"317 375 OFFCURVE",
"318 377 CURVE",
"318 424 LINE SMOOTH",
"318 436 OFFCURVE",
"318 446 OFFCURVE",
"318 456 CURVE SMOOTH",
"318 475 OFFCURVE",
"315 516 OFFCURVE",
"312 544 CURVE SMOOTH",
"307 573 OFFCURVE",
"298 615 OFFCURVE",
"286 644 CURVE SMOOTH",
"274 673 OFFCURVE",
"255 705 OFFCURVE",
"232 725 CURVE SMOOTH",
"209 744 OFFCURVE",
"177 758 OFFCURVE",
"138 758 CURVE SMOOTH",
"123 758 LINE SMOOTH",
"72 758 OFFCURVE",
"46 746 OFFCURVE",
"46 723 CURVE SMOOTH",
"46 711 OFFCURVE",
"50 690 OFFCURVE",
"58 660 CURVE SMOOTH",
"65 630 OFFCURVE",
"68 606 OFFCURVE",
"68 589 CURVE SMOOTH",
"68 577 OFFCURVE",
"68 558 OFFCURVE",
"67 534 CURVE SMOOTH",
"66 509 OFFCURVE",
"65 491 OFFCURVE",
"65 479 CURVE SMOOTH",
"65 443 OFFCURVE",
"68 388 OFFCURVE",
"75 315 CURVE SMOOTH",
"81 242 OFFCURVE",
"84 187 OFFCURVE",
"84 149 CURVE SMOOTH",
"84 86 OFFCURVE",
"77 47 OFFCURVE",
"62 32 CURVE",
"62 9 OFFCURVE",
"86 -2 OFFCURVE",
"111 -2 CURVE SMOOTH"
);
},
{
closed = 1;
nodes = (
"132 151 LINE SMOOTH",
"132 212 OFFCURVE",
"128 304 OFFCURVE",
"120 425 CURVE SMOOTH",
"112 546 OFFCURVE",
"108 637 OFFCURVE",
"108 697 CURVE SMOOTH",
"108 698 LINE",
"152 698 OFFCURVE",
"188 679 OFFCURVE",
"210 647 CURVE SMOOTH",
"232 616 OFFCURVE",
"249 579 OFFCURVE",
"257 535 CURVE SMOOTH",
"264 490 OFFCURVE",
"267 455 OFFCURVE",
"267 417 CURVE SMOOTH",
"267 353 OFFCURVE",
"259 288 OFFCURVE",
"240 219 CURVE SMOOTH",
"220 150 OFFCURVE",
"182 88 OFFCURVE",
"132 56 CURVE"
);
}
);
width = 379;
}
);
note = D;
unicode = 0044;
},
{
glyphname = Eth;
layers = (
{
layerId = "27A8C2A5-6B67-4598-967C-E5EC4FB8AE70";
paths = (
{
closed = 1;
nodes = (
"186 -26 OFFCURVE",
"221 4 OFFCURVE",
"252 45 CURVE SMOOTH",
"315 128 OFFCURVE",
"348 229 OFFCURVE",
"348 317 CURVE SMOOTH",
"348 420 OFFCURVE",
"332 516 OFFCURVE",
"301 604 CURVE",
"301 606 LINE",
"280 645 OFFCURVE",
"253 683 OFFCURVE",
"217 721 CURVE SMOOTH",
"182 758 OFFCURVE",
"136 784 OFFCURVE",
"95 784 CURVE SMOOTH",
"89 784 OFFCURVE",
"79 769 OFFCURVE",
"79 763 CURVE SMOOTH",
"79 743 OFFCURVE",
"80 713 OFFCURVE",
"83 674 CURVE SMOOTH",
"85 634 OFFCURVE",
"87 604 OFFCURVE",
"87 584 CURVE SMOOTH",
"87 564 OFFCURVE",
"89 534 OFFCURVE",
"94 494 CURVE SMOOTH",
"98 454 OFFCURVE",
"101 424 OFFCURVE",
"101 404 CURVE SMOOTH",
"101 403 OFFCURVE",
"101 403 OFFCURVE",
"100 401 CURVE SMOOTH",
"100 400 OFFCURVE",
"100 399 OFFCURVE",
"100 399 CURVE",
"96 397 LINE",
"87 397 LINE SMOOTH",
"45 397 OFFCURVE",
"25 391 OFFCURVE",
"25 379 CURVE SMOOTH",
"25 367 OFFCURVE",
"27 362 OFFCURVE",
"39 362 CURVE SMOOTH",
"45 362 OFFCURVE",
"55 363 OFFCURVE",
"69 365 CURVE SMOOTH",
"82 367 OFFCURVE",
"92 368 OFFCURVE",
"100 368 CURVE",
"102 360 OFFCURVE",
"104 335 OFFCURVE",
"108 294 CURVE",
"114 170 OFFCURVE",
"117 64 OFFCURVE",
"117 -24 CURVE",
"118 -24 LINE",
"122 -34 OFFCURVE",
"126 -37 OFFCURVE",
"136 -39 CURVE",
"140 -41 OFFCURVE",
"144 -42 OFFCURVE",
"147 -43 CURVE"
);
},
{
closed = 1;
nodes = (
"151 27 OFFCURVE",
"149 63 OFFCURVE",
"146 111 CURVE SMOOTH",
"143 160 OFFCURVE",
"141 195 OFFCURVE",
"141 219 CURVE",
"142 220 LINE",
"140 228 OFFCURVE",
"135 348 OFFCURVE",
"135 369 CURVE",
"156 374 OFFCURVE",
"183 376 OFFCURVE",
"217 376 CURVE",
"227 388 LINE",
"225 399 OFFCURVE",
"217 412 OFFCURVE",
"206 412 CURVE SMOOTH",
"198 412 OFFCURVE",
"187 410 OFFCURVE",
"171 407 CURVE SMOOTH",
"156 403 OFFCURVE",
"145 401 OFFCURVE",
"137 401 CURVE",
"124 419 OFFCURVE",
"113 665 OFFCURVE",
"113 749 CURVE",
"115 751 LINE",
"208 723 OFFCURVE",
"269 636 OFFCURVE",
"291 531 CURVE",
"297 506 OFFCURVE",
"302 480 OFFCURVE",
"305 452 CURVE SMOOTH",
"312 395 OFFCURVE",
"312 371 OFFCURVE",
"312 301 CURVE SMOOTH",
"312 213 OFFCURVE",
"253 95 OFFCURVE",
"187 29 CURVE SMOOTH",
"185 27 OFFCURVE",
"183 25 OFFCURVE",
"180 22 CURVE",
"174 16 OFFCURVE",
"173 14 OFFCURVE",
"167 10 CURVE SMOOTH",
"162 6 OFFCURVE",
"157 4 OFFCURVE",
"151 3 CURVE"
);
}
);
width = 430;
},
{
layerId = "156B637B-193E-48A3-AAC8-7B4A3960F885";
paths = (
{
closed = 1;
nodes = (
"152 -2 OFFCURVE",
"175 6 OFFCURVE",
"198 24 CURVE SMOOTH",
"242 60 OFFCURVE",
"273 116 OFFCURVE",
"299 180 CURVE SMOOTH",
"324 244 OFFCURVE",
"336 306 OFFCURVE",
"336 347 CURVE SMOOTH",
"336 350 OFFCURVE",
"336 353 OFFCURVE",
"335 357 CURVE",
"334 361 OFFCURVE",
"334 365 OFFCURVE",
"334 369 CURVE SMOOTH",
"334 372 OFFCURVE",
"335 375 OFFCURVE",
"336 377 CURVE",
"336 424 LINE SMOOTH",
"336 436 OFFCURVE",
"336 446 OFFCURVE",
"336 456 CURVE SMOOTH",
"336 475 OFFCURVE",
"333 516 OFFCURVE",
"330 544 CURVE SMOOTH",
"325 573 OFFCURVE",
"316 615 OFFCURVE",
"304 644 CURVE SMOOTH",
"292 673 OFFCURVE",
"273 705 OFFCURVE",
"250 725 CURVE SMOOTH",
"228 744 OFFCURVE",
"195 758 OFFCURVE",
"156 758 CURVE SMOOTH",
"141 758 LINE SMOOTH",
"90 758 OFFCURVE",
"64 746 OFFCURVE",
"64 723 CURVE SMOOTH",
"64 711 OFFCURVE",
"68 690 OFFCURVE",
"76 660 CURVE SMOOTH",
"83 630 OFFCURVE",
"86 606 OFFCURVE",
"86 589 CURVE SMOOTH",
"86 577 OFFCURVE",
"86 558 OFFCURVE",
"85 534 CURVE SMOOTH",
"84 509 OFFCURVE",
"83 491 OFFCURVE",
"83 479 CURVE SMOOTH",
"83 443 OFFCURVE",
"86 388 OFFCURVE",
"93 315 CURVE SMOOTH",
"99 242 OFFCURVE",
"102 187 OFFCURVE",
"102 149 CURVE SMOOTH",
"102 86 OFFCURVE",
"95 47 OFFCURVE",
"80 32 CURVE",
"80 9 OFFCURVE",
"104 -2 OFFCURVE",
"129 -2 CURVE SMOOTH"
);
},
{
closed = 1;
nodes = (
"45 360 OFFCURVE",
"59 361 OFFCURVE",
"76 362 CURVE SMOOTH",
"109 364 OFFCURVE",
"162 368 OFFCURVE",
"194 380 CURVE SMOOTH",
"209 386 OFFCURVE",
"217 393 OFFCURVE",
"217 401 CURVE SMOOTH",
"217 418 OFFCURVE",
"201 430 OFFCURVE",
"184 430 CURVE SMOOTH",
"173 430 OFFCURVE",
"160 429 OFFCURVE",
"143 428 CURVE SMOOTH",
"109 426 OFFCURVE",
"57 422 OFFCURVE",
"25 410 CURVE SMOOTH",
"9 404 OFFCURVE",
"1 397 OFFCURVE",
"1 389 CURVE SMOOTH",
"1 373 OFFCURVE",
"17 360 OFFCURVE",
"34 360 CURVE SMOOTH"
);
},
{
closed = 1;
nodes = (
"150 151 LINE SMOOTH",
"150 212 OFFCURVE",
"146 304 OFFCURVE",
"138 425 CURVE SMOOTH",
"130 546 OFFCURVE",
"126 637 OFFCURVE",
"126 697 CURVE SMOOTH",
"126 698 LINE",
"170 698 OFFCURVE",
"207 679 OFFCURVE",
"229 647 CURVE SMOOTH",
"250 616 OFFCURVE",
"267 579 OFFCURVE",
"275 535 CURVE SMOOTH",
"282 490 OFFCURVE",
"285 455 OFFCURVE",
"285 417 CURVE SMOOTH",
"285 353 OFFCURVE",
"277 288 OFFCURVE",
"258 219 CURVE SMOOTH",
"238 150 OFFCURVE",
"200 88 OFFCURVE",
"150 56 CURVE"
);
}
);
width = 421;
}
);
note = Eth;
unicode = 00D0;
},
{
glyphname = E;
layers = (
{
anchors = (
{
name = bottom;
position = "{125, 0}";
},
{
name = ogonek;
position = "{204, 5}";
},
{
name = top;
position = "{125, 754}";
},
{
name = topleft;
position = "{10, 754}";
}
);
layerId = "27A8C2A5-6B67-4598-967C-E5EC4FB8AE70";
paths = (
{
closed = 1;
nodes = (
"156 -6 LINE SMOOTH",
"182 -6 OFFCURVE",
"199 -4 OFFCURVE",
"205 -2 CURVE SMOOTH",
"211 0 OFFCURVE",
"214 7 OFFCURVE",
"214 17 CURVE SMOOTH",
"214 26 OFFCURVE",
"208 30 OFFCURVE",
"196 30 CURVE SMOOTH",
"187 30 LINE SMOOTH",
"181 30 OFFCURVE",
"167 30 OFFCURVE",
"145 30 CURVE SMOOTH",
"123 30 OFFCURVE",
"108 30 OFFCURVE",
"102 30 CURVE",
"102 67 LINE SMOOTH",
"102 104 OFFCURVE",
"102 157 OFFCURVE",
"100 226 CURVE SMOOTH",
"99 294 OFFCURVE",
"98 343 OFFCURVE",
"98 374 CURVE SMOOTH",
"98 377 OFFCURVE",
"100 379 OFFCURVE",
"102 379 CURVE SMOOTH",
"159 379 LINE SMOOTH",
"170 379 OFFCURVE",
"174 383 OFFCURVE",
"174 396 CURVE SMOOTH",
"174 405 OFFCURVE",
"169 410 OFFCURVE",
"158 410 CURVE SMOOTH",
"147 410 OFFCURVE",
"129 410 OFFCURVE",
"104 408 CURVE",
"103 408 OFFCURVE",
"103 408 OFFCURVE",
"103 408 CURVE SMOOTH",
"102 408 OFFCURVE",
"102 408 OFFCURVE",
"102 408 CURVE SMOOTH",
"100 408 OFFCURVE",
"100 409 OFFCURVE",
"100 410 CURVE SMOOTH",
"100 535 LINE SMOOTH",
"100 554 OFFCURVE",
"100 583 OFFCURVE",
"100 620 CURVE SMOOTH",
"99 658 OFFCURVE",
"99 686 OFFCURVE",
"99 705 CURVE SMOOTH",
"99 715 OFFCURVE",
"102 717 OFFCURVE",
"111 717 CURVE SMOOTH",
"114 717 OFFCURVE",
"119 716 OFFCURVE",
"127 716 CURVE SMOOTH",
"135 715 OFFCURVE",
"140 715 OFFCURVE",
"143 715 CURVE SMOOTH",
"150 715 OFFCURVE",
"155 715 OFFCURVE",
"160 715 CURVE",
"167 716 OFFCURVE",
"179 722 OFFCURVE",
"179 734 CURVE SMOOTH",
"179 743 OFFCURVE",
"176 749 OFFCURVE",
"169 751 CURVE",
"162 753 OFFCURVE",
"158 753 OFFCURVE",
"148 753 CURVE SMOOTH",
"86 753 LINE SMOOTH",
"75 753 OFFCURVE",
"68 741 OFFCURVE",
"68 725 CURVE",
"70 678 OFFCURVE",
"70 641 OFFCURVE",
"70 614 CURVE",
"71 201 LINE",
"70 55 LINE",
"70 53 LINE SMOOTH",
"70 49 OFFCURVE",
"70 43 OFFCURVE",
"71 35 CURVE",
"71 26 OFFCURVE",
"71 21 OFFCURVE",
"71 16 CURVE SMOOTH",
"71 -3 OFFCURVE",
"85 -6 OFFCURVE",
"114 -6 CURVE SMOOTH"
);
}
);
width = 249;
},
{
anchors = (
{
name = bottom;
position = "{139, 0}";
},
{
name = ogonek;
position = "{250, 5}";
},
{
name = top;
position = "{120, 772}";
},
{
name = topleft;
position = "{10, 758}";
}
);
layerId = "156B637B-193E-48A3-AAC8-7B4A3960F885";
paths = (
{
closed = 1;
nodes = (
"148 -6 LINE SMOOTH",
"162 -6 OFFCURVE",
"173 -5 OFFCURVE",
"181 -5 CURVE SMOOTH",
"198 -3 OFFCURVE",
"225 6 OFFCURVE",
"234 24 CURVE",
"234 28 LINE SMOOTH",
"234 45 OFFCURVE",
"215 54 OFFCURVE",
"177 54 CURVE SMOOTH",
"174 54 OFFCURVE",
"155 53 OFFCURVE",
"121 51 CURVE",
"121 360 LINE",
"125 365 OFFCURVE",
"132 367 OFFCURVE",
"142 367 CURVE SMOOTH",
"145 367 OFFCURVE",
"149 367 OFFCURVE",
"155 367 CURVE SMOOTH",
"161 366 OFFCURVE",
"165 366 OFFCURVE",
"167 366 CURVE SMOOTH",
"182 366 OFFCURVE",
"193 381 OFFCURVE",
"193 397 CURVE SMOOTH",
"193 412 OFFCURVE",
"179 425 OFFCURVE",
"164 425 CURVE SMOOTH",
"154 425 OFFCURVE",
"144 423 OFFCURVE",
"131 419 CURVE",
"125 418 OFFCURVE",
"120 417 OFFCURVE",
"117 416 CURVE",
"117 428 OFFCURVE",
"118 446 OFFCURVE",
"119 472 CURVE SMOOTH",
"121 498 OFFCURVE",
"122 517 OFFCURVE",
"122 530 CURVE SMOOTH",
"122 548 OFFCURVE",
"120 576 OFFCURVE",
"118 613 CURVE SMOOTH",
"115 649 OFFCURVE",
"114 677 OFFCURVE",
"114 695 CURVE",
"116 696 OFFCURVE",
"120 696 OFFCURVE",
"125 696 CURVE SMOOTH",
"128 696 OFFCURVE",
"133 696 OFFCURVE",
"139 695 CURVE SMOOTH",
"146 695 OFFCURVE",
"150 695 OFFCURVE",
"153 695 CURVE SMOOTH",
"184 695 OFFCURVE",
"199 705 OFFCURVE",
"199 725 CURVE SMOOTH",
"199 744 OFFCURVE",
"173 757 OFFCURVE",
"153 757 CURVE SMOOTH",
"145 757 OFFCURVE",
"132 756 OFFCURVE",
"116 753 CURVE SMOOTH",
"99 750 OFFCURVE",
"87 749 OFFCURVE",
"79 749 CURVE",
"73 743 OFFCURVE",
"65 731 OFFCURVE",
"54 713 CURVE",
"54 710 LINE SMOOTH",
"54 698 OFFCURVE",
"56 681 OFFCURVE",
"61 659 CURVE SMOOTH",
"65 636 OFFCURVE",
"67 619 OFFCURVE",
"67 608 CURVE SMOOTH",
"67 27 LINE SMOOTH",
"67 12 OFFCURVE",
"73 2 OFFCURVE",
"84 -1 CURVE SMOOTH",
"95 -5 OFFCURVE",
"102 -6 OFFCURVE",
"117 -6 CURVE SMOOTH"
);
}
);
width = 278;
}
);
note = E;
unicode = 0045;
},
{
glyphname = F;
layers = (
{
anchors = (
{
name = bottom;
position = "{128, 0}";
},
{
name = top;
position = "{128, 754}";
}
);
layerId = "27A8C2A5-6B67-4598-967C-E5EC4FB8AE70";
paths = (
{
closed = 1;
nodes = (
"126 -2 OFFCURVE",
"133 4 OFFCURVE",
"133 17 CURVE SMOOTH",
"133 21 OFFCURVE",
"132 25 OFFCURVE",
"130 30 CURVE",
"133 35 LINE",
"133 73 OFFCURVE",
"130 129 OFFCURVE",
"124 204 CURVE SMOOTH",
"118 278 OFFCURVE",
"114 334 OFFCURVE",
"114 372 CURVE SMOOTH",
"114 378 OFFCURVE",
"121 382 OFFCURVE",
"135 384 CURVE SMOOTH",
"163 386 OFFCURVE",
"197 388 OFFCURVE",
"197 404 CURVE SMOOTH",
"197 412 OFFCURVE",
"190 424 OFFCURVE",
"182 424 CURVE SMOOTH",
"174 424 OFFCURVE",
"163 422 OFFCURVE",
"148 418 CURVE SMOOTH",
"133 414 OFFCURVE",
"122 412 OFFCURVE",
"114 412 CURVE",
"114 420 OFFCURVE",
"112 469 OFFCURVE",
"107 559 CURVE SMOOTH",
"102 649 OFFCURVE",
"100 697 OFFCURVE",
"100 705 CURVE SMOOTH",
"100 723 OFFCURVE",
"102 724 OFFCURVE",
"112 724 CURVE SMOOTH",
"115 724 OFFCURVE",
"124 724 OFFCURVE",
"138 724 CURVE SMOOTH",
"151 723 OFFCURVE",
"159 723 OFFCURVE",
"161 723 CURVE SMOOTH",
"173 723 OFFCURVE",
"179 727 OFFCURVE",
"179 733 CURVE SMOOTH",
"179 745 OFFCURVE",
"174 756 OFFCURVE",
"163 756 CURVE SMOOTH",
"155 756 OFFCURVE",
"146 756 OFFCURVE",
"135 756 CURVE",
"124 756 OFFCURVE",
"117 756 OFFCURVE",
"113 756 CURVE SMOOTH",
"96 756 OFFCURVE",
"84 756 OFFCURVE",
"78 754 CURVE SMOOTH",
"72 753 OFFCURVE",
"68 750 OFFCURVE",
"68 745 CURVE SMOOTH",
"68 738 LINE SMOOTH",
"68 737 OFFCURVE",
"70 711 OFFCURVE",
"72 662 CURVE SMOOTH",
"77 562 OFFCURVE",
"83 427 OFFCURVE",
"83 400 CURVE SMOOTH",
"83 341 OFFCURVE",
"88 232 OFFCURVE",
"92 159 CURVE SMOOTH",
"94 123 OFFCURVE",
"95 102 OFFCURVE",
"95 98 CURVE SMOOTH",
"95 24 LINE SMOOTH",
"95 7 OFFCURVE",
"101 -2 OFFCURVE",
"111 -2 CURVE SMOOTH"
);
}
);
width = 256;
},
{
anchors = (
{
name = bottom;
position = "{132, 0}";
},
{
name = top;
position = "{132, 758}";
}
);
layerId = "156B637B-193E-48A3-AAC8-7B4A3960F885";
paths = (
{
closed = 1;
nodes = (
"133 -1 OFFCURVE",
"146 10 OFFCURVE",
"146 27 CURVE SMOOTH",
"146 32 OFFCURVE",
"146 36 OFFCURVE",
"145 40 CURVE",
"145 40 OFFCURVE",
"145 41 OFFCURVE",
"146 42 CURVE",
"146 44 OFFCURVE",
"147 45 OFFCURVE",
"147 46 CURVE SMOOTH",
"147 83 OFFCURVE",
"144 137 OFFCURVE",
"138 209 CURVE SMOOTH",
"131 281 OFFCURVE",
"128 335 OFFCURVE",
"128 372 CURVE",
"129 372 OFFCURVE",
"133 372 OFFCURVE",
"139 372 CURVE",
"152 373 OFFCURVE",
"156 373 OFFCURVE",
"169 375 CURVE",
"183 376 OFFCURVE",
"189 380 OFFCURVE",
"198 384 CURVE",
"207 388 OFFCURVE",
"211 395 OFFCURVE",
"211 404 CURVE SMOOTH",
"211 420 OFFCURVE",
"199 435 OFFCURVE",
"184 435 CURVE SMOOTH",
"168 435 OFFCURVE",
"130 425 OFFCURVE",
"128 424 CURVE",
"127 453 OFFCURVE",
"125 497 OFFCURVE",
"120 557 CURVE SMOOTH",
"115 617 OFFCURVE",
"113 662 OFFCURVE",
"113 693 CURVE SMOOTH",
"113 700 OFFCURVE",
"122 704 OFFCURVE",
"141 704 CURVE SMOOTH",
"145 704 OFFCURVE",
"149 704 OFFCURVE",
"155 704 CURVE SMOOTH",
"161 703 OFFCURVE",
"164 703 OFFCURVE",
"165 703 CURVE SMOOTH",
"180 703 OFFCURVE",
"193 710 OFFCURVE",
"193 725 CURVE SMOOTH",
"193 752 OFFCURVE",
"179 759 OFFCURVE",
"150 759 CURVE SMOOTH",
"140 759 OFFCURVE",
"131 759 OFFCURVE",
"125 758 CURVE",
"110 758 OFFCURVE",
"87 753 OFFCURVE",
"76 746 CURVE SMOOTH",
"64 738 OFFCURVE",
"54 724 OFFCURVE",
"54 703 CURVE",
"67 682 OFFCURVE",
"84 190 OFFCURVE",
"84 63 CURVE SMOOTH",
"84 21 OFFCURVE",
"94 -1 OFFCURVE",
"113 -1 CURVE SMOOTH"
);
}
);
width = 265;
}
);
note = F;
unicode = 0046;
},
{
glyphname = G;
layers = (
{
anchors = (
{
name = bottom;
position = "{217, -10}";
},
{
name = top;
position = "{207, 764}";
}
);
layerId = "27A8C2A5-6B67-4598-967C-E5EC4FB8AE70";
paths = (
{
closed = 1;
nodes = (
"237 -16 OFFCURVE",
"271 -5 OFFCURVE",
"309 17 CURVE",
"309 17 OFFCURVE",
"309 16 OFFCURVE",
"309 15 CURVE SMOOTH",
"308 13 OFFCURVE",
"308 13 OFFCURVE",
"308 12 CURVE SMOOTH",
"308 -2 OFFCURVE",
"316 -10 OFFCURVE",
"332 -10 CURVE SMOOTH",
"341 -10 OFFCURVE",
"345 -4 OFFCURVE",
"345 6 CURVE SMOOTH",
"345 26 OFFCURVE",
"342 56 OFFCURVE",
"335 95 CURVE SMOOTH",
"329 135 OFFCURVE",
"325 164 OFFCURVE",
"325 184 CURVE SMOOTH",
"325 208 OFFCURVE",
"316 226 OFFCURVE",
"294 226 CURVE SMOOTH",
"273 226 OFFCURVE",
"219 216 OFFCURVE",
"219 204 CURVE SMOOTH",
"219 193 OFFCURVE",
"227 187 OFFCURVE",
"242 187 CURVE SMOOTH",
"247 187 OFFCURVE",
"254 188 OFFCURVE",
"263 189 CURVE SMOOTH",
"271 190 OFFCURVE",
"278 191 OFFCURVE",
"282 191 CURVE SMOOTH",
"288 191 OFFCURVE",
"292 186 OFFCURVE",
"296 174 CURVE",
"299 163 OFFCURVE",
"302 149 OFFCURVE",
"304 133 CURVE SMOOTH",
"307 100 OFFCURVE",
"308 77 OFFCURVE",
"308 62 CURVE",
"287 29 OFFCURVE",
"258 12 OFFCURVE",
"223 12 CURVE SMOOTH",
"203 12 OFFCURVE",
"185 20 OFFCURVE",
"169 35 CURVE SMOOTH",
"137 64 OFFCURVE",
"121 109 OFFCURVE",
"109 172 CURVE SMOOTH",
"98 235 OFFCURVE",
"95 289 OFFCURVE",
"95 349 CURVE SMOOTH",
"95 375 OFFCURVE",
"95 393 OFFCURVE",
"95 404 CURVE",
"95 412 OFFCURVE",
"96 449 OFFCURVE",
"96 470 CURVE SMOOTH",
"97 491 OFFCURVE",
"99 532 OFFCURVE",
"102 558 CURVE SMOOTH",
"104 584 OFFCURVE",
"110 622 OFFCURVE",
"117 647 CURVE SMOOTH",
"125 672 OFFCURVE",
"136 700 OFFCURVE",
"150 716 CURVE SMOOTH",
"164 732 OFFCURVE",
"184 743 OFFCURVE",
"207 743 CURVE SMOOTH",
"210 743 OFFCURVE",
"215 742 OFFCURVE",
"221 741 CURVE",
"228 739 OFFCURVE",
"232 738 OFFCURVE",
"235 738 CURVE SMOOTH",
"245 738 OFFCURVE",
"250 742 OFFCURVE",
"250 750 CURVE SMOOTH",
"250 761 OFFCURVE",
"240 767 OFFCURVE",
"220 767 CURVE SMOOTH",
"204 767 OFFCURVE",
"188 764 OFFCURVE",
"174 759 CURVE SMOOTH",
"146 748 OFFCURVE",
"126 731 OFFCURVE",
"110 703 CURVE SMOOTH",
"94 675 OFFCURVE",
"84 651 OFFCURVE",
"77 614 CURVE SMOOTH",
"69 577 OFFCURVE",
"65 552 OFFCURVE",
"63 515 CURVE SMOOTH",
"61 477 OFFCURVE",
"61 459 OFFCURVE",
"61 428 CURVE SMOOTH",
"61 276 OFFCURVE",
"73 164 OFFCURVE",
"97 92 CURVE SMOOTH",
"121 20 OFFCURVE",
"158 -16 OFFCURVE",
"208 -16 CURVE SMOOTH"
);
}
);
width = 384;
},
{
anchors = (
{
name = bottom;
position = "{186, 0}";
},
{
name = top;
position = "{161, 768}";
}
);
layerId = "156B637B-193E-48A3-AAC8-7B4A3960F885";
paths = (
{
closed = 1;
nodes = (
"236 -26 OFFCURVE",
"250 -21 OFFCURVE",
"271 -9 CURVE SMOOTH",
"282 -3 OFFCURVE",
"290 0 OFFCURVE",
"293 2 CURVE",
"293 1 LINE",
"299 -13 OFFCURVE",
"310 -20 OFFCURVE",
"327 -20 CURVE SMOOTH",
"341 -20 OFFCURVE",
"351 -8 OFFCURVE",
"351 7 CURVE SMOOTH",
"351 27 OFFCURVE",
"348 57 OFFCURVE",
"341 96 CURVE SMOOTH",
"334 136 OFFCURVE",
"331 166 OFFCURVE",
"331 186 CURVE SMOOTH",
"331 215 OFFCURVE",
"316 239 OFFCURVE",
"289 239 CURVE SMOOTH",
"276 239 OFFCURVE",
"259 237 OFFCURVE",
"239 232 CURVE SMOOTH",
"218 228 OFFCURVE",
"202 219 OFFCURVE",
"202 206 CURVE SMOOTH",
"202 187 OFFCURVE",
"213 177 OFFCURVE",
"236 177 CURVE SMOOTH",
"242 177 OFFCURVE",
"250 178 OFFCURVE",
"260 179 CURVE SMOOTH",
"270 181 OFFCURVE",
"275 181 OFFCURVE",
"275 181 CURVE",
"286 163 OFFCURVE",
"291 106 OFFCURVE",
"292 67 CURVE",
"272 39 OFFCURVE",
"248 25 OFFCURVE",
"218 25 CURVE SMOOTH",
"203 25 OFFCURVE",
"188 28 OFFCURVE",
"176 35 CURVE SMOOTH",
"151 48 OFFCURVE",
"135 69 OFFCURVE",
"124 101 CURVE SMOOTH",
"111 132 OFFCURVE",
"105 161 OFFCURVE",
"102 201 CURVE SMOOTH",
"98 240 OFFCURVE",
"97 266 OFFCURVE",
"97 301 CURVE SMOOTH",
"97 311 OFFCURVE",
"97 322 OFFCURVE",
"98 336 CURVE",
"98 349 OFFCURVE",
"98 358 OFFCURVE",
"98 363 CURVE SMOOTH",
"98 394 OFFCURVE",
"98 413 OFFCURVE",
"100 458 CURVE SMOOTH",
"101 503 OFFCURVE",
"105 535 OFFCURVE",
"112 580 CURVE SMOOTH",
"118 624 OFFCURVE",
"129 656 OFFCURVE",
"143 685 CURVE SMOOTH",
"156 714 OFFCURVE",
"177 730 OFFCURVE",
"202 730 CURVE SMOOTH",
"205 730 OFFCURVE",
"210 729 OFFCURVE",
"216 728 CURVE SMOOTH",
"223 726 OFFCURVE",
"227 725 OFFCURVE",
"230 725 CURVE SMOOTH",
"245 725 OFFCURVE",
"257 734 OFFCURVE",
"257 749 CURVE SMOOTH",
"257 768 OFFCURVE",
"243 777 OFFCURVE",
"215 777 CURVE SMOOTH",
"198 777 OFFCURVE",
"182 774 OFFCURVE",
"168 770 CURVE SMOOTH",
"139 759 OFFCURVE",
"118 742 OFFCURVE",
"101 716 CURVE SMOOTH",
"83 690 OFFCURVE",
"72 664 OFFCURVE",
"63 628 CURVE SMOOTH",
"55 593 OFFCURVE",
"50 563 OFFCURVE",
"47 524 CURVE SMOOTH",
"45 484 OFFCURVE",
"44 458 OFFCURVE",
"44 421 CURVE SMOOTH",
"44 411 OFFCURVE",
"44 398 OFFCURVE",
"44 381 CURVE",
"44 365 OFFCURVE",
"44 354 OFFCURVE",
"44 347 CURVE SMOOTH",
"44 330 OFFCURVE",
"44 315 OFFCURVE",
"45 302 CURVE",
"45 277 OFFCURVE",
"48 228 OFFCURVE",
"52 196 CURVE SMOOTH",
"56 165 OFFCURVE",
"64 119 OFFCURVE",
"76 89 CURVE SMOOTH",
"88 60 OFFCURVE",
"106 26 OFFCURVE",
"129 7 CURVE SMOOTH",
"151 -13 OFFCURVE",
"183 -26 OFFCURVE",
"220 -26 CURVE SMOOTH"
);
}
);
width = 371;
}
);
note = G;
unicode = 0047;
},
{
glyphname = H;
layers = (
{
anchors = (
{
name = bottom;
position = "{164, 0}";
},
{
name = center;
position = "{164, 377}";
},
{
name = top;
position = "{164, 754}";
},
{
name = topleft;
position = "{10, 754}";
}
);
layerId = "27A8C2A5-6B67-4598-967C-E5EC4FB8AE70";
paths = (
{
closed = 1;
nodes = (
"249 -10 OFFCURVE",
"253 0 OFFCURVE",
"253 10 CURVE SMOOTH",
"253 24 LINE SMOOTH",
"253 48 OFFCURVE",
"251 144 OFFCURVE",
"246 312 CURVE SMOOTH",
"241 479 OFFCURVE",
"239 623 OFFCURVE",
"239 741 CURVE SMOOTH",
"239 749 OFFCURVE",
"231 754 OFFCURVE",
"222 754 CURVE SMOOTH",
"213 754 OFFCURVE",
"208 750 OFFCURVE",
"208 742 CURVE SMOOTH",
"208 705 OFFCURVE",
"210 648 OFFCURVE",
"213 572 CURVE SMOOTH",
"216 497 OFFCURVE",
"218 440 OFFCURVE",
"218 403 CURVE",
"217 401 LINE",
"204 401 OFFCURVE",
"185 399 OFFCURVE",
"160 397 CURVE SMOOTH",
"134 395 OFFCURVE",
"115 393 OFFCURVE",
"102 393 CURVE SMOOTH",
"99 393 OFFCURVE",
"97 402 OFFCURVE",
"97 419 CURVE SMOOTH",
"97 468 LINE SMOOTH",
"97 491 OFFCURVE",
"95 524 OFFCURVE",
"93 569 CURVE SMOOTH",
"90 614 OFFCURVE",
"88 648 OFFCURVE",
"88 671 CURVE SMOOTH",
"88 745 LINE",
"89 753 OFFCURVE",
"83 758 OFFCURVE",
"76 758 CURVE SMOOTH",
"68 758 OFFCURVE",
"63 755 OFFCURVE",
"63 748 CURVE SMOOTH",
"63 607 OFFCURVE",
"69 455 OFFCURVE",
"82 292 CURVE SMOOTH",
"85 246 OFFCURVE",
"93 37 OFFCURVE",
"93 10 CURVE SMOOTH",
"93 0 OFFCURVE",
"98 -4 OFFCURVE",
"108 -4 CURVE SMOOTH",
"115 -4 OFFCURVE",
"119 1 OFFCURVE",
"119 11 CURVE SMOOTH",
"119 50 OFFCURVE",
"116 110 OFFCURVE",
"110 192 CURVE SMOOTH",
"104 273 OFFCURVE",
"102 334 OFFCURVE",
"102 373 CURVE",
"111 375 OFFCURVE",
"135 376 OFFCURVE",
"172 376 CURVE SMOOTH",
"176 376 OFFCURVE",
"183 376 OFFCURVE",
"191 376 CURVE",
"200 376 OFFCURVE",
"207 376 OFFCURVE",
"210 376 CURVE SMOOTH",
"217 376 LINE",
"223 250 OFFCURVE",
"227 134 OFFCURVE",
"227 29 CURVE SMOOTH",
"227 26 OFFCURVE",
"227 22 OFFCURVE",
"226 18 CURVE SMOOTH",
"226 12 OFFCURVE",
"226 8 OFFCURVE",
"226 6 CURVE SMOOTH",
"226 -4 OFFCURVE",
"228 -10 OFFCURVE",
"240 -10 CURVE SMOOTH"
);
}
);
width = 327;
},
{
anchors = (
{
name = bottom;
position = "{165, 0}";
},
{
name = center;
position = "{136, 563}";
},
{
name = top;
position = "{146, 758}";
},
{
name = topleft;
position = "{10, 758}";
}
);
layerId = "156B637B-193E-48A3-AAC8-7B4A3960F885";
paths = (
{
closed = 1;
nodes = (
"252 -15 OFFCURVE",
"264 3 OFFCURVE",
"264 21 CURVE SMOOTH",
"264 94 OFFCURVE",
"261 204 OFFCURVE",
"255 351 CURVE SMOOTH",
"249 497 OFFCURVE",
"245 607 OFFCURVE",
"245 680 CURVE SMOOTH",
"245 689 OFFCURVE",
"245 697 OFFCURVE",
"245 703 CURVE",
"244 714 OFFCURVE",
"241 732 OFFCURVE",
"234 741 CURVE SMOOTH",
"228 749 OFFCURVE",
"214 757 OFFCURVE",
"196 757 CURVE",
"196 730 LINE SMOOTH",
"196 692 OFFCURVE",
"197 636 OFFCURVE",
"198 563 CURVE SMOOTH",
"200 489 OFFCURVE",
"200 436 OFFCURVE",
"200 402 CURVE",
"189 402 OFFCURVE",
"173 401 OFFCURVE",
"151 399 CURVE SMOOTH",
"130 396 OFFCURVE",
"114 396 OFFCURVE",
"103 395 CURVE",
"102 403 OFFCURVE",
"101 412 OFFCURVE",
"101 421 CURVE SMOOTH",
"101 425 OFFCURVE",
"101 432 OFFCURVE",
"102 440 CURVE SMOOTH",
"102 448 OFFCURVE",
"102 455 OFFCURVE",
"102 458 CURVE SMOOTH",
"102 481 OFFCURVE",
"101 516 OFFCURVE",
"99 562 CURVE SMOOTH",
"96 607 OFFCURVE",
"95 641 OFFCURVE",
"95 664 CURVE SMOOTH",
"95 690 OFFCURVE",
"96 715 OFFCURVE",
"99 739 CURVE",
"93 747 OFFCURVE",
"76 755 OFFCURVE",
"63 755 CURVE SMOOTH",
"52 755 OFFCURVE",
"46 750 OFFCURVE",
"46 737 CURVE SMOOTH",
"46 709 OFFCURVE",
"46 680 OFFCURVE",
"47 649 CURVE SMOOTH",
"47 587 OFFCURVE",
"49 438 OFFCURVE",
"54 333 CURVE SMOOTH",
"59 228 OFFCURVE",
"66 109 OFFCURVE",
"80 48 CURVE SMOOTH",
"87 18 OFFCURVE",
"95 2 OFFCURVE",
"104 2 CURVE SMOOTH",
"117 2 OFFCURVE",
"125 16 OFFCURVE",
"125 29 CURVE SMOOTH",
"125 67 OFFCURVE",
"122 124 OFFCURVE",
"117 199 CURVE SMOOTH",
"111 274 OFFCURVE",
"108 331 OFFCURVE",
"108 368 CURVE",
"121 373 OFFCURVE",
"141 375 OFFCURVE",
"167 375 CURVE SMOOTH",
"172 375 OFFCURVE",
"183 374 OFFCURVE",
"201 371 CURVE",
"207 263 OFFCURVE",
"209 145 OFFCURVE",
"209 18 CURVE SMOOTH",
"209 0 OFFCURVE",
"217 -15 OFFCURVE",
"235 -15 CURVE SMOOTH"
);
}
);
width = 330;
}
);
note = H;
unicode = 0048;
},
{
glyphname = Hbar;
layers = (
{
layerId = "27A8C2A5-6B67-4598-967C-E5EC4FB8AE70";
paths = (
{
closed = 1;
nodes = (
"270 -16 OFFCURVE",
"278 0 OFFCURVE",
"278 10 CURVE SMOOTH",
"278 13 OFFCURVE",
"277 18 OFFCURVE",
"274 24 CURVE",
"274 53 OFFCURVE",
"272 130 OFFCURVE",
"268 256 CURVE SMOOTH",
"263 381 OFFCURVE",
"261 493 OFFCURVE",
"260 592 CURVE",
"273 592 LINE",
"273 602 OFFCURVE",
"266 609 OFFCURVE",
"259 611 CURVE",
"259 675 LINE SMOOTH",
"259 698 OFFCURVE",
"258 712 OFFCURVE",
"255 730 CURVE SMOOTH",
"251 747 OFFCURVE",
"243 756 OFFCURVE",
"231 756 CURVE",
"229 750 OFFCURVE",
"229 745 OFFCURVE",
"229 742 CURVE SMOOTH",
"229 713 OFFCURVE",
"230 669 OFFCURVE",
"232 611 CURVE",
"164 610 OFFCURVE",
"124 609 OFFCURVE",
"111 609 CURVE",
"109 636 OFFCURVE",
"109 657 OFFCURVE",
"109 671 CURVE SMOOTH",
"109 696 OFFCURVE",
"110 720 OFFCURVE",
"113 745 CURVE",
"100 756 LINE",
"84 748 LINE",
"84 696 OFFCURVE",
"84 649 OFFCURVE",
"86 608 CURVE",
"71 607 OFFCURVE",
"64 606 OFFCURVE",
"64 606 CURVE SMOOTH",
"64 596 OFFCURVE",
"75 589 OFFCURVE",
"85 589 CURVE SMOOTH",
"86 589 LINE",
"89 493 OFFCURVE",
"95 394 OFFCURVE",
"102 292 CURVE SMOOTH",
"103 280 OFFCURVE",
"104 251 OFFCURVE",
"104 207 CURVE SMOOTH",
"105 163 OFFCURVE",
"105 122 OFFCURVE",
"107 83 CURVE SMOOTH",
"108 45 OFFCURVE",
"110 21 OFFCURVE",
"113 13 CURVE",
"116 5 OFFCURVE",
"120 3 OFFCURVE",
"129 3 CURVE SMOOTH",
"136 3 OFFCURVE",
"139 8 OFFCURVE",
"139 18 CURVE SMOOTH",
"139 57 OFFCURVE",
"136 114 OFFCURVE",
"131 191 CURVE SMOOTH",
"125 268 OFFCURVE",
"122 325 OFFCURVE",
"122 364 CURVE",
"136 372 OFFCURVE",
"160 376 OFFCURVE",
"193 376 CURVE SMOOTH",
"197 376 OFFCURVE",
"204 375 OFFCURVE",
"212 374 CURVE SMOOTH",
"220 372 OFFCURVE",
"227 371 OFFCURVE",
"231 371 CURVE SMOOTH",
"231 371 OFFCURVE",
"233 371 OFFCURVE",
"234 372 CURVE SMOOTH",
"236 372 OFFCURVE",
"237 372 OFFCURVE",
"237 372 CURVE",
"244 246 OFFCURVE",
"247 131 OFFCURVE",
"247 29 CURVE SMOOTH",
"247 26 OFFCURVE",
"247 22 OFFCURVE",
"247 18 CURVE SMOOTH",
"246 12 OFFCURVE",
"246 8 OFFCURVE",
"246 6 CURVE SMOOTH",
"246 -9 OFFCURVE",
"251 -16 OFFCURVE",
"260 -16 CURVE SMOOTH"
);
},
{
closed = 1;
nodes = (
"118 403 OFFCURVE",
"116 415 OFFCURVE",
"116 428 CURVE SMOOTH",
"116 433 OFFCURVE",
"116 439 OFFCURVE",
"117 448 CURVE SMOOTH",
"117 457 OFFCURVE",
"117 463 OFFCURVE",
"117 468 CURVE SMOOTH",
"117 489 OFFCURVE",
"115 530 OFFCURVE",
"112 589 CURVE",
"137 590 OFFCURVE",
"210 592 OFFCURVE",
"233 592 CURVE",
"236 500 OFFCURVE",
"238 437 OFFCURVE",
"238 403 CURVE",
"237 401 LINE",
"224 401 OFFCURVE",
"205 399 OFFCURVE",
"179 397 CURVE SMOOTH",
"153 395 OFFCURVE",
"133 393 OFFCURVE",
"120 393 CURVE"
);
}
);
width = 371;
},
{
layerId = "156B637B-193E-48A3-AAC8-7B4A3960F885";
paths = (
{
closed = 1;
nodes = (
"268 -23 OFFCURVE",
"281 -5 OFFCURVE",
"281 10 CURVE SMOOTH",
"281 14 OFFCURVE",
"279 20 OFFCURVE",
"276 25 CURVE",
"276 56 OFFCURVE",
"274 133 OFFCURVE",
"270 256 CURVE SMOOTH",
"266 378 OFFCURVE",
"263 488 OFFCURVE",
"262 584 CURVE",
"289 584 LINE",
"293 596 OFFCURVE",
"286 610 OFFCURVE",
"262 616 CURVE",
"262 675 LINE SMOOTH",
"262 700 OFFCURVE",
"261 714 OFFCURVE",
"257 731 CURVE SMOOTH",
"252 754 OFFCURVE",
"239 766 OFFCURVE",
"220 763 CURVE",
"218 756 OFFCURVE",
"217 748 OFFCURVE",
"217 742 CURVE SMOOTH",
"217 714 OFFCURVE",
"218 673 OFFCURVE",
"220 618 CURVE",
"165 617 OFFCURVE",
"130 617 OFFCURVE",
"113 616 CURVE",
"112 637 OFFCURVE",
"111 656 OFFCURVE",
"111 671 CURVE SMOOTH",
"111 696 OFFCURVE",
"113 722 OFFCURVE",
"116 748 CURVE",
"96 765 LINE",
"72 752 LINE",
"72 702 OFFCURVE",
"72 656 OFFCURVE",
"74 615 CURVE",
"48 614 OFFCURVE",
"42 613 OFFCURVE",
"42 606 CURVE SMOOTH",
"42 593 OFFCURVE",
"55 582 OFFCURVE",
"80 582 CURVE",
"74 582 LINE",
"78 488 OFFCURVE",
"83 391 OFFCURVE",
"90 292 CURVE SMOOTH",
"91 279 OFFCURVE",
"92 251 OFFCURVE",
"92 207 CURVE SMOOTH",
"93 163 OFFCURVE",
"93 122 OFFCURVE",
"95 83 CURVE SMOOTH",
"96 42 OFFCURVE",
"98 20 OFFCURVE",
"102 11 CURVE",
"102 11 LINE",
"104 0 OFFCURVE",
"111 -4 OFFCURVE",
"124 -4 CURVE SMOOTH",
"135 -4 OFFCURVE",
"142 4 OFFCURVE",
"142 18 CURVE SMOOTH",
"142 55 OFFCURVE",
"139 111 OFFCURVE",
"133 191 CURVE SMOOTH",
"127 265 OFFCURVE",
"125 321 OFFCURVE",
"125 359 CURVE",
"138 366 OFFCURVE",
"159 369 OFFCURVE",
"188 369 CURVE SMOOTH",
"191 369 OFFCURVE",
"196 368 OFFCURVE",
"206 366 CURVE SMOOTH",
"216 365 OFFCURVE",
"222 364 OFFCURVE",
"226 364 CURVE SMOOTH",
"228 364 OFFCURVE",
"230 364 OFFCURVE",
"232 365 CURVE SMOOTH",
"232 365 OFFCURVE",
"232 365 OFFCURVE",
"232 365 CURVE",
"225 372 LINE",
"231 245 OFFCURVE",
"235 131 OFFCURVE",
"235 29 CURVE SMOOTH",
"235 26 OFFCURVE",
"235 23 OFFCURVE",
"234 18 CURVE SMOOTH",
"234 13 OFFCURVE",
"234 8 OFFCURVE",
"234 6 CURVE SMOOTH",
"234 -13 OFFCURVE",
"242 -23 OFFCURVE",
"255 -23 CURVE SMOOTH"
);
},
{
closed = 1;
nodes = (
"120 409 OFFCURVE",
"119 418 OFFCURVE",
"119 428 CURVE SMOOTH",
"119 433 OFFCURVE",
"119 439 OFFCURVE",
"119 447 CURVE SMOOTH",
"120 457 OFFCURVE",
"120 463 OFFCURVE",
"120 468 CURVE SMOOTH",
"120 488 OFFCURVE",
"118 527 OFFCURVE",
"115 582 CURVE",
"142 583 OFFCURVE",
"195 584 OFFCURVE",
"221 584 CURVE",
"224 498 OFFCURVE",
"226 438 OFFCURVE",
"226 405 CURVE",
"228 408 LINE",
"216 408 OFFCURVE",
"199 407 OFFCURVE",
"173 404 CURVE SMOOTH",
"151 402 OFFCURVE",
"134 401 OFFCURVE",
"121 400 CURVE"
);
}
);
width = 330;
}
);
note = Hbar;
unicode = 0126;
},
{
glyphname = I;
layers = (
{
anchors = (
{
name = bottom;
position = "{135, 0}";
},
{
name = ogonek;
position = "{243, 5}";
},
{
name = top;
position = "{135, 754}";
},
{
name = topleft;
position = "{10, 754}";
}
);
layerId = "27A8C2A5-6B67-4598-967C-E5EC4FB8AE70";
paths = (
{
closed = 1;
nodes = (
"166 4 OFFCURVE",
"184 4 OFFCURVE",
"197 4 CURVE SMOOTH",
"204 4 OFFCURVE",
"211 13 OFFCURVE",
"211 21 CURVE SMOOTH",
"211 30 OFFCURVE",
"204 35 OFFCURVE",
"188 35 CURVE SMOOTH",
"152 35 LINE",
"152 40 OFFCURVE",
"152 49 OFFCURVE",
"153 62 CURVE SMOOTH",
"153 75 OFFCURVE",
"153 84 OFFCURVE",
"153 90 CURVE SMOOTH",
"153 154 OFFCURVE",
"149 259 OFFCURVE",
"141 405 CURVE SMOOTH",
"133 551 OFFCURVE",
"128 656 OFFCURVE",
"128 720 CURVE SMOOTH",
"128 721 OFFCURVE",
"129 723 OFFCURVE",
"130 724 CURVE SMOOTH",
"131 725 OFFCURVE",
"137 726 OFFCURVE",
"142 726 CURVE SMOOTH",
"144 726 OFFCURVE",
"147 726 OFFCURVE",
"152 726 CURVE SMOOTH",
"155 726 OFFCURVE",
"158 726 OFFCURVE",
"164 726 CURVE SMOOTH",
"169 725 OFFCURVE",
"173 725 OFFCURVE",
"176 725 CURVE SMOOTH",
"184 725 OFFCURVE",
"188 733 OFFCURVE",
"188 741 CURVE SMOOTH",
"188 750 OFFCURVE",
"180 755 OFFCURVE",
"170 755 CURVE SMOOTH",
"160 755 OFFCURVE",
"147 755 OFFCURVE",
"132 756 CURVE SMOOTH",
"118 756 OFFCURVE",
"108 756 OFFCURVE",
"104 756 CURVE SMOOTH",
"85 756 OFFCURVE",
"72 755 OFFCURVE",
"67 753 CURVE",
"62 750 OFFCURVE",
"59 746 OFFCURVE",
"59 739 CURVE SMOOTH",
"59 729 OFFCURVE",
"62 725 OFFCURVE",
"69 725 CURVE SMOOTH",
"104 725 LINE",
"105 718 OFFCURVE",
"106 697 OFFCURVE",
"106 661 CURVE SMOOTH",
"106 645 OFFCURVE",
"106 623 OFFCURVE",
"106 595 CURVE SMOOTH",
"105 566 OFFCURVE",
"105 549 OFFCURVE",
"105 544 CURVE",
"106 521 OFFCURVE",
"109 448 OFFCURVE",
"113 324 CURVE SMOOTH",
"118 199 OFFCURVE",
"120 103 OFFCURVE",
"120 34 CURVE",
"81 34 LINE SMOOTH",
"70 34 OFFCURVE",
"64 30 OFFCURVE",
"64 21 CURVE SMOOTH",
"64 13 OFFCURVE",
"72 5 OFFCURVE",
"82 5 CURVE SMOOTH",
"99 5 OFFCURVE",
"119 5 OFFCURVE",
"143 4 CURVE SMOOTH"
);
}
);
width = 270;
},
{
anchors = (
{
name = bottom;
position = "{129, 0}";
},
{
name = ogonek;
position = "{192, 5}";
},
{
name = top;
position = "{95, 768}";
},
{
name = topleft;
position = "{10, 758}";
}
);
layerId = "156B637B-193E-48A3-AAC8-7B4A3960F885";
paths = (
{
closed = 1;
nodes = (
"135 1 OFFCURVE",
"148 2 OFFCURVE",
"165 3 CURVE SMOOTH",
"181 3 OFFCURVE",
"189 4 OFFCURVE",
"191 4 CURVE",
"216 21 LINE",
"216 27 LINE SMOOTH",
"216 50 OFFCURVE",
"202 62 OFFCURVE",
"174 62 CURVE SMOOTH",
"167 62 OFFCURVE",
"161 62 OFFCURVE",
"154 61 CURVE",
"154 99 LINE SMOOTH",
"154 164 OFFCURVE",
"150 262 OFFCURVE",
"142 392 CURVE SMOOTH",
"133 521 OFFCURVE",
"129 619 OFFCURVE",
"129 684 CURVE SMOOTH",
"129 700 OFFCURVE",
"135 705 OFFCURVE",
"148 705 CURVE SMOOTH",
"150 705 OFFCURVE",
"152 705 OFFCURVE",
"156 705 CURVE",
"160 704 OFFCURVE",
"164 704 OFFCURVE",
"166 704 CURVE SMOOTH",
"180 704 OFFCURVE",
"189 717 OFFCURVE",
"189 731 CURVE SMOOTH",
"189 746 OFFCURVE",
"176 758 OFFCURVE",
"160 758 CURVE SMOOTH",
"143 758 OFFCURVE",
"119 756 OFFCURVE",
"89 751 CURVE SMOOTH",
"60 746 OFFCURVE",
"37 733 OFFCURVE",
"37 717 CURVE SMOOTH",
"37 701 OFFCURVE",
"44 693 OFFCURVE",
"60 693 CURVE SMOOTH",
"67 693 OFFCURVE",
"75 694 OFFCURVE",
"83 697 CURVE",
"85 682 OFFCURVE",
"86 663 OFFCURVE",
"86 642 CURVE SMOOTH",
"86 630 OFFCURVE",
"85 613 OFFCURVE",
"85 591 CURVE SMOOTH",
"84 568 OFFCURVE",
"84 551 OFFCURVE",
"84 540 CURVE SMOOTH",
"84 488 OFFCURVE",
"87 411 OFFCURVE",
"93 309 CURVE SMOOTH",
"100 206 OFFCURVE",
"103 128 OFFCURVE",
"103 77 CURVE SMOOTH",
"103 59 OFFCURVE",
"98 54 OFFCURVE",
"88 54 CURVE SMOOTH",
"86 54 OFFCURVE",
"83 54 OFFCURVE",
"79 55 CURVE SMOOTH",
"74 55 OFFCURVE",
"70 55 OFFCURVE",
"67 55 CURVE SMOOTH",
"47 55 OFFCURVE",
"37 47 OFFCURVE",
"37 31 CURVE SMOOTH",
"37 11 OFFCURVE",
"65 1 OFFCURVE",
"123 1 CURVE SMOOTH"
);
}
);
width = 257;
}
);
note = I;
unicode = 0049;
},
{
glyphname = J;
layers = (
{
anchors = (
{
name = bottom;
position = "{116, 0}";
},
{
name = top;
position = "{116, 754}";
}
);
layerId = "27A8C2A5-6B67-4598-967C-E5EC4FB8AE70";
paths = (
{
closed = 1;
nodes = (
"72 -86 OFFCURVE",
"86 -73 OFFCURVE",
"97 -59 CURVE SMOOTH",
"120 -32 OFFCURVE",
"131 -8 OFFCURVE",
"138 31 CURVE SMOOTH",
"145 70 OFFCURVE",
"146 97 OFFCURVE",
"146 149 CURVE SMOOTH",
"146 162 OFFCURVE",
"142 242 OFFCURVE",
"135 390 CURVE SMOOTH",
"127 537 OFFCURVE",
"124 649 OFFCURVE",
"124 727 CURVE",
"146 727 LINE SMOOTH",
"167 727 OFFCURVE",
"173 729 OFFCURVE",
"173 742 CURVE SMOOTH",
"173 750 OFFCURVE",
"167 758 OFFCURVE",
"157 758 CURVE SMOOTH",
"142 758 OFFCURVE",
"124 758 OFFCURVE",
"104 758 CURVE SMOOTH",
"84 759 OFFCURVE",
"71 759 OFFCURVE",
"66 759 CURVE SMOOTH",
"47 759 OFFCURVE",
"34 758 OFFCURVE",
"28 755 CURVE SMOOTH",
"22 753 OFFCURVE",
"20 748 OFFCURVE",
"20 740 CURVE SMOOTH",
"20 732 OFFCURVE",
"25 725 OFFCURVE",
"33 725 CURVE SMOOTH",
"39 725 OFFCURVE",
"49 726 OFFCURVE",
"63 726 CURVE SMOOTH",
"77 727 OFFCURVE",
"87 727 OFFCURVE",
"93 727 CURVE",
"93 685 OFFCURVE",
"95 625 OFFCURVE",
"98 546 CURVE SMOOTH",
"101 468 OFFCURVE",
"103 416 OFFCURVE",
"104 391 CURVE SMOOTH",
"104 365 OFFCURVE",
"106 320 OFFCURVE",
"109 256 CURVE SMOOTH",
"113 192 OFFCURVE",
"114 143 OFFCURVE",
"114 108 CURVE SMOOTH",
"114 35 OFFCURVE",
"100 -16 OFFCURVE",
"70 -45 CURVE SMOOTH",
"68 -47 OFFCURVE",
"64 -50 OFFCURVE",
"58 -54 CURVE SMOOTH",
"45 -62 OFFCURVE",
"35 -70 OFFCURVE",
"34 -78 CURVE",
"34 -91 OFFCURVE",
"41 -97 OFFCURVE",
"55 -97 CURVE"
);
}
);
width = 232;
},
{
anchors = (
{
name = bottom;
position = "{134, 0}";
},
{
name = top;
position = "{104, 758}";
}
);
layerId = "156B637B-193E-48A3-AAC8-7B4A3960F885";
paths = (
{
closed = 1;
nodes = (
"134 -73 OFFCURVE",
"168 -4 OFFCURVE",
"168 74 CURVE SMOOTH",
"168 83 OFFCURVE",
"168 96 OFFCURVE",
"168 114 CURVE SMOOTH",
"168 132 OFFCURVE",
"168 145 OFFCURVE",
"168 154 CURVE SMOOTH",
"168 197 OFFCURVE",
"166 262 OFFCURVE",
"160 349 CURVE SMOOTH",
"153 435 OFFCURVE",
"150 500 OFFCURVE",
"150 543 CURVE SMOOTH",
"150 560 OFFCURVE",
"148 586 OFFCURVE",
"145 621 CURVE SMOOTH",
"141 655 OFFCURVE",
"139 681 OFFCURVE",
"139 698 CURVE SMOOTH",
"139 706 LINE",
"152 706 LINE SMOOTH",
"153 706 OFFCURVE",
"153 706 OFFCURVE",
"154 706 CURVE",
"154 705 OFFCURVE",
"155 705 OFFCURVE",
"155 705 CURVE SMOOTH",
"183 705 OFFCURVE",
"197 714 OFFCURVE",
"197 731 CURVE SMOOTH",
"197 739 OFFCURVE",
"194 745 OFFCURVE",
"189 749 CURVE",
"179 757 OFFCURVE",
"169 758 OFFCURVE",
"152 758 CURVE SMOOTH",
"139 758 LINE SMOOTH",
"60 758 OFFCURVE",
"20 747 OFFCURVE",
"20 723 CURVE SMOOTH",
"20 709 OFFCURVE",
"31 698 OFFCURVE",
"45 698 CURVE SMOOTH",
"54 698 OFFCURVE",
"62 699 OFFCURVE",
"75 703 CURVE SMOOTH",
"82 704 OFFCURVE",
"86 705 OFFCURVE",
"88 706 CURVE",
"100 584 OFFCURVE",
"106 468 OFFCURVE",
"110 357 CURVE SMOOTH",
"113 302 OFFCURVE",
"114 269 OFFCURVE",
"115 256 CURVE SMOOTH",
"115 238 OFFCURVE",
"116 225 OFFCURVE",
"116 215 CURVE SMOOTH",
"116 204 OFFCURVE",
"116 188 OFFCURVE",
"115 167 CURVE SMOOTH",
"115 145 OFFCURVE",
"114 128 OFFCURVE",
"114 118 CURVE SMOOTH",
"114 57 OFFCURVE",
"92 0 OFFCURVE",
"74 -23 CURVE",
"55 -31 OFFCURVE",
"35 -48 OFFCURVE",
"35 -64 CURVE SMOOTH",
"35 -84 OFFCURVE",
"50 -95 OFFCURVE",
"71 -95 CURVE"
);
}
);
width = 268;
}
);
note = J;
unicode = 004A;
},
{
glyphname = K;
layers = (
{
anchors = (
{
name = bottom;
position = "{158, 0}";
},
{
name = top;
position = "{158, 754}";
}
);
layerId = "27A8C2A5-6B67-4598-967C-E5EC4FB8AE70";
paths = (
{
closed = 1;
nodes = (
"299 -16 OFFCURVE",
"308 -10 OFFCURVE",
"308 -1 CURVE SMOOTH",
"308 1 OFFCURVE",
"307 3 OFFCURVE",
"306 6 CURVE",
"304 14 OFFCURVE",
"266 151 OFFCURVE",
"247 217 CURVE SMOOTH",
"228 283 OFFCURVE",
"190 400 OFFCURVE",
"161 473 CURVE",
"159 477 OFFCURVE",
"159 480 OFFCURVE",
"160 485 CURVE",
"163 490 OFFCURVE",
"177 524 OFFCURVE",
"203 587 CURVE SMOOTH",
"229 651 OFFCURVE",
"246 691 OFFCURVE",
"253 707 CURVE SMOOTH",
"255 711 OFFCURVE",
"259 717 OFFCURVE",
"263 725 CURVE SMOOTH",
"272 739 OFFCURVE",
"277 751 OFFCURVE",
"279 765 CURVE",
"279 774 OFFCURVE",
"271 780 OFFCURVE",
"262 780 CURVE SMOOTH",
"251 780 OFFCURVE",
"228 733 OFFCURVE",
"191 641 CURVE SMOOTH",
"188 634 OFFCURVE",
"176 603 OFFCURVE",
"154 548 CURVE SMOOTH",
"131 492 OFFCURVE",
"113 450 OFFCURVE",
"100 422 CURVE",
"99 422 LINE",
"99 424 OFFCURVE",
"100 465 OFFCURVE",
"101 543 CURVE SMOOTH",
"102 621 OFFCURVE",
"103 676 OFFCURVE",
"103 709 CURVE SMOOTH",
"103 728 OFFCURVE",
"102 740 OFFCURVE",
"99 745 CURVE SMOOTH",
"97 750 OFFCURVE",
"91 752 OFFCURVE",
"81 752 CURVE SMOOTH",
"76 752 OFFCURVE",
"72 748 OFFCURVE",
"70 740 CURVE SMOOTH",
"69 732 OFFCURVE",
"68 720 OFFCURVE",
"68 705 CURVE SMOOTH",
"68 665 OFFCURVE",
"67 601 OFFCURVE",
"66 513 CURVE SMOOTH",
"64 424 OFFCURVE",
"63 360 OFFCURVE",
"63 321 CURVE SMOOTH",
"63 19 LINE SMOOTH",
"63 -5 OFFCURVE",
"66 -13 OFFCURVE",
"80 -13 CURVE SMOOTH",
"94 -13 OFFCURVE",
"96 -4 OFFCURVE",
"96 17 CURVE SMOOTH",
"96 373 LINE",
"98 376 OFFCURVE",
"103 384 OFFCURVE",
"110 396 CURVE SMOOTH",
"118 408 OFFCURVE",
"124 419 OFFCURVE",
"130 430 CURVE SMOOTH",
"137 440 OFFCURVE",
"140 446 OFFCURVE",
"142 449 CURVE",
"148 432 LINE",
"158 404 OFFCURVE",
"182 325 OFFCURVE",
"219 197 CURVE SMOOTH",
"256 68 OFFCURVE",
"276 0 OFFCURVE",
"278 -9 CURVE",
"280 -14 OFFCURVE",
"284 -16 OFFCURVE",
"290 -16 CURVE SMOOTH"
);
}
);
width = 315;
},
{
anchors = (
{
name = bottom;
position = "{178, 0}";
},
{
name = top;
position = "{178, 758}";
}
);
layerId = "156B637B-193E-48A3-AAC8-7B4A3960F885";
paths = (
{
closed = 1;
nodes = (
"312 -23 OFFCURVE",
"327 -11 OFFCURVE",
"327 5 CURVE SMOOTH",
"327 22 OFFCURVE",
"202 417 OFFCURVE",
"182 466 CURVE",
"182 484 LINE",
"187 504 OFFCURVE",
"207 553 OFFCURVE",
"244 629 CURVE SMOOTH",
"280 705 OFFCURVE",
"298 747 OFFCURVE",
"298 753 CURVE SMOOTH",
"298 768 OFFCURVE",
"285 779 OFFCURVE",
"270 779 CURVE SMOOTH",
"263 779 OFFCURVE",
"254 770 OFFCURVE",
"243 752 CURVE SMOOTH",
"232 734 OFFCURVE",
"220 710 OFFCURVE",
"207 681 CURVE SMOOTH",
"182 623 OFFCURVE",
"160 569 OFFCURVE",
"139 515 CURVE SMOOTH",
"128 488 OFFCURVE",
"122 471 OFFCURVE",
"120 466 CURVE",
"123 603 OFFCURVE",
"124 671 OFFCURVE",
"124 671 CURVE SMOOTH",
"124 726 OFFCURVE",
"112 752 OFFCURVE",
"87 752 CURVE SMOOTH",
"71 752 OFFCURVE",
"59 738 OFFCURVE",
"59 721 CURVE SMOOTH",
"59 702 OFFCURVE",
"61 671 OFFCURVE",
"66 627 CURVE SMOOTH",
"71 584 OFFCURVE",
"73 545 OFFCURVE",
"73 512 CURVE SMOOTH",
"73 487 OFFCURVE",
"73 452 OFFCURVE",
"73 408 CURVE SMOOTH",
"72 364 OFFCURVE",
"72 335 OFFCURVE",
"72 322 CURVE SMOOTH",
"72 292 OFFCURVE",
"70 248 OFFCURVE",
"65 188 CURVE SMOOTH",
"61 127 OFFCURVE",
"59 83 OFFCURVE",
"59 53 CURVE SMOOTH",
"59 15 OFFCURVE",
"68 -3 OFFCURVE",
"88 -3 CURVE SMOOTH",
"111 -3 OFFCURVE",
"122 14 OFFCURVE",
"122 50 CURVE SMOOTH",
"122 132 LINE SMOOTH",
"122 153 OFFCURVE",
"121 184 OFFCURVE",
"119 225 CURVE SMOOTH",
"117 266 OFFCURVE",
"116 296 OFFCURVE",
"116 317 CURVE SMOOTH",
"116 337 OFFCURVE",
"118 351 OFFCURVE",
"119 361 CURVE SMOOTH",
"120 370 OFFCURVE",
"126 385 OFFCURVE",
"129 391 CURVE SMOOTH",
"132 396 OFFCURVE",
"144 419 OFFCURVE",
"150 430 CURVE",
"208 302 OFFCURVE",
"239 170 OFFCURVE",
"272 -20 CURVE",
"274 -20 OFFCURVE",
"278 -20 OFFCURVE",
"283 -21 CURVE SMOOTH",
"289 -23 OFFCURVE",
"292 -23 OFFCURVE",
"295 -23 CURVE SMOOTH"
);
}
);
width = 356;
}
);
note = K;
unicode = 004B;
},
{
glyphname = L;
layers = (
{
anchors = (
{
name = bottom;
position = "{124, 0}";
},
{
name = center;
position = "{124, 377}";
},
{
name = top;
position = "{84, 754}";
},
{
name = topright;
position = "{237, 754}";
}
);
layerId = "27A8C2A5-6B67-4598-967C-E5EC4FB8AE70";
paths = (
{
closed = 1;
nodes = (
"137 -6 OFFCURVE",
"164 -6 OFFCURVE",
"185 -5 CURVE SMOOTH",
"187 -5 OFFCURVE",
"190 -5 OFFCURVE",
"193 -5 CURVE SMOOTH",
"197 -4 OFFCURVE",
"199 -4 OFFCURVE",
"200 -4 CURVE SMOOTH",
"208 -4 OFFCURVE",
"212 5 OFFCURVE",
"212 15 CURVE SMOOTH",
"212 27 OFFCURVE",
"208 33 OFFCURVE",
"199 33 CURVE SMOOTH",
"137 33 LINE SMOOTH",
"130 33 OFFCURVE",
"125 33 OFFCURVE",
"124 34 CURVE",
"122 34 OFFCURVE",
"121 35 OFFCURVE",
"121 37 CURVE SMOOTH",
"120 57 OFFCURVE",
"118 98 OFFCURVE",
"115 161 CURVE SMOOTH",
"111 224 OFFCURVE",
"109 270 OFFCURVE",
"109 298 CURVE SMOOTH",
"104 477 LINE SMOOTH",
"102 538 OFFCURVE",
"101 630 OFFCURVE",
"101 754 CURVE SMOOTH",
"101 764 OFFCURVE",
"95 769 OFFCURVE",
"83 769 CURVE SMOOTH",
"75 769 OFFCURVE",
"68 764 OFFCURVE",
"68 757 CURVE SMOOTH",
"68 710 OFFCURVE",
"70 641 OFFCURVE",
"74 548 CURVE SMOOTH",
"77 455 OFFCURVE",
"79 385 OFFCURVE",
"79 339 CURVE SMOOTH",
"79 307 OFFCURVE",
"80 260 OFFCURVE",
"83 197 CURVE SMOOTH",
"87 134 OFFCURVE",
"88 86 OFFCURVE",
"88 55 CURVE SMOOTH",
"88 48 OFFCURVE",
"88 40 OFFCURVE",
"88 31 CURVE",
"88 22 OFFCURVE",
"88 17 OFFCURVE",
"88 15 CURVE SMOOTH",
"88 3 OFFCURVE",
"95 -6 OFFCURVE",
"104 -6 CURVE SMOOTH"
);
}
);
width = 247;
},
{
anchors = (
{
name = bottom;
position = "{125, 0}";
},
{
name = center;
position = "{125, 379}";
},
{
name = top;
position = "{82, 758}";
},
{
name = topright;
position = "{241, 758}";
}
);
layerId = "156B637B-193E-48A3-AAC8-7B4A3960F885";
paths = (
{
closed = 1;
nodes = (
"118 -11 OFFCURVE",
"127 -7 OFFCURVE",
"134 1 CURVE",
"138 1 OFFCURVE",
"143 1 OFFCURVE",
"150 0 CURVE SMOOTH",
"158 0 OFFCURVE",
"163 0 OFFCURVE",
"167 0 CURVE SMOOTH",
"174 0 OFFCURVE",
"180 0 OFFCURVE",
"186 1 CURVE",
"187 1 OFFCURVE",
"188 0 OFFCURVE",
"190 0 CURVE",
"194 -1 OFFCURVE",
"198 -2 OFFCURVE",
"201 -2 CURVE SMOOTH",
"215 -2 OFFCURVE",
"226 11 OFFCURVE",
"226 26 CURVE SMOOTH",
"226 37 OFFCURVE",
"219 46 OFFCURVE",
"205 56 CURVE",
"128 56 LINE",
"128 82 LINE SMOOTH",
"128 197 OFFCURVE",
"127 284 OFFCURVE",
"125 342 CURVE",
"125 347 LINE",
"125 348 OFFCURVE",
"125 351 OFFCURVE",
"125 354 CURVE SMOOTH",
"125 357 OFFCURVE",
"125 361 OFFCURVE",
"125 366 CURVE SMOOTH",
"124 372 OFFCURVE",
"124 375 OFFCURVE",
"124 378 CURVE SMOOTH",
"124 418 OFFCURVE",
"122 478 OFFCURVE",
"119 558 CURVE SMOOTH",
"115 638 OFFCURVE",
"113 698 OFFCURVE",
"113 738 CURVE SMOOTH",
"113 754 OFFCURVE",
"99 767 OFFCURVE",
"83 767 CURVE SMOOTH",
"70 767 OFFCURVE",
"59 759 OFFCURVE",
"59 747 CURVE SMOOTH",
"59 671 OFFCURVE",
"62 557 OFFCURVE",
"69 406 CURVE SMOOTH",
"75 254 OFFCURVE",
"79 140 OFFCURVE",
"79 64 CURVE SMOOTH",
"79 60 OFFCURVE",
"78 52 OFFCURVE",
"76 43 CURVE",
"73 33 OFFCURVE",
"72 26 OFFCURVE",
"72 21 CURVE SMOOTH",
"72 3 OFFCURVE",
"89 -11 OFFCURVE",
"106 -11 CURVE SMOOTH"
);
}
);
width = 250;
}
);
note = L;
unicode = 004C;
},
{
glyphname = Lslash;
layers = (
{
layerId = "27A8C2A5-6B67-4598-967C-E5EC4FB8AE70";
paths = (
{
closed = 1;
nodes = (
"152 -6 OFFCURVE",
"179 -6 OFFCURVE",
"200 -5 CURVE SMOOTH",
"202 -5 OFFCURVE",
"205 -5 OFFCURVE",
"208 -5 CURVE SMOOTH",
"212 -4 OFFCURVE",
"214 -4 OFFCURVE",
"215 -4 CURVE SMOOTH",
"223 -4 OFFCURVE",
"228 5 OFFCURVE",
"228 15 CURVE SMOOTH",
"228 27 OFFCURVE",
"223 33 OFFCURVE",
"214 33 CURVE SMOOTH",
"152 33 LINE SMOOTH",
"145 33 OFFCURVE",
"140 33 OFFCURVE",
"139 34 CURVE",
"137 34 OFFCURVE",
"136 35 OFFCURVE",
"136 37 CURVE SMOOTH",
"135 57 OFFCURVE",
"133 98 OFFCURVE",
"130 161 CURVE SMOOTH",
"126 224 OFFCURVE",
"125 270 OFFCURVE",
"125 298 CURVE SMOOTH",
"120 477 LINE SMOOTH",
"117 538 OFFCURVE",
"116 630 OFFCURVE",
"116 754 CURVE SMOOTH",
"116 764 OFFCURVE",
"110 769 OFFCURVE",
"98 769 CURVE SMOOTH",
"90 769 OFFCURVE",
"83 764 OFFCURVE",
"83 757 CURVE SMOOTH",
"83 710 OFFCURVE",
"85 641 OFFCURVE",
"89 548 CURVE SMOOTH",
"92 455 OFFCURVE",
"94 385 OFFCURVE",
"94 339 CURVE SMOOTH",
"94 307 OFFCURVE",
"95 260 OFFCURVE",
"99 197 CURVE SMOOTH",
"102 134 OFFCURVE",
"104 86 OFFCURVE",
"104 55 CURVE SMOOTH",
"104 48 OFFCURVE",
"104 40 OFFCURVE",
"104 31 CURVE",
"103 22 OFFCURVE",
"103 17 OFFCURVE",
"103 15 CURVE SMOOTH",
"103 3 OFFCURVE",
"110 -6 OFFCURVE",
"120 -6 CURVE SMOOTH"
);
},
{
closed = 1;
nodes = (
"25 355 OFFCURVE",
"28 355 OFFCURVE",
"32 357 CURVE",
"155 413 OFFCURVE",
"217 446 OFFCURVE",
"217 457 CURVE SMOOTH",
"217 463 OFFCURVE",
"207 467 OFFCURVE",
"200 467 CURVE SMOOTH",
"196 467 OFFCURVE",
"193 466 OFFCURVE",
"190 465 CURVE SMOOTH",
"120 434 OFFCURVE",
"6 379 OFFCURVE",
"6 365 CURVE SMOOTH",
"6 359 OFFCURVE",
"16 355 OFFCURVE",
"22 355 CURVE SMOOTH"
);
}
);
width = 262;
},
{
layerId = "156B637B-193E-48A3-AAC8-7B4A3960F885";
paths = (
{
closed = 1;
nodes = (
"225 -2 OFFCURVE",
"236 11 OFFCURVE",
"236 26 CURVE SMOOTH",
"236 37 OFFCURVE",
"229 46 OFFCURVE",
"215 56 CURVE",
"139 56 LINE",
"139 82 LINE SMOOTH",
"139 197 OFFCURVE",
"137 284 OFFCURVE",
"135 342 CURVE",
"135 347 LINE",
"135 349 OFFCURVE",
"135 352 OFFCURVE",
"135 356 CURVE SMOOTH",
"135 360 OFFCURVE",
"135 365 OFFCURVE",
"135 373 CURVE SMOOTH",
"134 379 OFFCURVE",
"134 385 OFFCURVE",
"134 388 CURVE SMOOTH",
"134 389 LINE",
"203 399 OFFCURVE",
"238 416 OFFCURVE",
"238 438 CURVE SMOOTH",
"238 453 OFFCURVE",
"229 463 OFFCURVE",
"219 463 CURVE SMOOTH",
"195 463 OFFCURVE",
"167 456 OFFCURVE",
"133 441 CURVE",
"133 463 OFFCURVE",
"131 509 OFFCURVE",
"128 578 CURVE SMOOTH",
"125 647 OFFCURVE",
"124 701 OFFCURVE",
"124 738 CURVE SMOOTH",
"124 754 OFFCURVE",
"109 767 OFFCURVE",
"93 767 CURVE SMOOTH",
"80 767 OFFCURVE",
"69 759 OFFCURVE",
"69 747 CURVE SMOOTH",
"69 676 OFFCURVE",
"72 569 OFFCURVE",
"78 426 CURVE",
"41 418 OFFCURVE",
"22 407 OFFCURVE",
"22 392 CURVE SMOOTH",
"22 378 OFFCURVE",
"38 368 OFFCURVE",
"55 368 CURVE SMOOTH",
"62 368 OFFCURVE",
"70 371 OFFCURVE",
"80 375 CURVE",
"86 237 OFFCURVE",
"89 133 OFFCURVE",
"89 64 CURVE SMOOTH",
"89 60 OFFCURVE",
"88 52 OFFCURVE",
"86 43 CURVE",
"83 33 OFFCURVE",
"83 26 OFFCURVE",
"83 21 CURVE SMOOTH",
"83 11 OFFCURVE",
"97 2 OFFCURVE",
"111 2 CURVE SMOOTH",
"116 2 OFFCURVE",
"122 2 OFFCURVE",
"129 2 CURVE SMOOTH",
"137 1 OFFCURVE",
"142 1 OFFCURVE",
"145 1 CURVE SMOOTH",
"148 1 OFFCURVE",
"153 1 OFFCURVE",
"161 0 CURVE SMOOTH",
"168 0 OFFCURVE",
"173 0 OFFCURVE",
"177 0 CURVE SMOOTH",
"184 0 OFFCURVE",
"190 0 OFFCURVE",
"196 1 CURVE",
"197 1 OFFCURVE",
"198 0 OFFCURVE",
"201 0 CURVE",
"205 -1 OFFCURVE",
"208 -2 OFFCURVE",
"211 -2 CURVE SMOOTH"
);
}
);
width = 279;
}
);
note = Lslash;
unicode = 0141;
},
{
glyphname = M;
layers = (
{
background = {
paths = (
{
closed = 1;
nodes = (
"368 -19 OFFCURVE",
"384 7 OFFCURVE",
"384 33 CURVE SMOOTH",
"384 112 OFFCURVE",
"381 232 OFFCURVE",
"375 391 CURVE SMOOTH",
"370 550 OFFCURVE",
"366 670 OFFCURVE",
"366 750 CURVE SMOOTH",
"366 758 OFFCURVE",
"358 768 OFFCURVE",
"353 768 CURVE SMOOTH",
"339 768 OFFCURVE",
"329 759 OFFCURVE",
"327 746 CURVE",
"327 747 LINE",
"327 741 LINE",
"327 740 LINE",
"324 701 OFFCURVE",
"319 659 OFFCURVE",
"313 615 CURVE SMOOTH",
"300 523 OFFCURVE",
"290 483 OFFCURVE",
"265 372 CURVE SMOOTH",
"253 316 OFFCURVE",
"244 278 OFFCURVE",
"240 256 CURVE",
"221 256 LINE",
"219 263 OFFCURVE",
"214 285 OFFCURVE",
"206 333 CURVE SMOOTH",
"197 379 OFFCURVE",
"188 423 OFFCURVE",
"180 464 CURVE SMOOTH",
"162 548 OFFCURVE",
"138 654 OFFCURVE",
"115 711 CURVE SMOOTH",
"105 737 OFFCURVE",
"95 751 OFFCURVE",
"91 751 CURVE",
"96 752 LINE",
"68 737 LINE",
"73 743 LINE",
"72 700 OFFCURVE",
"72 657 OFFCURVE",
"72 614 CURVE SMOOTH",
"72 571 OFFCURVE",
"72 506 OFFCURVE",
"74 420 CURVE SMOOTH",
"75 334 OFFCURVE",
"75 270 OFFCURVE",
"75 227 CURVE SMOOTH",
"75 208 OFFCURVE",
"74 182 OFFCURVE",
"73 146 CURVE SMOOTH",
"71 110 OFFCURVE",
"70 83 OFFCURVE",
"70 64 CURVE SMOOTH",
"70 25 OFFCURVE",
"80 10 OFFCURVE",
"104 10 CURVE",
"98 8 LINE",
"105 17 OFFCURVE",
"110 28 OFFCURVE",
"110 41 CURVE SMOOTH",
"110 86 OFFCURVE",
"108 155 OFFCURVE",
"106 246 CURVE SMOOTH",
"104 337 OFFCURVE",
"102 406 OFFCURVE",
"102 452 CURVE SMOOTH",
"102 479 OFFCURVE",
"102 519 OFFCURVE",
"104 572 CURVE",
"123 574 LINE",
"127 554 OFFCURVE",
"136 520 OFFCURVE",
"152 462 CURVE SMOOTH",
"182 351 OFFCURVE",
"197 274 OFFCURVE",
"197 202 CURVE SMOOTH",
"197 146 OFFCURVE",
"207 116 OFFCURVE",
"223 116 CURVE SMOOTH",
"232 116 OFFCURVE",
"239 122 OFFCURVE",
"244 135 CURVE SMOOTH",
"250 149 OFFCURVE",
"252 159 OFFCURVE",
"254 178 CURVE",
"256 190 OFFCURVE",
"257 194 OFFCURVE",
"257 197 CURVE",
"257 196 LINE",
"257 202 LINE",
"257 203 LINE",
"262 237 OFFCURVE",
"272 287 OFFCURVE",
"289 352 CURVE SMOOTH",
"305 416 OFFCURVE",
"314 460 OFFCURVE",
"319 486 CURVE",
"338 485 LINE",
"338 434 LINE SMOOTH",
"338 388 OFFCURVE",
"339 317 OFFCURVE",
"340 224 CURVE SMOOTH",
"342 130 OFFCURVE",
"342 60 OFFCURVE",
"342 13 CURVE SMOOTH",
"342 -6 OFFCURVE",
"349 -19 OFFCURVE",
"354 -19 CURVE SMOOTH"
);
}
);
};
layerId = "27A8C2A5-6B67-4598-967C-E5EC4FB8AE70";
paths = (
{
closed = 1;
nodes = (
"375 -23 OFFCURVE",
"378 -21 OFFCURVE",
"381 -17 CURVE SMOOTH",
"383 -12 OFFCURVE",
"384 -3 OFFCURVE",
"384 12 CURVE SMOOTH",
"384 42 OFFCURVE",
"383 76 OFFCURVE",
"382 112 CURVE SMOOTH",
"380 149 OFFCURVE",
"379 176 OFFCURVE",
"379 195 CURVE SMOOTH",
"379 245 OFFCURVE",
"377 320 OFFCURVE",
"372 420 CURVE SMOOTH",
"366 521 OFFCURVE",
"363 597 OFFCURVE",
"363 647 CURVE SMOOTH",
"363 746 LINE SMOOTH",
"363 758 OFFCURVE",
"357 765 OFFCURVE",
"350 765 CURVE SMOOTH",
"342 765 OFFCURVE",
"335 757 OFFCURVE",
"333 744 CURVE",
"332 739 OFFCURVE",
"330 729 OFFCURVE",
"328 714 CURVE SMOOTH",
"325 699 OFFCURVE",
"321 680 OFFCURVE",
"317 658 CURVE SMOOTH",
"313 635 OFFCURVE",
"310 618 OFFCURVE",
"308 606 CURVE SMOOTH",
"281 461 OFFCURVE",
"266 380 OFFCURVE",
"262 361 CURVE SMOOTH",
"260 353 OFFCURVE",
"255 323 OFFCURVE",
"247 273 CURVE SMOOTH",
"238 223 OFFCURVE",
"232 193 OFFCURVE",
"231 184 CURVE",
"217 269 OFFCURVE",
"207 325 OFFCURVE",
"202 350 CURVE SMOOTH",
"177 463 OFFCURVE",
"114 717 OFFCURVE",
"103 754 CURVE",
"101 759 OFFCURVE",
"97 762 OFFCURVE",
"92 762 CURVE SMOOTH",
"85 762 OFFCURVE",
"78 756 OFFCURVE",
"78 749 CURVE SMOOTH",
"78 661 LINE SMOOTH",
"78 635 OFFCURVE",
"77 595 OFFCURVE",
"76 542 CURVE SMOOTH",
"75 490 OFFCURVE",
"75 450 OFFCURVE",
"75 424 CURVE SMOOTH",
"75 401 OFFCURVE",
"75 367 OFFCURVE",
"74 322 CURVE SMOOTH",
"74 277 OFFCURVE",
"73 243 OFFCURVE",
"73 221 CURVE SMOOTH",
"73 54 LINE SMOOTH",
"73 20 OFFCURVE",
"83 2 OFFCURVE",
"102 2 CURVE",
"107 7 OFFCURVE",
"109 16 OFFCURVE",
"109 28 CURVE SMOOTH",
"109 39 OFFCURVE",
"108 55 OFFCURVE",
"107 76 CURVE SMOOTH",
"105 97 OFFCURVE",
"104 112 OFFCURVE",
"104 123 CURVE SMOOTH",
"104 158 OFFCURVE",
"104 211 OFFCURVE",
"103 282 CURVE SMOOTH",
"102 353 OFFCURVE",
"102 405 OFFCURVE",
"102 441 CURVE SMOOTH",
"102 516 OFFCURVE",
"103 583 OFFCURVE",
"105 643 CURVE",
"113 632 OFFCURVE",
"197 201 OFFCURVE",
"205 147 CURVE SMOOTH",
"207 127 OFFCURVE",
"216 116 OFFCURVE",
"226 116 CURVE SMOOTH",
"236 116 OFFCURVE",
"246 127 OFFCURVE",
"249 145 CURVE",
"252 164 OFFCURVE",
"258 194 OFFCURVE",
"267 236 CURVE SMOOTH",
"280 302 OFFCURVE",
"319 510 OFFCURVE",
"336 619 CURVE SMOOTH",
"337 623 OFFCURVE",
"338 625 OFFCURVE",
"338 626 CURVE",
"339 619 OFFCURVE",
"339 605 OFFCURVE",
"341 585 CURVE SMOOTH",
"342 564 OFFCURVE",
"342 548 OFFCURVE",
"342 537 CURVE SMOOTH",
"342 525 OFFCURVE",
"342 506 OFFCURVE",
"341 481 CURVE SMOOTH",
"341 456 OFFCURVE",
"340 437 OFFCURVE",
"340 425 CURVE SMOOTH",
"340 388 OFFCURVE",
"342 333 OFFCURVE",
"344 261 CURVE SMOOTH",
"347 188 OFFCURVE",
"348 133 OFFCURVE",
"348 96 CURVE SMOOTH",
"348 5 LINE SMOOTH",
"348 -13 OFFCURVE",
"351 -23 OFFCURVE",
"370 -23 CURVE SMOOTH"
);
}
);
width = 458;
},
{
anchors = (
{
name = bottom;
position = "{227, 0}";
},
{
name = top;
position = "{227, 758}";
}
);
background = {
paths = (
{
closed = 1;
nodes = (
"374 -36 OFFCURVE",
"382 -31 OFFCURVE",
"387 -23 CURVE",
"391 -17 OFFCURVE",
"392 -6 OFFCURVE",
"392 12 CURVE SMOOTH",
"392 42 OFFCURVE",
"392 76 OFFCURVE",
"390 113 CURVE SMOOTH",
"389 131 OFFCURVE",
"388 147 OFFCURVE",
"388 161 CURVE SMOOTH",
"387 174 OFFCURVE",
"387 186 OFFCURVE",
"387 195 CURVE SMOOTH",
"387 248 OFFCURVE",
"384 325 OFFCURVE",
"379 421 CURVE SMOOTH",
"374 521 OFFCURVE",
"371 597 OFFCURVE",
"371 647 CURVE SMOOTH",
"371 746 LINE SMOOTH",
"371 764 OFFCURVE",
"360 778 OFFCURVE",
"344 778 CURVE SMOOTH",
"329 778 OFFCURVE",
"317 765 OFFCURVE",
"314 746 CURVE",
"314 745 LINE",
"313 741 OFFCURVE",
"312 731 OFFCURVE",
"309 716 CURVE",
"309 716 LINE",
"306 700 OFFCURVE",
"303 681 OFFCURVE",
"299 660 CURVE SMOOTH",
"294 637 OFFCURVE",
"292 620 OFFCURVE",
"290 609 CURVE",
"289 608 LINE",
"262 464 OFFCURVE",
"247 382 OFFCURVE",
"244 363 CURVE",
"243 363 LINE",
"242 355 OFFCURVE",
"236 326 OFFCURVE",
"228 275 CURVE SMOOTH",
"220 225 OFFCURVE",
"214 195 OFFCURVE",
"212 186 CURVE",
"239 186 LINE",
"224 273 OFFCURVE",
"214 328 OFFCURVE",
"209 353 CURVE SMOOTH",
"185 466 OFFCURVE",
"122 720 OFFCURVE",
"110 758 CURVE",
"109 758 LINE",
"105 769 OFFCURVE",
"97 775 OFFCURVE",
"87 775 CURVE SMOOTH",
"72 775 OFFCURVE",
"59 763 OFFCURVE",
"59 749 CURVE SMOOTH",
"59 661 LINE SMOOTH",
"59 635 OFFCURVE",
"59 595 OFFCURVE",
"58 542 CURVE SMOOTH",
"57 490 OFFCURVE",
"56 450 OFFCURVE",
"56 424 CURVE SMOOTH",
"56 401 OFFCURVE",
"56 367 OFFCURVE",
"56 322 CURVE SMOOTH",
"55 277 OFFCURVE",
"55 243 OFFCURVE",
"55 221 CURVE SMOOTH",
"55 54 LINE SMOOTH",
"55 12 OFFCURVE",
"69 -11 OFFCURVE",
"96 -11 CURVE",
"105 -7 LINE",
"113 0 OFFCURVE",
"117 12 OFFCURVE",
"117 28 CURVE SMOOTH",
"117 38 OFFCURVE",
"117 52 OFFCURVE",
"115 77 CURVE SMOOTH",
"113 98 OFFCURVE",
"112 113 OFFCURVE",
"112 123 CURVE SMOOTH",
"112 158 OFFCURVE",
"112 211 OFFCURVE",
"111 282 CURVE SMOOTH",
"110 353 OFFCURVE",
"109 405 OFFCURVE",
"109 441 CURVE SMOOTH",
"109 511 OFFCURVE",
"111 579 OFFCURVE",
"113 643 CURVE",
"89 636 LINE",
"94 629 OFFCURVE",
"178 208 OFFCURVE",
"186 146 CURVE SMOOTH",
"189 120 OFFCURVE",
"202 103 OFFCURVE",
"220 103 CURVE SMOOTH",
"238 103 OFFCURVE",
"253 120 OFFCURVE",
"256 143 CURVE",
"256 142 LINE",
"260 161 OFFCURVE",
"265 192 OFFCURVE",
"274 233 CURVE SMOOTH",
"288 299 OFFCURVE",
"327 507 OFFCURVE",
"344 617 CURVE",
"344 618 LINE",
"345 622 OFFCURVE",
"345 620 OFFCURVE",
"342 617 CURVE",
"320 625 LINE",
"320 619 OFFCURVE",
"321 605 OFFCURVE",
"322 584 CURVE",
"322 584 LINE",
"323 564 OFFCURVE",
"324 548 OFFCURVE",
"324 537 CURVE SMOOTH",
"324 525 OFFCURVE",
"323 506 OFFCURVE",
"323 481 CURVE SMOOTH",
"322 457 OFFCURVE",
"322 437 OFFCURVE",
"322 425 CURVE SMOOTH",
"322 388 OFFCURVE",
"323 333 OFFCURVE",
"326 260 CURVE SMOOTH",
"327 222 OFFCURVE",
"328 189 OFFCURVE",
"329 161 CURVE SMOOTH",
"330 135 OFFCURVE",
"329 114 OFFCURVE",
"329 96 CURVE SMOOTH",
"329 5 LINE SMOOTH",
"329 -23 OFFCURVE",
"340 -36 OFFCURVE",
"364 -36 CURVE SMOOTH"
);
}
);
};
layerId = "156B637B-193E-48A3-AAC8-7B4A3960F885";
paths = (
{
closed = 1;
nodes = (
"367 -26 OFFCURVE",
"387 1 OFFCURVE",
"387 33 CURVE SMOOTH",
"387 68 OFFCURVE",
"387 111 OFFCURVE",
"385 162 CURVE SMOOTH",
"384 226 OFFCURVE",
"382 302 OFFCURVE",
"378 391 CURVE SMOOTH",
"372 550 OFFCURVE",
"369 670 OFFCURVE",
"369 750 CURVE SMOOTH",
"369 762 OFFCURVE",
"358 775 OFFCURVE",
"346 775 CURVE SMOOTH",
"328 775 OFFCURVE",
"313 764 OFFCURVE",
"310 747 CURVE",
"310 741 LINE",
"308 703 OFFCURVE",
"303 662 OFFCURVE",
"296 616 CURVE SMOOTH",
"282 524 OFFCURVE",
"273 484 OFFCURVE",
"249 373 CURVE SMOOTH",
"236 318 OFFCURVE",
"228 279 OFFCURVE",
"223 258 CURVE",
"222 264 OFFCURVE",
"217 290 OFFCURVE",
"208 335 CURVE SMOOTH",
"200 380 OFFCURVE",
"191 424 OFFCURVE",
"183 466 CURVE SMOOTH",
"165 549 OFFCURVE",
"141 656 OFFCURVE",
"118 714 CURVE SMOOTH",
"105 743 OFFCURVE",
"95 758 OFFCURVE",
"84 759 CURVE",
"57 743 LINE",
"56 700 OFFCURVE",
"55 657 OFFCURVE",
"55 614 CURVE SMOOTH",
"55 571 OFFCURVE",
"56 506 OFFCURVE",
"57 420 CURVE SMOOTH",
"58 334 OFFCURVE",
"59 270 OFFCURVE",
"59 227 CURVE SMOOTH",
"59 208 OFFCURVE",
"58 182 OFFCURVE",
"56 146 CURVE SMOOTH",
"55 110 OFFCURVE",
"54 83 OFFCURVE",
"54 64 CURVE SMOOTH",
"54 27 OFFCURVE",
"63 3 OFFCURVE",
"98 3 CURVE",
"108 14 OFFCURVE",
"113 26 OFFCURVE",
"113 41 CURVE SMOOTH",
"113 86 OFFCURVE",
"111 155 OFFCURVE",
"109 246 CURVE SMOOTH",
"106 337 OFFCURVE",
"104 406 OFFCURVE",
"104 452 CURVE SMOOTH",
"104 479 OFFCURVE",
"105 519 OFFCURVE",
"106 572 CURVE",
"111 552 OFFCURVE",
"121 515 OFFCURVE",
"136 460 CURVE SMOOTH",
"165 350 OFFCURVE",
"180 274 OFFCURVE",
"180 202 CURVE SMOOTH",
"180 140 OFFCURVE",
"192 108 OFFCURVE",
"216 108 CURVE SMOOTH",
"230 108 OFFCURVE",
"241 117 OFFCURVE",
"247 132 CURVE SMOOTH",
"252 147 OFFCURVE",
"255 158 OFFCURVE",
"257 177 CURVE SMOOTH",
"259 187 OFFCURVE",
"260 193 OFFCURVE",
"260 196 CURVE",
"260 202 LINE",
"265 236 OFFCURVE",
"275 286 OFFCURVE",
"291 350 CURVE SMOOTH",
"307 414 OFFCURVE",
"317 459 OFFCURVE",
"322 485 CURVE",
"322 434 LINE SMOOTH",
"322 388 OFFCURVE",
"322 317 OFFCURVE",
"324 224 CURVE SMOOTH",
"324 201 OFFCURVE",
"324 180 OFFCURVE",
"325 161 CURVE SMOOTH",
"325 98 OFFCURVE",
"326 48 OFFCURVE",
"326 13 CURVE SMOOTH",
"326 -13 OFFCURVE",
"335 -26 OFFCURVE",
"348 -26 CURVE SMOOTH"
);
}
);
width = 453;
}
);
note = M;
unicode = 004D;
},
{
glyphname = N;
layers = (
{
anchors = (
{
name = bottom;
position = "{190, 0}";
},
{
name = top;
position = "{190, 754}";
}
);
layerId = "27A8C2A5-6B67-4598-967C-E5EC4FB8AE70";
paths = (
{
closed = 1;
nodes = (
"290 -11 OFFCURVE",
"298 -1 OFFCURVE",
"298 18 CURVE SMOOTH",
"298 35 OFFCURVE",
"299 62 OFFCURVE",
"300 97 CURVE SMOOTH",
"302 133 OFFCURVE",
"303 159 OFFCURVE",
"303 176 CURVE SMOOTH",
"303 229 OFFCURVE",
"303 307 OFFCURVE",
"304 412 CURVE SMOOTH",
"305 516 OFFCURVE",
"305 595 OFFCURVE",
"305 649 CURVE SMOOTH",
"305 713 LINE SMOOTH",
"305 715 OFFCURVE",
"306 720 OFFCURVE",
"306 729 CURVE SMOOTH",
"307 737 OFFCURVE",
"307 744 OFFCURVE",
"307 750 CURVE SMOOTH",
"307 769 OFFCURVE",
"304 779 OFFCURVE",
"299 779 CURVE SMOOTH",
"288 779 OFFCURVE",
"281 774 OFFCURVE",
"278 765 CURVE",
"279 624 LINE",
"279 607 OFFCURVE",
"279 581 OFFCURVE",
"279 547 CURVE SMOOTH",
"278 512 OFFCURVE",
"278 486 OFFCURVE",
"278 469 CURVE SMOOTH",
"278 431 OFFCURVE",
"277 373 OFFCURVE",
"276 295 CURVE SMOOTH",
"274 218 OFFCURVE",
"274 160 OFFCURVE",
"274 121 CURVE SMOOTH",
"274 99 OFFCURVE",
"272 83 OFFCURVE",
"268 73 CURVE",
"252 119 OFFCURVE",
"235 182 OFFCURVE",
"216 263 CURVE SMOOTH",
"168 440 OFFCURVE",
"145 531 OFFCURVE",
"144 535 CURVE SMOOTH",
"138 558 OFFCURVE",
"130 593 OFFCURVE",
"120 641 CURVE SMOOTH",
"110 689 OFFCURVE",
"103 722 OFFCURVE",
"99 739 CURVE SMOOTH",
"96 748 OFFCURVE",
"84 758 OFFCURVE",
"76 758 CURVE SMOOTH",
"58 758 OFFCURVE",
"49 754 OFFCURVE",
"49 737 CURVE SMOOTH",
"49 734 OFFCURVE",
"49 731 OFFCURVE",
"49 727 CURVE SMOOTH",
"50 722 OFFCURVE",
"50 718 OFFCURVE",
"50 716 CURVE SMOOTH",
"50 695 OFFCURVE",
"50 664 OFFCURVE",
"51 622 CURVE SMOOTH",
"51 580 OFFCURVE",
"51 548 OFFCURVE",
"51 527 CURVE SMOOTH",
"51 396 LINE SMOOTH",
"51 357 OFFCURVE",
"52 299 OFFCURVE",
"53 222 CURVE SMOOTH",
"53 145 OFFCURVE",
"54 86 OFFCURVE",
"54 48 CURVE SMOOTH",
"54 26 OFFCURVE",
"53 13 OFFCURVE",
"52 8 CURVE",
"55 0 LINE",
"78 0 LINE",
"84 8 LINE",
"84 40 OFFCURVE",
"83 87 OFFCURVE",
"82 150 CURVE SMOOTH",
"81 213 OFFCURVE",
"80 261 OFFCURVE",
"80 293 CURVE SMOOTH",
"80 655 LINE SMOOTH",
"80 676 OFFCURVE",
"80 690 OFFCURVE",
"81 696 CURVE",
"104 580 OFFCURVE",
"118 513 OFFCURVE",
"122 496 CURVE SMOOTH",
"130 459 OFFCURVE",
"171 310 OFFCURVE",
"245 46 CURVE",
"245 43 OFFCURVE",
"246 39 OFFCURVE",
"248 31 CURVE SMOOTH",
"249 23 OFFCURVE",
"250 17 OFFCURVE",
"251 12 CURVE",
"254 1 OFFCURVE",
"262 -11 OFFCURVE",
"272 -11 CURVE SMOOTH"
);
}
);
width = 380;
},
{
anchors = (
{
name = bottom;
position = "{206, 0}";
},
{
name = top;
position = "{206, 758}";
}
);
layerId = "156B637B-193E-48A3-AAC8-7B4A3960F885";
paths = (
{
closed = 1;
nodes = (
"323 -15 OFFCURVE",
"336 10 OFFCURVE",
"336 30 CURVE SMOOTH",
"336 335 LINE SMOOTH",
"336 376 OFFCURVE",
"337 438 OFFCURVE",
"339 521 CURVE SMOOTH",
"341 603 OFFCURVE",
"342 665 OFFCURVE",
"342 705 CURVE SMOOTH",
"342 716 OFFCURVE",
"344 726 OFFCURVE",
"348 734 CURVE",
"348 740 LINE SMOOTH",
"348 766 OFFCURVE",
"339 779 OFFCURVE",
"321 779 CURVE SMOOTH",
"303 779 OFFCURVE",
"292 771 OFFCURVE",
"289 754 CURVE",
"289 458 LINE SMOOTH",
"289 420 OFFCURVE",
"288 362 OFFCURVE",
"287 284 CURVE SMOOTH",
"285 207 OFFCURVE",
"285 148 OFFCURVE",
"285 110 CURVE",
"284 115 LINE SMOOTH",
"281 128 OFFCURVE",
"275 151 OFFCURVE",
"268 184 CURVE SMOOTH",
"253 250 OFFCURVE",
"228 359 OFFCURVE",
"200 462 CURVE SMOOTH",
"172 565 OFFCURVE",
"143 662 OFFCURVE",
"116 720 CURVE SMOOTH",
"103 749 OFFCURVE",
"92 764 OFFCURVE",
"83 764 CURVE SMOOTH",
"68 764 OFFCURVE",
"61 747 OFFCURVE",
"61 714 CURVE SMOOTH",
"61 708 LINE SMOOTH",
"61 687 OFFCURVE",
"60 656 OFFCURVE",
"57 616 CURVE SMOOTH",
"55 575 OFFCURVE",
"54 544 OFFCURVE",
"54 524 CURVE SMOOTH",
"54 396 LINE SMOOTH",
"54 379 OFFCURVE",
"56 332 OFFCURVE",
"60 254 CURVE SMOOTH",
"64 177 OFFCURVE",
"66 121 OFFCURVE",
"66 86 CURVE SMOOTH",
"66 74 OFFCURVE",
"65 60 OFFCURVE",
"64 44 CURVE SMOOTH",
"63 29 OFFCURVE",
"62 19 OFFCURVE",
"62 15 CURVE SMOOTH",
"62 4 OFFCURVE",
"69 -1 OFFCURVE",
"83 -1 CURVE SMOOTH",
"101 -1 OFFCURVE",
"119 8 OFFCURVE",
"119 21 CURVE SMOOTH",
"119 52 OFFCURVE",
"116 100 OFFCURVE",
"112 163 CURVE SMOOTH",
"107 226 OFFCURVE",
"104 274 OFFCURVE",
"104 306 CURVE SMOOTH",
"104 634 LINE",
"144 476 OFFCURVE",
"185 329 OFFCURVE",
"225 191 CURVE SMOOTH",
"266 54 OFFCURVE",
"293 -15 OFFCURVE",
"307 -15 CURVE SMOOTH"
);
}
);
width = 412;
}
);
note = N;
unicode = 004E;
},
{
glyphname = Eng;
layers = (
{
layerId = "27A8C2A5-6B67-4598-967C-E5EC4FB8AE70";
paths = (
{
closed = 1;
nodes = (
"301 -192 OFFCURVE",
"337 -134 OFFCURVE",
"337 -64 CURVE SMOOTH",
"337 -51 OFFCURVE",
"338 -36 OFFCURVE",
"340 -19 CURVE SMOOTH",
"342 -2 OFFCURVE",
"343 11 OFFCURVE",
"343 18 CURVE SMOOTH",
"343 35 OFFCURVE",
"344 62 OFFCURVE",
"345 97 CURVE SMOOTH",
"347 133 OFFCURVE",
"348 159 OFFCURVE",
"348 176 CURVE SMOOTH",
"348 302 LINE",
"350 306 LINE",
"348 318 OFFCURVE",
"348 327 OFFCURVE",
"348 333 CURVE SMOOTH",
"348 368 OFFCURVE",
"348 421 OFFCURVE",
"349 491 CURVE SMOOTH",
"350 562 OFFCURVE",
"351 614 OFFCURVE",
"351 649 CURVE",
"353 655 OFFCURVE",
"354 665 OFFCURVE",
"354 679 CURVE SMOOTH",
"354 683 OFFCURVE",
"354 688 OFFCURVE",
"354 696 CURVE SMOOTH",
"354 703 OFFCURVE",
"354 709 OFFCURVE",
"354 713 CURVE SMOOTH",
"354 727 OFFCURVE",
"355 738 OFFCURVE",
"360 746 CURVE",
"360 768 OFFCURVE",
"354 779 OFFCURVE",
"344 779 CURVE SMOOTH",
"330 779 OFFCURVE",
"321 774 OFFCURVE",
"319 765 CURVE",
"321 752 OFFCURVE",
"323 733 OFFCURVE",
"323 706 CURVE SMOOTH",
"323 683 LINE",
"320 675 LINE",
"322 673 OFFCURVE",
"323 669 OFFCURVE",
"323 662 CURVE SMOOTH",
"323 658 OFFCURVE",
"322 652 OFFCURVE",
"321 644 CURVE SMOOTH",
"320 635 OFFCURVE",
"320 628 OFFCURVE",
"320 624 CURVE SMOOTH",
"320 607 OFFCURVE",
"320 581 OFFCURVE",
"321 547 CURVE SMOOTH",
"322 512 OFFCURVE",
"323 486 OFFCURVE",
"323 469 CURVE SMOOTH",
"323 431 OFFCURVE",
"322 373 OFFCURVE",
"321 295 CURVE SMOOTH",
"319 218 OFFCURVE",
"319 160 OFFCURVE",
"319 121 CURVE SMOOTH",
"319 112 OFFCURVE",
"317 90 OFFCURVE",
"314 56 CURVE",
"286 153 LINE SMOOTH",
"282 163 OFFCURVE",
"278 183 OFFCURVE",
"272 212 CURVE SMOOTH",
"260 271 OFFCURVE",
"258 274 OFFCURVE",
"237 348 CURVE SMOOTH",
"216 422 OFFCURVE",
"200 480 OFFCURVE",
"188 535 CURVE SMOOTH",
"187 543 OFFCURVE",
"185 560 OFFCURVE",
"182 583 CURVE SMOOTH",
"177 629 OFFCURVE",
"172 643 OFFCURVE",
"161 669 CURVE SMOOTH",
"149 694 OFFCURVE",
"144 713 OFFCURVE",
"144 739 CURVE SMOOTH",
"144 748 OFFCURVE",
"130 758 OFFCURVE",
"121 758 CURVE SMOOTH",
"103 758 OFFCURVE",
"94 754 OFFCURVE",
"94 737 CURVE SMOOTH",
"94 734 OFFCURVE",
"94 731 OFFCURVE",
"94 727 CURVE SMOOTH",
"95 722 OFFCURVE",
"95 718 OFFCURVE",
"95 716 CURVE SMOOTH",
"95 695 OFFCURVE",
"94 664 OFFCURVE",
"91 622 CURVE SMOOTH",
"89 580 OFFCURVE",
"87 548 OFFCURVE",
"87 527 CURVE SMOOTH",
"87 396 LINE SMOOTH",
"87 357 OFFCURVE",
"89 299 OFFCURVE",
"93 222 CURVE SMOOTH",
"97 145 OFFCURVE",
"99 86 OFFCURVE",
"99 48 CURVE SMOOTH",
"99 26 OFFCURVE",
"98 13 OFFCURVE",
"97 8 CURVE",
"100 0 LINE",
"123 0 LINE",
"129 8 LINE",
"129 40 OFFCURVE",
"127 87 OFFCURVE",
"123 150 CURVE SMOOTH",
"118 213 OFFCURVE",
"116 261 OFFCURVE",
"116 293 CURVE SMOOTH",
"116 567 LINE SMOOTH",
"116 598 OFFCURVE",
"118 621 OFFCURVE",
"123 636 CURVE",
"121 640 OFFCURVE",
"121 646 OFFCURVE",
"121 655 CURVE SMOOTH",
"121 658 OFFCURVE",
"121 661 OFFCURVE",
"121 664 CURVE",
"122 670 OFFCURVE",
"123 680 OFFCURVE",
"124 684 CURVE",
"131 667 OFFCURVE",
"136 651 OFFCURVE",
"141 627 CURVE SMOOTH",
"144 615 OFFCURVE",
"146 606 OFFCURVE",
"147 602 CURVE",
"149 591 OFFCURVE",
"157 547 OFFCURVE",
"158 543 CURVE",
"156 538 LINE",
"162 532 OFFCURVE",
"165 523 OFFCURVE",
"165 510 CURVE",
"166 504 OFFCURVE",
"166 499 OFFCURVE",
"167 496 CURVE SMOOTH",
"175 449 OFFCURVE",
"188 393 OFFCURVE",
"206 327 CURVE SMOOTH",
"242 194 OFFCURVE",
"252 166 OFFCURVE",
"301 11 CURVE SMOOTH",
"304 0 OFFCURVE",
"308 -9 OFFCURVE",
"312 -14 CURVE",
"312 -23 LINE SMOOTH",
"312 -96 OFFCURVE",
"297 -146 OFFCURVE",
"268 -176 CURVE SMOOTH",
"266 -178 OFFCURVE",
"262 -181 OFFCURVE",
"255 -185 CURVE SMOOTH",
"243 -193 OFFCURVE",
"232 -201 OFFCURVE",
"231 -209 CURVE",
"231 -222 OFFCURVE",
"238 -228 OFFCURVE",
"252 -228 CURVE"
);
}
);
width = 449;
},
{
layerId = "156B637B-193E-48A3-AAC8-7B4A3960F885";
paths = (
{
closed = 1;
nodes = (
"279 -176 OFFCURVE",
"303 -158 OFFCURVE",
"313 -150 CURVE SMOOTH",
"318 -147 OFFCURVE",
"324 -142 OFFCURVE",
"330 -136 CURVE",
"343 -124 OFFCURVE",
"346 -120 OFFCURVE",
"353 -105 CURVE SMOOTH",
"360 -91 OFFCURVE",
"361 -81 OFFCURVE",
"364 -59 CURVE SMOOTH",
"367 -37 OFFCURVE",
"366 -15 OFFCURVE",
"366 21 CURVE SMOOTH",
"366 705 LINE SMOOTH",
"366 711 OFFCURVE",
"369 717 OFFCURVE",
"374 726 CURVE SMOOTH",
"376 730 OFFCURVE",
"378 733 OFFCURVE",
"378 734 CURVE",
"378 740 LINE SMOOTH",
"378 766 OFFCURVE",
"370 779 OFFCURVE",
"352 779 CURVE SMOOTH",
"333 779 OFFCURVE",
"323 771 OFFCURVE",
"319 754 CURVE",
"319 458 LINE SMOOTH",
"319 420 OFFCURVE",
"318 362 OFFCURVE",
"317 284 CURVE SMOOTH",
"315 207 OFFCURVE",
"315 148 OFFCURVE",
"315 110 CURVE",
"314 115 LINE SMOOTH",
"311 128 OFFCURVE",
"306 151 OFFCURVE",
"298 184 CURVE SMOOTH",
"283 250 OFFCURVE",
"258 359 OFFCURVE",
"230 462 CURVE SMOOTH",
"202 565 OFFCURVE",
"173 662 OFFCURVE",
"146 720 CURVE SMOOTH",
"133 749 OFFCURVE",
"122 764 OFFCURVE",
"113 764 CURVE SMOOTH",
"98 764 OFFCURVE",
"91 747 OFFCURVE",
"91 714 CURVE SMOOTH",
"91 708 LINE SMOOTH",
"91 687 OFFCURVE",
"90 656 OFFCURVE",
"87 616 CURVE SMOOTH",
"85 575 OFFCURVE",
"84 544 OFFCURVE",
"84 524 CURVE SMOOTH",
"84 396 LINE SMOOTH",
"84 379 OFFCURVE",
"86 332 OFFCURVE",
"90 254 CURVE SMOOTH",
"95 177 OFFCURVE",
"97 121 OFFCURVE",
"97 86 CURVE SMOOTH",
"97 74 OFFCURVE",
"96 60 OFFCURVE",
"94 44 CURVE SMOOTH",
"93 29 OFFCURVE",
"92 19 OFFCURVE",
"92 15 CURVE SMOOTH",
"92 4 OFFCURVE",
"99 -1 OFFCURVE",
"114 -1 CURVE SMOOTH",
"131 -1 OFFCURVE",
"149 8 OFFCURVE",
"149 21 CURVE SMOOTH",
"149 52 OFFCURVE",
"146 100 OFFCURVE",
"142 163 CURVE SMOOTH",
"137 226 OFFCURVE",
"135 274 OFFCURVE",
"135 306 CURVE SMOOTH",
"135 634 LINE",
"197 384 OFFCURVE",
"275 105 OFFCURVE",
"316 16 CURVE",
"316 7 OFFCURVE",
"316 -4 OFFCURVE",
"316 -20 CURVE SMOOTH",
"316 -36 OFFCURVE",
"316 -47 OFFCURVE",
"316 -55 CURVE SMOOTH",
"316 -66 OFFCURVE",
"313 -76 OFFCURVE",
"307 -84 CURVE SMOOTH",
"295 -101 OFFCURVE",
"276 -110 OFFCURVE",
"258 -119 CURVE SMOOTH",
"241 -127 OFFCURVE",
"227 -141 OFFCURVE",
"227 -159 CURVE SMOOTH",
"227 -179 OFFCURVE",
"242 -189 OFFCURVE",
"263 -189 CURVE"
);
}
);
width = 465;
}
);
note = Eng;
unicode = 014A;
},
{
glyphname = Nhookleft;
layers = (
{
anchors = (
{
name = bottom;
position = "{190, 0}";
},
{
name = top;
position = "{190, 754}";
}
);
layerId = "27A8C2A5-6B67-4598-967C-E5EC4FB8AE70";
paths = (
{
closed = 1;
nodes = (
"43 -192 OFFCURVE",
"80 -134 OFFCURVE",
"80 -64 CURVE SMOOTH",
"80 -51 OFFCURVE",
"81 -36 OFFCURVE",
"83 -19 CURVE",
"83 13 OFFCURVE",
"83 87 OFFCURVE",
"82 150 CURVE SMOOTH",
"81 213 OFFCURVE",
"80 261 OFFCURVE",
"80 293 CURVE SMOOTH",
"80 655 LINE SMOOTH",
"80 676 OFFCURVE",
"80 690 OFFCURVE",
"81 696 CURVE",
"104 580 OFFCURVE",
"118 513 OFFCURVE",
"122 496 CURVE SMOOTH",
"130 459 OFFCURVE",
"171 310 OFFCURVE",
"245 46 CURVE",
"245 43 OFFCURVE",
"246 39 OFFCURVE",
"248 31 CURVE SMOOTH",
"249 23 OFFCURVE",
"250 17 OFFCURVE",
"251 12 CURVE",
"254 1 OFFCURVE",
"262 -11 OFFCURVE",
"272 -11 CURVE SMOOTH",
"290 -11 OFFCURVE",
"298 -1 OFFCURVE",
"298 18 CURVE SMOOTH",
"298 35 OFFCURVE",
"299 62 OFFCURVE",
"300 97 CURVE SMOOTH",
"302 133 OFFCURVE",
"303 159 OFFCURVE",
"303 176 CURVE SMOOTH",
"303 229 OFFCURVE",
"303 307 OFFCURVE",
"304 412 CURVE SMOOTH",
"305 516 OFFCURVE",
"305 595 OFFCURVE",
"305 649 CURVE SMOOTH",
"305 713 LINE SMOOTH",
"305 715 OFFCURVE",
"306 720 OFFCURVE",
"306 729 CURVE SMOOTH",
"307 737 OFFCURVE",
"307 744 OFFCURVE",
"307 750 CURVE SMOOTH",
"307 769 OFFCURVE",
"304 779 OFFCURVE",
"299 779 CURVE SMOOTH",
"288 779 OFFCURVE",
"281 774 OFFCURVE",
"278 765 CURVE",
"279 624 LINE",
"279 607 OFFCURVE",
"279 581 OFFCURVE",
"279 547 CURVE SMOOTH",
"278 512 OFFCURVE",
"278 486 OFFCURVE",
"278 469 CURVE SMOOTH",
"278 431 OFFCURVE",
"277 373 OFFCURVE",
"276 295 CURVE SMOOTH",
"274 218 OFFCURVE",
"274 160 OFFCURVE",
"274 121 CURVE SMOOTH",
"274 99 OFFCURVE",
"272 83 OFFCURVE",
"268 73 CURVE",
"252 119 OFFCURVE",
"235 182 OFFCURVE",
"216 263 CURVE SMOOTH",
"168 440 OFFCURVE",
"145 531 OFFCURVE",
"144 535 CURVE SMOOTH",
"138 558 OFFCURVE",
"130 593 OFFCURVE",
"120 641 CURVE SMOOTH",
"110 689 OFFCURVE",
"103 722 OFFCURVE",
"99 739 CURVE SMOOTH",
"96 748 OFFCURVE",
"84 758 OFFCURVE",
"76 758 CURVE SMOOTH",
"58 758 OFFCURVE",
"49 754 OFFCURVE",
"49 737 CURVE SMOOTH",
"49 734 OFFCURVE",
"49 731 OFFCURVE",
"49 727 CURVE SMOOTH",
"50 722 OFFCURVE",
"50 718 OFFCURVE",
"50 716 CURVE SMOOTH",
"50 695 OFFCURVE",
"50 664 OFFCURVE",
"51 622 CURVE SMOOTH",
"51 580 OFFCURVE",
"51 548 OFFCURVE",
"51 527 CURVE SMOOTH",
"51 396 LINE SMOOTH",
"51 357 OFFCURVE",
"52 299 OFFCURVE",
"53 222 CURVE SMOOTH",
"53 145 OFFCURVE",
"54 24 OFFCURVE",
"54 -14 CURVE SMOOTH",
"54 -23 LINE SMOOTH",
"54 -96 OFFCURVE",
"39 -146 OFFCURVE",
"10 -176 CURVE SMOOTH",
"8 -178 OFFCURVE",
"4 -181 OFFCURVE",
"-2 -185 CURVE SMOOTH",
"-15 -192 OFFCURVE",
"-26 -201 OFFCURVE",
"-26 -209 CURVE",
"-26 -222 OFFCURVE",
"-20 -228 OFFCURVE",
"-5 -228 CURVE"
);
}
);
width = 380;
},
{
anchors = (
{
name = bottom;
position = "{206, 0}";
},
{
name = top;
position = "{206, 758}";
}
);
layerId = "156B637B-193E-48A3-AAC8-7B4A3960F885";
paths = (
{
closed = 1;
nodes = (
"32 -176 OFFCURVE",
"56 -157 OFFCURVE",
"65 -150 CURVE SMOOTH",
"70 -147 OFFCURVE",
"76 -142 OFFCURVE",
"83 -136 CURVE",
"96 -124 OFFCURVE",
"98 -120 OFFCURVE",
"105 -105 CURVE SMOOTH",
"113 -91 OFFCURVE",
"113 -81 OFFCURVE",
"116 -59 CURVE SMOOTH",
"119 -37 OFFCURVE",
"119 -15 OFFCURVE",
"119 21 CURVE SMOOTH",
"119 52 OFFCURVE",
"116 100 OFFCURVE",
"112 163 CURVE SMOOTH",
"107 226 OFFCURVE",
"104 274 OFFCURVE",
"104 306 CURVE SMOOTH",
"104 634 LINE",
"144 476 OFFCURVE",
"185 329 OFFCURVE",
"225 191 CURVE SMOOTH",
"266 54 OFFCURVE",
"293 -15 OFFCURVE",
"307 -15 CURVE SMOOTH",
"323 -15 OFFCURVE",
"336 10 OFFCURVE",
"336 30 CURVE SMOOTH",
"336 335 LINE SMOOTH",
"336 376 OFFCURVE",
"337 438 OFFCURVE",
"339 521 CURVE SMOOTH",
"341 603 OFFCURVE",
"342 665 OFFCURVE",
"342 705 CURVE SMOOTH",
"342 716 OFFCURVE",
"344 726 OFFCURVE",
"348 734 CURVE",
"348 740 LINE SMOOTH",
"348 766 OFFCURVE",
"339 779 OFFCURVE",
"321 779 CURVE SMOOTH",
"303 779 OFFCURVE",
"292 771 OFFCURVE",
"289 754 CURVE",
"289 458 LINE SMOOTH",
"289 420 OFFCURVE",
"288 362 OFFCURVE",
"287 284 CURVE SMOOTH",
"285 207 OFFCURVE",
"285 148 OFFCURVE",
"285 110 CURVE",
"284 115 LINE SMOOTH",
"281 128 OFFCURVE",
"275 151 OFFCURVE",
"268 184 CURVE SMOOTH",
"253 250 OFFCURVE",
"228 359 OFFCURVE",
"200 462 CURVE SMOOTH",
"172 565 OFFCURVE",
"143 662 OFFCURVE",
"116 720 CURVE SMOOTH",
"103 749 OFFCURVE",
"92 764 OFFCURVE",
"83 764 CURVE SMOOTH",
"68 764 OFFCURVE",
"61 747 OFFCURVE",
"61 714 CURVE SMOOTH",
"61 708 LINE SMOOTH",
"61 687 OFFCURVE",
"60 656 OFFCURVE",
"57 616 CURVE SMOOTH",
"55 575 OFFCURVE",
"54 544 OFFCURVE",
"54 524 CURVE SMOOTH",
"54 396 LINE SMOOTH",
"54 379 OFFCURVE",
"56 332 OFFCURVE",
"60 254 CURVE SMOOTH",
"64 177 OFFCURVE",
"66 121 OFFCURVE",
"66 86 CURVE",
"69 16 LINE",
"69 7 OFFCURVE",
"69 -4 OFFCURVE",
"69 -20 CURVE SMOOTH",
"69 -36 OFFCURVE",
"68 -47 OFFCURVE",
"68 -55 CURVE SMOOTH",
"68 -66 OFFCURVE",
"65 -76 OFFCURVE",
"60 -84 CURVE SMOOTH",
"48 -101 OFFCURVE",
"28 -110 OFFCURVE",
"11 -119 CURVE SMOOTH",
"-7 -127 OFFCURVE",
"-21 -141 OFFCURVE",
"-21 -159 CURVE SMOOTH",
"-21 -179 OFFCURVE",
"-5 -189 OFFCURVE",
"16 -189 CURVE"
);
}
);
width = 412;
}
);
unicode = 019D;
},
{
glyphname = O;
layers = (
{
anchors = (
{
name = bottom;
position = "{185, 0}";
},
{
name = center;
position = "{185, 377}";
},
{
name = ogonek;
position = "{239, 5}";
},
{
name = top;
position = "{160, 769}";
},
{
name = topleft;
position = "{10, 754}";
},
{
name = topright;
position = "{217, 729}";
}
);
layerId = "27A8C2A5-6B67-4598-967C-E5EC4FB8AE70";
paths = (
{
closed = 1;
nodes = (
"225 -21 OFFCURVE",
"245 -9 OFFCURVE",
"259 15 CURVE SMOOTH",
"273 39 OFFCURVE",
"284 63 OFFCURVE",
"290 102 CURVE SMOOTH",
"296 140 OFFCURVE",
"299 164 OFFCURVE",
"301 207 CURVE SMOOTH",
"303 249 OFFCURVE",
"303 263 OFFCURVE",
"303 299 CURVE SMOOTH",
"303 302 LINE SMOOTH",
"303 390 OFFCURVE",
"295 491 OFFCURVE",
"279 605 CURVE SMOOTH",
"276 623 OFFCURVE",
"273 639 OFFCURVE",
"271 652 CURVE SMOOTH",
"265 679 OFFCURVE",
"252 713 OFFCURVE",
"237 733 CURVE SMOOTH",
"221 752 OFFCURVE",
"193 767 OFFCURVE",
"160 767 CURVE SMOOTH",
"143 767 OFFCURVE",
"128 762 OFFCURVE",
"116 750 CURVE SMOOTH",
"91 729 OFFCURVE",
"79 696 OFFCURVE",
"71 646 CURVE SMOOTH",
"63 596 OFFCURVE",
"61 556 OFFCURVE",
"61 500 CURVE SMOOTH",
"61 460 LINE SMOOTH",
"61 139 OFFCURVE",
"107 -21 OFFCURVE",
"200 -21 CURVE SMOOTH"
);
},
{
closed = 1;
nodes = (
"185 7 OFFCURVE",
"169 19 OFFCURVE",
"156 42 CURVE SMOOTH",
"128 89 OFFCURVE",
"114 157 OFFCURVE",
"104 236 CURVE SMOOTH",
"94 315 OFFCURVE",
"91 371 OFFCURVE",
"91 406 CURVE SMOOTH",
"91 455 LINE SMOOTH",
"91 485 OFFCURVE",
"91 507 OFFCURVE",
"94 556 CURVE SMOOTH",
"96 605 OFFCURVE",
"104 642 OFFCURVE",
"114 680 CURVE SMOOTH",
"124 719 OFFCURVE",
"142 741 OFFCURVE",
"165 741 CURVE SMOOTH",
"190 741 OFFCURVE",
"213 722 OFFCURVE",
"227 688 CURVE SMOOTH",
"241 652 OFFCURVE",
"253 616 OFFCURVE",
"260 563 CURVE SMOOTH",
"266 511 OFFCURVE",
"270 475 OFFCURVE",
"272 423 CURVE SMOOTH",
"273 372 OFFCURVE",
"273 355 OFFCURVE",
"273 323 CURVE SMOOTH",
"273 319 LINE SMOOTH",
"273 290 OFFCURVE",
"273 268 OFFCURVE",
"271 214 CURVE SMOOTH",
"268 161 OFFCURVE",
"261 120 OFFCURVE",
"251 77 CURVE SMOOTH",
"242 33 OFFCURVE",
"224 7 OFFCURVE",
"202 7 CURVE SMOOTH"
);
}
);
width = 368;
},
{
anchors = (
{
name = bottom;
position = "{178, 0}";
},
{
name = center;
position = "{178, 379}";
},
{
name = ogonek;
position = "{251, 5}";
},
{
name = top;
position = "{153, 772}";
},
{
name = topleft;
position = "{10, 758}";
},
{
name = topright;
position = "{187, 743}";
}
);
layerId = "156B637B-193E-48A3-AAC8-7B4A3960F885";
paths = (
{
closed = 1;
nodes = (
"209 -28 OFFCURVE",
"226 -20 OFFCURVE",
"241 -4 CURVE SMOOTH",
"272 26 OFFCURVE",
"287 70 OFFCURVE",
"287 105 CURVE SMOOTH",
"287 130 OFFCURVE",
"289 152 OFFCURVE",
"293 171 CURVE",
"293 175 LINE SMOOTH",
"293 189 OFFCURVE",
"294 210 OFFCURVE",
"297 238 CURVE SMOOTH",
"300 266 OFFCURVE",
"302 287 OFFCURVE",
"302 302 CURVE SMOOTH",
"302 359 LINE SMOOTH",
"302 408 OFFCURVE",
"301 440 OFFCURVE",
"298 493 CURVE SMOOTH",
"296 545 OFFCURVE",
"290 582 OFFCURVE",
"280 627 CURVE SMOOTH",
"271 673 OFFCURVE",
"255 704 OFFCURVE",
"235 732 CURVE SMOOTH",
"215 759 OFFCURVE",
"186 774 OFFCURVE",
"151 774 CURVE SMOOTH",
"138 774 OFFCURVE",
"126 771 OFFCURVE",
"115 766 CURVE",
"94 754 OFFCURVE",
"80 736 OFFCURVE",
"69 708 CURVE SMOOTH",
"59 679 OFFCURVE",
"52 651 OFFCURVE",
"49 613 CURVE SMOOTH",
"45 576 OFFCURVE",
"44 546 OFFCURVE",
"44 507 CURVE SMOOTH",
"44 491 OFFCURVE",
"44 470 OFFCURVE",
"45 444 CURVE SMOOTH",
"45 417 OFFCURVE",
"45 399 OFFCURVE",
"45 390 CURVE SMOOTH",
"45 374 OFFCURVE",
"46 356 OFFCURVE",
"46 337 CURVE SMOOTH",
"48 300 OFFCURVE",
"53 237 OFFCURVE",
"61 187 CURVE SMOOTH",
"69 135 OFFCURVE",
"84 77 OFFCURVE",
"104 39 CURVE SMOOTH",
"124 0 OFFCURVE",
"154 -28 OFFCURVE",
"191 -28 CURVE SMOOTH"
);
},
{
closed = 1;
nodes = (
"178 27 OFFCURVE",
"164 39 OFFCURVE",
"151 62 CURVE SMOOTH",
"126 107 OFFCURVE",
"113 175 OFFCURVE",
"104 251 CURVE SMOOTH",
"93 328 OFFCURVE",
"90 384 OFFCURVE",
"90 416 CURVE SMOOTH",
"90 420 LINE SMOOTH",
"90 442 OFFCURVE",
"91 455 OFFCURVE",
"92 491 CURVE SMOOTH",
"93 528 OFFCURVE",
"95 555 OFFCURVE",
"99 592 CURVE SMOOTH",
"103 629 OFFCURVE",
"110 657 OFFCURVE",
"119 682 CURVE SMOOTH",
"127 707 OFFCURVE",
"140 721 OFFCURVE",
"156 721 CURVE SMOOTH",
"179 721 OFFCURVE",
"200 702 OFFCURVE",
"213 668 CURVE SMOOTH",
"227 634 OFFCURVE",
"237 596 OFFCURVE",
"243 546 CURVE SMOOTH",
"249 496 OFFCURVE",
"253 458 OFFCURVE",
"255 411 CURVE SMOOTH",
"256 364 OFFCURVE",
"256 345 OFFCURVE",
"256 319 CURVE SMOOTH",
"256 300 OFFCURVE",
"256 278 OFFCURVE",
"254 252 CURVE SMOOTH",
"251 201 OFFCURVE",
"246 115 OFFCURVE",
"227 64 CURVE SMOOTH",
"218 40 OFFCURVE",
"206 27 OFFCURVE",
"193 27 CURVE SMOOTH"
);
}
);
width = 355;
}
);
note = O;
unicode = 004F;
},
{
glyphname = Ohorn;
layers = (
{
components = (
{
name = O;
},
{
name = horncomb.case;
transform = "{1, 0, 0, 1, 143, 120}";
}
);
layerId = "27A8C2A5-6B67-4598-967C-E5EC4FB8AE70";
width = 368;
},
{
anchors = (
{
name = bottom;
position = "{186, 0}";
},
{
name = top;
position = "{152, 792}";
}
);
components = (
{
name = O;
}
);
layerId = "156B637B-193E-48A3-AAC8-7B4A3960F885";
paths = (
{
closed = 1;
nodes = (
"299 722 OFFCURVE",
"352 754 OFFCURVE",
"352 812 CURVE SMOOTH",
"352 839 OFFCURVE",
"341 853 OFFCURVE",
"313 853 CURVE SMOOTH",
"294 853 OFFCURVE",
"279 847 OFFCURVE",
"279 835 CURVE SMOOTH",
"279 826 OFFCURVE",
"287 813 OFFCURVE",
"287 797 CURVE SMOOTH",
"287 779 OFFCURVE",
"281 765 OFFCURVE",
"242 765 CURVE SMOOTH",
"232 765 OFFCURVE",
"193 768 OFFCURVE",
"180 771 CURVE",
"180 730 LINE",
"189 727 OFFCURVE",
"234 722 OFFCURVE",
"251 722 CURVE SMOOTH"
);
}
);
width = 372;
}
);
unicode = 01A0;
},
{
glyphname = Oslash;
layers = (
{
anchors = (
{
name = bottom;
position = "{159, 0}";
},
{
name = top;
position = "{110, 783}";
}
);
layerId = "27A8C2A5-6B67-4598-967C-E5EC4FB8AE70";
paths = (
{
closed = 1;
nodes = (
"90 -65 OFFCURVE",
"99 -19 OFFCURVE",
"103 10 CURVE",
"104 10 LINE",
"114 -3 OFFCURVE",
"130 -10 OFFCURVE",
"153 -10 CURVE SMOOTH",
"177 -10 OFFCURVE",
"197 -1 OFFCURVE",
"210 17 CURVE SMOOTH",
"224 34 OFFCURVE",
"234 51 OFFCURVE",
"240 78 CURVE SMOOTH",
"246 105 OFFCURVE",
"249 123 OFFCURVE",
"251 153 CURVE SMOOTH",
"252 182 OFFCURVE",
"252 193 OFFCURVE",
"252 217 CURVE SMOOTH",
"252 238 OFFCURVE",
"252 269 OFFCURVE",
"251 311 CURVE SMOOTH",
"250 353 OFFCURVE",
"249 385 OFFCURVE",
"249 406 CURVE",
"247 409 LINE",
"247 415 LINE SMOOTH",
"247 435 OFFCURVE",
"245 466 OFFCURVE",
"240 507 CURVE SMOOTH",
"235 549 OFFCURVE",
"232 579 OFFCURVE",
"232 599 CURVE",
"234 600 LINE",
"234 626 OFFCURVE",
"230 649 OFFCURVE",
"223 667 CURVE",
"223 668 OFFCURVE",
"221 671 OFFCURVE",
"218 675 CURVE",
"212 684 OFFCURVE",
"209 690 OFFCURVE",
"208 697 CURVE",
"209 699 LINE",
"199 710 OFFCURVE",
"194 720 OFFCURVE",
"194 728 CURVE",
"215 849 LINE",
"216 878 LINE",
"198 878 LINE",
"198 875 OFFCURVE",
"194 856 OFFCURVE",
"189 825 CURVE SMOOTH",
"184 792 OFFCURVE",
"178 768 OFFCURVE",
"172 752 CURVE",
"167 757 LINE",
"163 755 LINE",
"161 755 OFFCURVE",
"156 757 OFFCURVE",
"149 761 CURVE",
"143 764 OFFCURVE",
"138 766 OFFCURVE",
"134 766 CURVE SMOOTH",
"85 766 OFFCURVE",
"61 687 OFFCURVE",
"61 528 CURVE SMOOTH",
"61 465 LINE SMOOTH",
"61 302 OFFCURVE",
"68 177 OFFCURVE",
"82 90 CURVE SMOOTH",
"83 86 OFFCURVE",
"84 81 OFFCURVE",
"87 73 CURVE",
"90 65 OFFCURVE",
"91 59 OFFCURVE",
"91 54 CURVE",
"86 21 OFFCURVE",
"82 -8 OFFCURVE",
"77 -32 CURVE SMOOTH",
"66 -82 OFFCURVE",
"63 -96 OFFCURVE",
"62 -117 CURVE",
"77 -129 LINE"
);
},
{
closed = 1;
nodes = (
"129 11 OFFCURVE",
"117 25 OFFCURVE",
"117 58 CURVE SMOOTH",
"117 64 OFFCURVE",
"120 80 OFFCURVE",
"124 105 CURVE SMOOTH",
"137 172 OFFCURVE",
"149 270 OFFCURVE",
"160 399 CURVE SMOOTH",
"171 528 OFFCURVE",
"181 621 OFFCURVE",
"190 678 CURVE",
"214 631 OFFCURVE",
"226 470 OFFCURVE",
"226 195 CURVE SMOOTH",
"226 72 OFFCURVE",
"205 11 OFFCURVE",
"161 11 CURVE SMOOTH"
);
},
{
closed = 1;
nodes = (
"103 157 OFFCURVE",
"101 192 OFFCURVE",
"97 239 CURVE SMOOTH",
"93 286 OFFCURVE",
"91 321 OFFCURVE",
"91 344 CURVE",
"85 358 OFFCURVE",
"82 380 OFFCURVE",
"82 410 CURVE SMOOTH",
"82 416 LINE SMOOTH",
"82 616 OFFCURVE",
"92 722 OFFCURVE",
"113 735 CURVE",
"119 733 LINE",
"120 733 OFFCURVE",
"122 734 OFFCURVE",
"124 735 CURVE SMOOTH",
"126 736 OFFCURVE",
"129 737 OFFCURVE",
"131 738 CURVE",
"133 738 OFFCURVE",
"135 739 OFFCURVE",
"135 739 CURVE SMOOTH",
"151 739 OFFCURVE",
"167 727 OFFCURVE",
"167 711 CURVE SMOOTH",
"167 688 OFFCURVE",
"164 665 OFFCURVE",
"160 634 CURVE SMOOTH",
"158 619 OFFCURVE",
"156 607 OFFCURVE",
"155 599 CURVE",
"155 592 OFFCURVE",
"152 569 OFFCURVE",
"149 532 CURVE SMOOTH",
"146 494 OFFCURVE",
"142 455 OFFCURVE",
"138 414 CURVE SMOOTH",
"129 333 OFFCURVE",
"120 239 OFFCURVE",
"112 181 CURVE SMOOTH",
"108 152 OFFCURVE",
"105 136 OFFCURVE",
"103 134 CURVE"
);
}
);
width = 318;
},
{
anchors = (
{
name = bottom;
position = "{179, 0}";
},
{
name = top;
position = "{42, 768}";
}
);
layerId = "156B637B-193E-48A3-AAC8-7B4A3960F885";
paths = (
{
closed = 1;
nodes = (
"117 23 LINE",
"139 -11 OFFCURVE",
"160 -28 OFFCURVE",
"191 -28 CURVE SMOOTH",
"209 -28 OFFCURVE",
"226 -20 OFFCURVE",
"241 -4 CURVE SMOOTH",
"272 26 OFFCURVE",
"287 70 OFFCURVE",
"287 105 CURVE SMOOTH",
"287 130 OFFCURVE",
"289 152 OFFCURVE",
"293 171 CURVE",
"293 175 LINE SMOOTH",
"293 189 OFFCURVE",
"294 210 OFFCURVE",
"297 238 CURVE SMOOTH",
"300 266 OFFCURVE",
"302 287 OFFCURVE",
"302 302 CURVE SMOOTH",
"302 307 OFFCURVE",
"302 316 OFFCURVE",
"302 329 CURVE",
"302 341 OFFCURVE",
"302 351 OFFCURVE",
"302 358 CURVE SMOOTH",
"302 431 OFFCURVE",
"301 480 OFFCURVE",
"293 552 CURVE SMOOTH",
"286 625 OFFCURVE",
"269 684 OFFCURVE",
"242 723 CURVE",
"273 878 LINE",
"234 878 LINE",
"212 754 LINE",
"195 768 OFFCURVE",
"174 774 OFFCURVE",
"151 774 CURVE SMOOTH",
"138 774 OFFCURVE",
"126 771 OFFCURVE",
"115 766 CURVE",
"94 754 OFFCURVE",
"80 735 OFFCURVE",
"69 708 CURVE SMOOTH",
"59 680 OFFCURVE",
"52 651 OFFCURVE",
"49 614 CURVE SMOOTH",
"45 576 OFFCURVE",
"44 546 OFFCURVE",
"44 507 CURVE SMOOTH",
"44 491 OFFCURVE",
"44 470 OFFCURVE",
"45 444 CURVE SMOOTH",
"45 417 OFFCURVE",
"45 399 OFFCURVE",
"45 390 CURVE SMOOTH",
"45 295 OFFCURVE",
"56 160 OFFCURVE",
"90 70 CURVE",
"60 -109 LINE",
"82 -137 LINE"
);
},
{
closed = 1;
nodes = (
"168 27 OFFCURVE",
"147 57 OFFCURVE",
"130 117 CURVE",
"225 634 LINE",
"246 563 OFFCURVE",
"256 458 OFFCURVE",
"256 319 CURVE SMOOTH",
"256 300 OFFCURVE",
"256 278 OFFCURVE",
"254 252 CURVE SMOOTH",
"251 201 OFFCURVE",
"246 115 OFFCURVE",
"227 64 CURVE SMOOTH",
"218 40 OFFCURVE",
"206 27 OFFCURVE",
"193 27 CURVE SMOOTH"
);
},
{
closed = 1;
nodes = (
"98 273 OFFCURVE",
"90 373 OFFCURVE",
"90 416 CURVE SMOOTH",
"90 420 LINE SMOOTH",
"90 442 OFFCURVE",
"91 455 OFFCURVE",
"92 491 CURVE SMOOTH",
"93 528 OFFCURVE",
"95 555 OFFCURVE",
"99 592 CURVE SMOOTH",
"103 629 OFFCURVE",
"110 657 OFFCURVE",
"119 682 CURVE SMOOTH",
"127 707 OFFCURVE",
"140 721 OFFCURVE",
"156 721 CURVE SMOOTH",
"173 721 OFFCURVE",
"188 711 OFFCURVE",
"201 691 CURVE",
"112 193 LINE"
);
}
);
width = 356;
}
);
note = Oslash;
unicode = 00D8;
},
{
glyphname = OE;
layers = (
{
layerId = "27A8C2A5-6B67-4598-967C-E5EC4FB8AE70";
paths = (
{
closed = 1;
nodes = (
"404 -10 OFFCURVE",
"430 -9 OFFCURVE",
"463 -8 CURVE SMOOTH",
"497 -7 OFFCURVE",
"522 -7 OFFCURVE",
"539 -7 CURVE",
"545 2 LINE",
"545 15 OFFCURVE",
"522 21 OFFCURVE",
"476 21 CURVE SMOOTH",
"466 21 OFFCURVE",
"453 21 OFFCURVE",
"435 20 CURVE SMOOTH",
"417 18 OFFCURVE",
"405 18 OFFCURVE",
"399 17 CURVE",
"399 57 OFFCURVE",
"398 116 OFFCURVE",
"396 196 CURVE SMOOTH",
"393 275 OFFCURVE",
"392 334 OFFCURVE",
"392 374 CURVE SMOOTH",
"392 380 OFFCURVE",
"402 383 OFFCURVE",
"421 383 CURVE SMOOTH",
"426 383 OFFCURVE",
"434 382 OFFCURVE",
"444 381 CURVE SMOOTH",
"454 380 OFFCURVE",
"461 380 OFFCURVE",
"466 380 CURVE SMOOTH",
"479 380 OFFCURVE",
"482 384 OFFCURVE",
"482 396 CURVE",
"476 404 OFFCURVE",
"468 408 OFFCURVE",
"458 408 CURVE SMOOTH",
"455 408 OFFCURVE",
"451 408 OFFCURVE",
"445 407 CURVE",
"439 406 OFFCURVE",
"435 406 OFFCURVE",
"432 406 CURVE",
"393 407 LINE",
"390 418 OFFCURVE",
"388 432 OFFCURVE",
"388 448 CURVE SMOOTH",
"388 454 OFFCURVE",
"389 463 OFFCURVE",
"389 474 CURVE SMOOTH",
"390 485 OFFCURVE",
"390 494 OFFCURVE",
"390 500 CURVE SMOOTH",
"390 525 OFFCURVE",
"388 562 OFFCURVE",
"383 611 CURVE SMOOTH",
"378 661 OFFCURVE",
"376 697 OFFCURVE",
"376 722 CURVE",
"389 722 OFFCURVE",
"409 722 OFFCURVE",
"435 720 CURVE SMOOTH",
"461 719 OFFCURVE",
"481 718 OFFCURVE",
"494 718 CURVE SMOOTH",
"506 718 OFFCURVE",
"512 722 OFFCURVE",
"512 729 CURVE SMOOTH",
"512 734 OFFCURVE",
"503 743 OFFCURVE",
"497 747 CURVE",
"495 747 OFFCURVE",
"491 747 OFFCURVE",
"486 746 CURVE SMOOTH",
"481 746 OFFCURVE",
"478 745 OFFCURVE",
"475 745 CURVE SMOOTH",
"401 745 LINE SMOOTH",
"397 745 OFFCURVE",
"390 746 OFFCURVE",
"382 748 CURVE SMOOTH",
"373 750 OFFCURVE",
"367 751 OFFCURVE",
"362 751 CURVE",
"347 730 LINE",
"350 719 LINE",
"327 745 OFFCURVE",
"279 758 OFFCURVE",
"206 758 CURVE SMOOTH",
"167 758 OFFCURVE",
"136 736 OFFCURVE",
"115 703 CURVE SMOOTH",
"95 669 OFFCURVE",
"80 629 OFFCURVE",
"72 585 CURVE SMOOTH",
"64 540 OFFCURVE",
"61 504 OFFCURVE",
"61 471 CURVE SMOOTH",
"61 449 OFFCURVE",
"62 415 OFFCURVE",
"63 369 CURVE SMOOTH",
"65 323 OFFCURVE",
"66 289 OFFCURVE",
"66 266 CURVE SMOOTH",
"66 193 OFFCURVE",
"86 129 OFFCURVE",
"125 82 CURVE SMOOTH",
"163 34 OFFCURVE",
"224 5 OFFCURVE",
"298 5 CURVE SMOOTH",
"307 5 OFFCURVE",
"319 7 OFFCURVE",
"335 12 CURVE SMOOTH",
"351 17 OFFCURVE",
"362 20 OFFCURVE",
"369 21 CURVE",
"363 5 LINE",
"364 -5 OFFCURVE",
"372 -10 OFFCURVE",
"387 -10 CURVE SMOOTH"
);
},
{
closed = 1;
nodes = (
"226 35 OFFCURVE",
"184 56 OFFCURVE",
"146 96 CURVE",
"135 98 OFFCURVE",
"125 110 OFFCURVE",
"117 134 CURVE SMOOTH",
"109 157 OFFCURVE",
"103 185 OFFCURVE",
"99 216 CURVE SMOOTH",
"91 280 OFFCURVE",
"87 333 OFFCURVE",
"87 362 CURVE",
"85 365 LINE",
"85 374 OFFCURVE",
"86 385 OFFCURVE",
"86 401 CURVE SMOOTH",
"86 408 OFFCURVE",
"86 420 OFFCURVE",
"85 436 CURVE SMOOTH",
"85 452 OFFCURVE",
"85 464 OFFCURVE",
"85 472 CURVE SMOOTH",
"85 507 OFFCURVE",
"87 538 OFFCURVE",
"93 579 CURVE SMOOTH",
"100 621 OFFCURVE",
"113 654 OFFCURVE",
"133 684 CURVE SMOOTH",
"152 713 OFFCURVE",
"184 731 OFFCURVE",
"223 731 CURVE SMOOTH",
"276 731 OFFCURVE",
"328 718 OFFCURVE",
"353 684 CURVE",
"353 671 OFFCURVE",
"354 650 OFFCURVE",
"356 624 CURVE SMOOTH",
"358 597 OFFCURVE",
"359 576 OFFCURVE",
"359 563 CURVE SMOOTH",
"359 509 OFFCURVE",
"362 427 OFFCURVE",
"366 319 CURVE SMOOTH",
"371 211 OFFCURVE",
"373 129 OFFCURVE",
"373 75 CURVE SMOOTH",
"373 58 OFFCURVE",
"356 46 OFFCURVE",
"333 42 CURVE SMOOTH",
"309 37 OFFCURVE",
"291 35 OFFCURVE",
"274 35 CURVE SMOOTH"
);
}
);
width = 555;
},
{
anchors = (
{
name = bottom;
position = "{267, 0}";
},
{
name = top;
position = "{351, 758}";
}
);
layerId = "156B637B-193E-48A3-AAC8-7B4A3960F885";
paths = (
{
closed = 1;
nodes = (
"399 -11 OFFCURVE",
"426 -10 OFFCURVE",
"461 -9 CURVE SMOOTH",
"496 -8 OFFCURVE",
"522 -8 OFFCURVE",
"540 -8 CURVE",
"551 9 LINE",
"551 12 LINE SMOOTH",
"551 32 OFFCURVE",
"529 42 OFFCURVE",
"485 42 CURVE SMOOTH",
"471 42 LINE",
"469 42 LINE",
"459 42 OFFCURVE",
"438 42 OFFCURVE",
"404 39 CURVE",
"404 74 OFFCURVE",
"403 128 OFFCURVE",
"400 202 CURVE SMOOTH",
"398 276 OFFCURVE",
"397 332 OFFCURVE",
"397 370 CURVE",
"400 370 OFFCURVE",
"404 370 OFFCURVE",
"411 370 CURVE SMOOTH",
"416 370 OFFCURVE",
"424 370 OFFCURVE",
"435 369 CURVE SMOOTH",
"446 369 OFFCURVE",
"454 368 OFFCURVE",
"459 368 CURVE SMOOTH",
"478 368 OFFCURVE",
"487 378 OFFCURVE",
"487 399 CURVE",
"478 412 OFFCURVE",
"466 417 OFFCURVE",
"453 417 CURVE SMOOTH",
"451 417 OFFCURVE",
"447 417 OFFCURVE",
"442 417 CURVE",
"438 417 OFFCURVE",
"434 417 OFFCURVE",
"431 417 CURVE SMOOTH",
"426 417 LINE",
"396 418 LINE",
"395 426 OFFCURVE",
"394 435 OFFCURVE",
"394 446 CURVE SMOOTH",
"394 451 OFFCURVE",
"394 460 OFFCURVE",
"395 471 CURVE SMOOTH",
"395 482 OFFCURVE",
"396 491 OFFCURVE",
"396 497 CURVE SMOOTH",
"396 520 OFFCURVE",
"393 554 OFFCURVE",
"389 599 CURVE SMOOTH",
"384 644 OFFCURVE",
"382 677 OFFCURVE",
"382 700 CURVE",
"392 700 OFFCURVE",
"410 699 OFFCURVE",
"434 698 CURVE SMOOTH",
"458 697 OFFCURVE",
"476 696 OFFCURVE",
"488 696 CURVE SMOOTH",
"503 696 OFFCURVE",
"518 704 OFFCURVE",
"518 718 CURVE SMOOTH",
"518 729 OFFCURVE",
"510 738 OFFCURVE",
"495 747 CURVE",
"493 747 OFFCURVE",
"489 746 OFFCURVE",
"483 746 CURVE SMOOTH",
"478 745 OFFCURVE",
"473 745 OFFCURVE",
"470 745 CURVE SMOOTH",
"396 745 LINE SMOOTH",
"390 745 OFFCURVE",
"383 746 OFFCURVE",
"373 748 CURVE SMOOTH",
"363 750 OFFCURVE",
"356 750 OFFCURVE",
"351 750 CURVE",
"336 729 LINE",
"300 752 OFFCURVE",
"258 757 OFFCURVE",
"201 757 CURVE SMOOTH",
"184 757 OFFCURVE",
"168 754 OFFCURVE",
"154 748 CURVE SMOOTH",
"126 736 OFFCURVE",
"107 718 OFFCURVE",
"91 688 CURVE SMOOTH",
"75 656 OFFCURVE",
"65 631 OFFCURVE",
"58 591 CURVE SMOOTH",
"51 550 OFFCURVE",
"48 526 OFFCURVE",
"46 484 CURVE SMOOTH",
"44 442 OFFCURVE",
"44 429 OFFCURVE",
"44 395 CURVE SMOOTH",
"44 372 OFFCURVE",
"44 352 OFFCURVE",
"45 334 CURVE SMOOTH",
"46 298 OFFCURVE",
"50 248 OFFCURVE",
"57 213 CURVE SMOOTH",
"63 178 OFFCURVE",
"76 136 OFFCURVE",
"93 107 CURVE SMOOTH",
"110 79 OFFCURVE",
"136 50 OFFCURVE",
"167 33 CURVE SMOOTH",
"199 16 OFFCURVE",
"242 4 OFFCURVE",
"293 4 CURVE SMOOTH",
"304 4 OFFCURVE",
"321 8 OFFCURVE",
"346 16 CURVE",
"346 13 LINE",
"346 -1 OFFCURVE",
"366 -11 OFFCURVE",
"382 -11 CURVE SMOOTH"
);
},
{
closed = 1;
nodes = (
"220 55 OFFCURVE",
"175 77 OFFCURVE",
"145 113 CURVE",
"133 114 OFFCURVE",
"125 127 OFFCURVE",
"118 151 CURVE SMOOTH",
"111 175 OFFCURVE",
"106 201 OFFCURVE",
"104 230 CURVE SMOOTH",
"101 287 OFFCURVE",
"96 354 OFFCURVE",
"90 367 CURVE",
"90 374 OFFCURVE",
"90 385 OFFCURVE",
"90 400 CURVE SMOOTH",
"90 408 OFFCURVE",
"90 418 OFFCURVE",
"90 434 CURVE SMOOTH",
"90 449 OFFCURVE",
"90 460 OFFCURVE",
"90 467 CURVE SMOOTH",
"90 500 OFFCURVE",
"92 527 OFFCURVE",
"98 566 CURVE SMOOTH",
"103 605 OFFCURVE",
"115 636 OFFCURVE",
"133 664 CURVE SMOOTH",
"151 691 OFFCURVE",
"180 708 OFFCURVE",
"216 708 CURVE SMOOTH",
"272 708 OFFCURVE",
"312 695 OFFCURVE",
"335 669 CURVE",
"336 612 OFFCURVE",
"339 517 OFFCURVE",
"346 385 CURVE SMOOTH",
"352 253 OFFCURVE",
"355 152 OFFCURVE",
"355 82 CURVE SMOOTH",
"355 75 OFFCURVE",
"349 70 OFFCURVE",
"335 65 CURVE SMOOTH",
"309 57 OFFCURVE",
"283 55 OFFCURVE",
"267 55 CURVE SMOOTH"
);
}
);
width = 569;
}
);
leftMetricsKey = O;
note = OE;
unicode = 0152;
},
{
glyphname = P;
layers = (
{
anchors = (
{
name = bottom;
position = "{138, 0}";
},
{
name = top;
position = "{104, 754}";
}
);
layerId = "27A8C2A5-6B67-4598-967C-E5EC4FB8AE70";
paths = (
{
closed = 1;
nodes = (
"106 -6 OFFCURVE",
"110 5 OFFCURVE",
"110 25 CURVE SMOOTH",
"110 62 OFFCURVE",
"109 117 OFFCURVE",
"106 189 CURVE SMOOTH",
"104 262 OFFCURVE",
"102 317 OFFCURVE",
"102 354 CURVE",
"127 359 OFFCURVE",
"149 375 OFFCURVE",
"169 402 CURVE SMOOTH",
"209 455 OFFCURVE",
"227 522 OFFCURVE",
"227 579 CURVE SMOOTH",
"227 624 OFFCURVE",
"215 668 OFFCURVE",
"192 704 CURVE SMOOTH",
"169 740 OFFCURVE",
"129 764 OFFCURVE",
"82 764 CURVE SMOOTH",
"79 764 OFFCURVE",
"77 764 OFFCURVE",
"75 763 CURVE",
"72 762 OFFCURVE",
"71 761 OFFCURVE",
"70 759 CURVE",
"68 757 OFFCURVE",
"67 757 OFFCURVE",
"66 754 CURVE",
"65 752 OFFCURVE",
"64 751 OFFCURVE",
"63 750 CURVE",
"63 718 OFFCURVE",
"65 674 OFFCURVE",
"67 618 CURVE SMOOTH",
"71 527 OFFCURVE",
"72 444 OFFCURVE",
"72 370 CURVE SMOOTH",
"72 352 OFFCURVE",
"72 325 OFFCURVE",
"73 289 CURVE SMOOTH",
"73 253 OFFCURVE",
"73 226 OFFCURVE",
"73 208 CURVE SMOOTH",
"73 188 OFFCURVE",
"74 158 OFFCURVE",
"75 118 CURVE SMOOTH",
"76 79 OFFCURVE",
"76 49 OFFCURVE",
"76 29 CURVE SMOOTH",
"76 6 OFFCURVE",
"80 -6 OFFCURVE",
"88 -6 CURVE SMOOTH"
);
},
{
closed = 1;
nodes = (
"100 393 LINE",
"100 431 OFFCURVE",
"98 488 OFFCURVE",
"94 564 CURVE SMOOTH",
"90 640 OFFCURVE",
"88 697 OFFCURVE",
"88 735 CURVE",
"130 735 OFFCURVE",
"161 714 OFFCURVE",
"177 681 CURVE SMOOTH",
"192 648 OFFCURVE",
"199 614 OFFCURVE",
"199 577 CURVE SMOOTH",
"199 512 OFFCURVE",
"178 458 OFFCURVE",
"134 414 CURVE SMOOTH",
"133 413 OFFCURVE",
"131 410 OFFCURVE",
"127 407 CURVE SMOOTH",
"124 403 OFFCURVE",
"122 400 OFFCURVE",
"120 399 CURVE",
"116 396 OFFCURVE",
"109 392 OFFCURVE",
"102 391 CURVE"
);
}
);
width = 276;
},
{
anchors = (
{
name = bottom;
position = "{144, 0}";
},
{
name = top;
position = "{144, 758}";
}
);
layerId = "156B637B-193E-48A3-AAC8-7B4A3960F885";
paths = (
{
closed = 1;
nodes = (
"117 -5 OFFCURVE",
"127 12 OFFCURVE",
"127 36 CURVE SMOOTH",
"127 72 OFFCURVE",
"125 125 OFFCURVE",
"123 194 CURVE SMOOTH",
"121 263 OFFCURVE",
"119 314 OFFCURVE",
"119 348 CURVE",
"201 392 OFFCURVE",
"244 476 OFFCURVE",
"244 574 CURVE SMOOTH",
"244 621 OFFCURVE",
"230 667 OFFCURVE",
"205 704 CURVE SMOOTH",
"179 741 OFFCURVE",
"137 765 OFFCURVE",
"87 765 CURVE SMOOTH",
"72 765 OFFCURVE",
"59 757 OFFCURVE",
"49 742 CURVE",
"66 661 OFFCURVE",
"75 542 OFFCURVE",
"75 385 CURVE SMOOTH",
"75 340 OFFCURVE",
"74 277 OFFCURVE",
"72 196 CURVE SMOOTH",
"71 114 OFFCURVE",
"70 59 OFFCURVE",
"70 28 CURVE SMOOTH",
"70 11 OFFCURVE",
"78 -5 OFFCURVE",
"94 -5 CURVE SMOOTH"
);
},
{
closed = 1;
nodes = (
"116 431 OFFCURVE",
"114 484 OFFCURVE",
"111 554 CURVE SMOOTH",
"107 625 OFFCURVE",
"105 677 OFFCURVE",
"105 712 CURVE",
"118 703 OFFCURVE",
"126 697 OFFCURVE",
"131 693 CURVE SMOOTH",
"141 686 OFFCURVE",
"163 669 OFFCURVE",
"168 662 CURVE",
"174 653 OFFCURVE",
"185 638 OFFCURVE",
"188 624 CURVE SMOOTH",
"190 610 OFFCURVE",
"193 591 OFFCURVE",
"193 566 CURVE SMOOTH",
"193 565 LINE SMOOTH",
"193 497 OFFCURVE",
"169 445 OFFCURVE",
"117 396 CURVE"
);
}
);
width = 288;
}
);
note = P;
unicode = 0050;
},
{
glyphname = Thorn;
layers = (
{
layerId = "27A8C2A5-6B67-4598-967C-E5EC4FB8AE70";
paths = (
{
closed = 1;
nodes = (
"117 -6 OFFCURVE",
"121 5 OFFCURVE",
"121 25 CURVE SMOOTH",
"121 62 OFFCURVE",
"120 92 OFFCURVE",
"118 117 CURVE SMOOTH",
"116 141 OFFCURVE",
"115 172 OFFCURVE",
"115 208 CURVE",
"146 215 OFFCURVE",
"164 221 OFFCURVE",
"169 224 CURVE SMOOTH",
"171 226 OFFCURVE",
"175 228 OFFCURVE",
"182 231 CURVE",
"188 233 OFFCURVE",
"192 236 OFFCURVE",
"195 238 CURVE SMOOTH",
"238 273 OFFCURVE",
"270 369 OFFCURVE",
"270 433 CURVE SMOOTH",
"270 451 OFFCURVE",
"268 469 OFFCURVE",
"265 485 CURVE SMOOTH",
"258 519 OFFCURVE",
"240 553 OFFCURVE",
"215 577 CURVE SMOOTH",
"189 601 OFFCURVE",
"148 618 OFFCURVE",
"98 618 CURVE",
"98 619 LINE",
"97 628 OFFCURVE",
"96 650 OFFCURVE",
"96 686 CURVE SMOOTH",
"95 721 OFFCURVE",
"94 743 OFFCURVE",
"93 752 CURVE",
"93 751 OFFCURVE",
"92 752 OFFCURVE",
"91 752 CURVE",
"87 753 OFFCURVE",
"81 755 OFFCURVE",
"77 755 CURVE",
"72 753 OFFCURVE",
"69 751 OFFCURVE",
"69 747 CURVE",
"70 745 LINE",
"70 743 OFFCURVE",
"70 741 OFFCURVE",
"70 740 CURVE SMOOTH",
"70 734 OFFCURVE",
"70 724 OFFCURVE",
"69 708 CURVE SMOOTH",
"69 693 OFFCURVE",
"68 684 OFFCURVE",
"68 681 CURVE SMOOTH",
"68 675 OFFCURVE",
"69 670 OFFCURVE",
"69 667 CURVE",
"69 650 OFFCURVE",
"70 626 OFFCURVE",
"73 595 CURVE SMOOTH",
"75 564 OFFCURVE",
"76 544 OFFCURVE",
"77 537 CURVE",
"77 521 OFFCURVE",
"79 494 OFFCURVE",
"80 457 CURVE SMOOTH",
"83 383 OFFCURVE",
"85 327 OFFCURVE",
"85 278 CURVE SMOOTH",
"85 260 OFFCURVE",
"86 239 OFFCURVE",
"86 216 CURVE SMOOTH",
"87 193 OFFCURVE",
"87 173 OFFCURVE",
"87 155 CURVE SMOOTH",
"87 135 OFFCURVE",
"87 114 OFFCURVE",
"87 92 CURVE SMOOTH",
"86 70 OFFCURVE",
"86 49 OFFCURVE",
"86 29 CURVE SMOOTH",
"86 6 OFFCURVE",
"90 -6 OFFCURVE",
"99 -6 CURVE SMOOTH"
);
},
{
closed = 1;
nodes = (
"115 279 OFFCURVE",
"112 332 OFFCURVE",
"108 402 CURVE SMOOTH",
"104 473 OFFCURVE",
"102 527 OFFCURVE",
"102 563 CURVE SMOOTH",
"102 589 LINE",
"195 589 OFFCURVE",
"242 537 OFFCURVE",
"242 431 CURVE SMOOTH",
"242 366 OFFCURVE",
"220 312 OFFCURVE",
"177 268 CURVE SMOOTH",
"167 259 OFFCURVE",
"131 247 OFFCURVE",
"115 245 CURVE"
);
}
);
width = 318;
},
{
layerId = "156B637B-193E-48A3-AAC8-7B4A3960F885";
paths = (
{
closed = 1;
nodes = (
"104 -5 OFFCURVE",
"115 8 OFFCURVE",
"115 36 CURVE SMOOTH",
"115 60 OFFCURVE",
"114 96 OFFCURVE",
"111 142 CURVE SMOOTH",
"109 188 OFFCURVE",
"107 223 OFFCURVE",
"107 245 CURVE",
"189 290 OFFCURVE",
"232 374 OFFCURVE",
"232 471 CURVE SMOOTH",
"232 499 OFFCURVE",
"228 526 OFFCURVE",
"220 553 CURVE SMOOTH",
"202 605 OFFCURVE",
"161 653 OFFCURVE",
"104 661 CURVE",
"104 663 OFFCURVE",
"104 668 OFFCURVE",
"105 676 CURVE SMOOTH",
"105 684 OFFCURVE",
"105 690 OFFCURVE",
"105 695 CURVE SMOOTH",
"105 736 OFFCURVE",
"94 756 OFFCURVE",
"71 756 CURVE SMOOTH",
"55 756 OFFCURVE",
"46 746 OFFCURVE",
"46 726 CURVE",
"47 633 LINE",
"47 566 OFFCURVE",
"49 465 OFFCURVE",
"53 331 CURVE SMOOTH",
"56 196 OFFCURVE",
"58 95 OFFCURVE",
"58 28 CURVE SMOOTH",
"58 11 OFFCURVE",
"66 -5 OFFCURVE",
"82 -5 CURVE SMOOTH"
);
},
{
closed = 1;
nodes = (
"105 329 OFFCURVE",
"104 381 OFFCURVE",
"104 452 CURVE SMOOTH",
"104 522 OFFCURVE",
"103 575 OFFCURVE",
"103 610 CURVE",
"106 610 LINE",
"129 592 OFFCURVE",
"145 577 OFFCURVE",
"154 567 CURVE",
"172 545 OFFCURVE",
"181 520 OFFCURVE",
"181 463 CURVE SMOOTH",
"181 394 OFFCURVE",
"156 342 OFFCURVE",
"105 293 CURVE"
);
}
);
width = 262;
}
);
note = Thorn;
unicode = 00DE;
},
{
glyphname = Q;
layers = (
{
layerId = "27A8C2A5-6B67-4598-967C-E5EC4FB8AE70";
paths = (
{
closed = 1;
nodes = (
"317 -138 OFFCURVE",
"330 -132 OFFCURVE",
"330 -119 CURVE SMOOTH",
"330 -110 OFFCURVE",
"319 -106 OFFCURVE",
"298 -106 CURVE SMOOTH",
"294 -106 LINE SMOOTH",
"284 -106 OFFCURVE",
"275 -102 OFFCURVE",
"269 -94 CURVE SMOOTH",
"257 -78 OFFCURVE",
"256 -60 OFFCURVE",
"253 -34 CURVE SMOOTH",
"252 -21 OFFCURVE",
"251 -12 OFFCURVE",
"250 -7 CURVE",
"249 -5 OFFCURVE",
"247 0 OFFCURVE",
"245 7 CURVE",
"242 15 OFFCURVE",
"240 21 OFFCURVE",
"240 26 CURVE",
"281 85 OFFCURVE",
"302 173 OFFCURVE",
"302 290 CURVE SMOOTH",
"302 447 OFFCURVE",
"292 576 OFFCURVE",
"274 679 CURVE SMOOTH",
"267 725 OFFCURVE",
"211 770 OFFCURVE",
"165 770 CURVE SMOOTH",
"141 770 OFFCURVE",
"122 757 OFFCURVE",
"108 732 CURVE SMOOTH",
"94 708 OFFCURVE",
"84 679 OFFCURVE",
"77 638 CURVE SMOOTH",
"70 596 OFFCURVE",
"66 560 OFFCURVE",
"64 510 CURVE SMOOTH",
"62 459 OFFCURVE",
"61 424 OFFCURVE",
"61 374 CURVE SMOOTH",
"61 362 OFFCURVE",
"61 346 OFFCURVE",
"62 325 CURVE",
"62 304 OFFCURVE",
"62 289 OFFCURVE",
"62 280 CURVE SMOOTH",
"62 263 OFFCURVE",
"62 248 OFFCURVE",
"63 235 CURVE SMOOTH",
"63 209 OFFCURVE",
"67 164 OFFCURVE",
"75 135 CURVE SMOOTH",
"83 106 OFFCURVE",
"98 70 OFFCURVE",
"118 49 CURVE SMOOTH",
"138 28 OFFCURVE",
"169 13 OFFCURVE",
"208 13 CURVE",
"211 6 OFFCURVE",
"214 -10 OFFCURVE",
"218 -35 CURVE SMOOTH",
"226 -84 OFFCURVE",
"236 -114 OFFCURVE",
"262 -125 CURVE",
"263 -125 OFFCURVE",
"268 -127 OFFCURVE",
"276 -132 CURVE SMOOTH",
"284 -136 OFFCURVE",
"289 -138 OFFCURVE",
"292 -138 CURVE SMOOTH"
);
},
{
closed = 1;
nodes = (
"180 39 OFFCURVE",
"164 46 OFFCURVE",
"151 59 CURVE SMOOTH",
"124 86 OFFCURVE",
"111 124 OFFCURVE",
"102 173 CURVE SMOOTH",
"92 221 OFFCURVE",
"90 257 OFFCURVE",
"90 288 CURVE SMOOTH",
"90 348 LINE SMOOTH",
"90 367 OFFCURVE",
"90 388 OFFCURVE",
"91 410 CURVE SMOOTH",
"92 454 OFFCURVE",
"95 524 OFFCURVE",
"102 580 CURVE SMOOTH",
"109 636 OFFCURVE",
"118 690 OFFCURVE",
"135 720 CURVE SMOOTH",
"143 735 OFFCURVE",
"152 742 OFFCURVE",
"163 742 CURVE SMOOTH",
"187 742 OFFCURVE",
"208 732 OFFCURVE",
"221 713 CURVE SMOOTH",
"235 693 OFFCURVE",
"246 672 OFFCURVE",
"252 641 CURVE SMOOTH",
"258 609 OFFCURVE",
"263 585 OFFCURVE",
"265 549 CURVE SMOOTH",
"266 512 OFFCURVE",
"267 493 OFFCURVE",
"267 459 CURVE SMOOTH",
"267 433 LINE SMOOTH",
"267 296 OFFCURVE",
"261 196 OFFCURVE",
"250 133 CURVE SMOOTH",
"239 70 OFFCURVE",
"221 39 OFFCURVE",
"197 39 CURVE SMOOTH"
);
}
);
width = 369;
},
{
layerId = "156B637B-193E-48A3-AAC8-7B4A3960F885";
paths = (
{
closed = 1;
nodes = (
"319 -138 OFFCURVE",
"334 -127 OFFCURVE",
"334 -107 CURVE SMOOTH",
"334 -96 OFFCURVE",
"329 -88 OFFCURVE",
"319 -85 CURVE SMOOTH",
"309 -83 OFFCURVE",
"303 -83 OFFCURVE",
"291 -83 CURVE SMOOTH",
"287 -83 LINE SMOOTH",
"277 -83 OFFCURVE",
"268 -68 OFFCURVE",
"262 -47 CURVE SMOOTH",
"255 -26 OFFCURVE",
"252 -7 OFFCURVE",
"249 14 CURVE SMOOTH",
"247 25 OFFCURVE",
"245 32 OFFCURVE",
"245 34 CURVE",
"298 108 OFFCURVE",
"306 164 OFFCURVE",
"306 277 CURVE SMOOTH",
"306 322 LINE SMOOTH",
"306 331 OFFCURVE",
"306 347 OFFCURVE",
"307 370 CURVE SMOOTH",
"307 393 OFFCURVE",
"307 411 OFFCURVE",
"307 424 CURVE SMOOTH",
"307 449 OFFCURVE",
"307 472 OFFCURVE",
"306 493 CURVE SMOOTH",
"305 533 OFFCURVE",
"299 588 OFFCURVE",
"292 625 CURVE SMOOTH",
"283 663 OFFCURVE",
"268 705 OFFCURVE",
"248 729 CURVE SMOOTH",
"227 752 OFFCURVE",
"196 770 OFFCURVE",
"158 770 CURVE SMOOTH",
"145 770 OFFCURVE",
"132 767 OFFCURVE",
"121 761 CURVE SMOOTH",
"99 749 OFFCURVE",
"84 730 OFFCURVE",
"73 701 CURVE SMOOTH",
"62 672 OFFCURVE",
"56 646 OFFCURVE",
"52 610 CURVE SMOOTH",
"48 574 OFFCURVE",
"48 547 OFFCURVE",
"48 514 CURVE SMOOTH",
"48 503 OFFCURVE",
"48 490 OFFCURVE",
"48 475 CURVE SMOOTH",
"49 458 OFFCURVE",
"49 448 OFFCURVE",
"49 443 CURVE SMOOTH",
"49 425 OFFCURVE",
"48 398 OFFCURVE",
"46 362 CURVE SMOOTH",
"45 326 OFFCURVE",
"44 298 OFFCURVE",
"44 280 CURVE SMOOTH",
"44 257 OFFCURVE",
"44 236 OFFCURVE",
"46 218 CURVE SMOOTH",
"48 181 OFFCURVE",
"57 135 OFFCURVE",
"73 102 CURVE SMOOTH",
"88 68 OFFCURVE",
"115 34 OFFCURVE",
"151 10 CURVE",
"192 10 LINE",
"194 4 OFFCURVE",
"195 -5 OFFCURVE",
"197 -18 CURVE SMOOTH",
"201 -43 OFFCURVE",
"204 -58 OFFCURVE",
"210 -79 CURVE SMOOTH",
"217 -100 OFFCURVE",
"230 -115 OFFCURVE",
"248 -123 CURVE",
"248 -124 LINE",
"264 -133 OFFCURVE",
"278 -138 OFFCURVE",
"290 -138 CURVE SMOOTH"
);
},
{
closed = 1;
nodes = (
"159 42 OFFCURVE",
"137 65 OFFCURVE",
"124 102 CURVE SMOOTH",
"111 138 OFFCURVE",
"102 175 OFFCURVE",
"98 220 CURVE SMOOTH",
"94 265 OFFCURVE",
"93 291 OFFCURVE",
"93 319 CURVE SMOOTH",
"93 345 OFFCURVE",
"94 375 OFFCURVE",
"95 410 CURVE SMOOTH",
"97 479 OFFCURVE",
"103 600 OFFCURVE",
"120 668 CURVE SMOOTH",
"128 703 OFFCURVE",
"138 720 OFFCURVE",
"150 720 CURVE SMOOTH",
"163 720 OFFCURVE",
"175 716 OFFCURVE",
"186 709 CURVE SMOOTH",
"207 695 OFFCURVE",
"220 675 OFFCURVE",
"230 641 CURVE SMOOTH",
"240 606 OFFCURVE",
"245 578 OFFCURVE",
"248 536 CURVE SMOOTH",
"251 493 OFFCURVE",
"251 468 OFFCURVE",
"251 429 CURVE SMOOTH",
"251 160 LINE SMOOTH",
"251 111 OFFCURVE",
"239 75 OFFCURVE",
"214 52 CURVE",
"214 53 LINE",
"201 53 OFFCURVE",
"191 48 OFFCURVE",
"187 40 CURVE",
"187 39 LINE"
);
}
);
width = 398;
}
);
leftMetricsKey = O;
note = Q;
unicode = 0051;
},
{
glyphname = R;
layers = (
{
anchors = (
{
name = bottom;
position = "{142, 0}";
},
{
name = top;
position = "{107, 754}";
}
);
layerId = "27A8C2A5-6B67-4598-967C-E5EC4FB8AE70";
paths = (
{
closed = 1;
nodes = (
"253 -10 OFFCURVE",
"258 0 OFFCURVE",
"258 12 CURVE SMOOTH",
"258 16 OFFCURVE",
"258 20 OFFCURVE",
"257 23 CURVE SMOOTH",
"250 48 OFFCURVE",
"155 420 OFFCURVE",
"149 440 CURVE",
"159 451 OFFCURVE",
"174 485 OFFCURVE",
"180 501 CURVE SMOOTH",
"193 536 OFFCURVE",
"200 569 OFFCURVE",
"200 601 CURVE SMOOTH",
"200 640 OFFCURVE",
"190 677 OFFCURVE",
"173 708 CURVE SMOOTH",
"156 739 OFFCURVE",
"125 760 OFFCURVE",
"89 760 CURVE SMOOTH",
"77 760 OFFCURVE",
"71 757 OFFCURVE",
"71 751 CURVE SMOOTH",
"71 622 LINE SMOOTH",
"71 555 OFFCURVE",
"70 455 OFFCURVE",
"67 324 CURVE SMOOTH",
"65 192 OFFCURVE",
"63 92 OFFCURVE",
"63 25 CURVE SMOOTH",
"63 10 LINE SMOOTH",
"63 0 OFFCURVE",
"71 -7 OFFCURVE",
"81 -7 CURVE SMOOTH",
"93 -7 OFFCURVE",
"99 0 OFFCURVE",
"99 13 CURVE SMOOTH",
"99 28 LINE",
"97 413 LINE",
"99 414 OFFCURVE",
"104 416 OFFCURVE",
"110 419 CURVE",
"116 423 OFFCURVE",
"120 425 OFFCURVE",
"120 425 CURVE",
"127 399 OFFCURVE",
"136 360 OFFCURVE",
"146 308 CURVE SMOOTH",
"156 256 OFFCURVE",
"163 224 OFFCURVE",
"166 211 CURVE SMOOTH",
"174 172 OFFCURVE",
"192 104 OFFCURVE",
"207 54 CURVE SMOOTH",
"214 29 OFFCURVE",
"218 14 OFFCURVE",
"219 10 CURVE",
"222 -3 OFFCURVE",
"230 -10 OFFCURVE",
"244 -10 CURVE SMOOTH"
);
},
{
closed = 1;
nodes = (
"96 728 LINE",
"97 728 OFFCURVE",
"98 728 OFFCURVE",
"99 729 CURVE",
"100 729 OFFCURVE",
"101 729 OFFCURVE",
"101 729 CURVE SMOOTH",
"125 729 OFFCURVE",
"144 705 OFFCURVE",
"153 673 CURVE SMOOTH",
"163 642 OFFCURVE",
"167 612 OFFCURVE",
"167 589 CURVE SMOOTH",
"167 561 OFFCURVE",
"160 516 OFFCURVE",
"150 497 CURVE SMOOTH",
"141 481 OFFCURVE",
"108 446 OFFCURVE",
"96 446 CURVE"
);
}
);
width = 283;
},
{
anchors = (
{
name = bottom;
position = "{145, 0}";
},
{
name = top;
position = "{91, 758}";
}
);
layerId = "156B637B-193E-48A3-AAC8-7B4A3960F885";
paths = (
{
closed = 1;
nodes = (
"256 -10 OFFCURVE",
"264 -5 OFFCURVE",
"266 6 CURVE SMOOTH",
"269 18 OFFCURVE",
"269 21 OFFCURVE",
"269 35 CURVE SMOOTH",
"269 37 LINE",
"265 49 OFFCURVE",
"255 79 OFFCURVE",
"240 125 CURVE SMOOTH",
"224 172 OFFCURVE",
"212 208 OFFCURVE",
"204 235 CURVE SMOOTH",
"188 288 OFFCURVE",
"167 375 OFFCURVE",
"166 428 CURVE",
"167 430 OFFCURVE",
"170 439 OFFCURVE",
"176 454 CURVE SMOOTH",
"182 468 OFFCURVE",
"186 478 OFFCURVE",
"188 482 CURVE",
"191 492 OFFCURVE",
"203 523 OFFCURVE",
"206 538 CURVE SMOOTH",
"208 553 OFFCURVE",
"212 575 OFFCURVE",
"212 594 CURVE SMOOTH",
"212 609 OFFCURVE",
"211 625 OFFCURVE",
"208 640 CURVE SMOOTH",
"202 671 OFFCURVE",
"188 701 OFFCURVE",
"168 724 CURVE SMOOTH",
"149 746 OFFCURVE",
"120 760 OFFCURVE",
"86 760 CURVE SMOOTH",
"64 760 OFFCURVE",
"60 754 OFFCURVE",
"60 739 CURVE SMOOTH",
"60 616 LINE SMOOTH",
"60 551 OFFCURVE",
"60 453 OFFCURVE",
"58 323 CURVE SMOOTH",
"57 192 OFFCURVE",
"56 94 OFFCURVE",
"56 29 CURVE SMOOTH",
"56 21 LINE SMOOTH",
"56 6 OFFCURVE",
"66 -6 OFFCURVE",
"82 -6 CURVE SMOOTH",
"104 -6 OFFCURVE",
"109 5 OFFCURVE",
"109 25 CURVE SMOOTH",
"109 419 LINE",
"116 393 OFFCURVE",
"128 351 OFFCURVE",
"146 295 CURVE SMOOTH",
"181 183 OFFCURVE",
"204 95 OFFCURVE",
"208 20 CURVE",
"208 17 LINE",
"220 -1 OFFCURVE",
"232 -10 OFFCURVE",
"245 -10 CURVE SMOOTH"
);
},
{
closed = 1;
nodes = (
"106 475 OFFCURVE",
"106 490 OFFCURVE",
"106 510 CURVE SMOOTH",
"106 534 OFFCURVE",
"107 569 OFFCURVE",
"109 614 CURVE SMOOTH",
"110 660 OFFCURVE",
"111 693 OFFCURVE",
"111 714 CURVE",
"125 712 OFFCURVE",
"138 693 OFFCURVE",
"146 670 CURVE SMOOTH",
"153 646 OFFCURVE",
"157 622 OFFCURVE",
"157 603 CURVE SMOOTH",
"157 598 OFFCURVE",
"157 594 OFFCURVE",
"156 589 CURVE",
"141 503 LINE",
"129 488 OFFCURVE",
"118 475 OFFCURVE",
"107 464 CURVE"
);
}
);
width = 289;
}
);
note = R;
unicode = 0052;
},
{
glyphname = S;
layers = (
{
anchors = (
{
name = bottom;
position = "{127, -15}";
},
{
name = top;
position = "{152, 754}";
}
);
layerId = "27A8C2A5-6B67-4598-967C-E5EC4FB8AE70";
paths = (
{
closed = 1;
nodes = (
"156 -22 OFFCURVE",
"191 5 OFFCURVE",
"210 43 CURVE SMOOTH",
"229 81 OFFCURVE",
"240 124 OFFCURVE",
"240 161 CURVE SMOOTH",
"240 191 OFFCURVE",
"236 221 OFFCURVE",
"229 251 CURVE SMOOTH",
"215 312 OFFCURVE",
"192 354 OFFCURVE",
"167 406 CURVE SMOOTH",
"155 432 OFFCURVE",
"143 456 OFFCURVE",
"132 479 CURVE SMOOTH",
"111 524 OFFCURVE",
"95 583 OFFCURVE",
"95 637 CURVE SMOOTH",
"95 652 OFFCURVE",
"97 668 OFFCURVE",
"102 683 CURVE SMOOTH",
"112 714 OFFCURVE",
"136 742 OFFCURVE",
"168 742 CURVE SMOOTH",
"172 742 OFFCURVE",
"178 741 OFFCURVE",
"185 737 CURVE SMOOTH",
"191 734 OFFCURVE",
"196 732 OFFCURVE",
"201 732 CURVE SMOOTH",
"205 732 OFFCURVE",
"207 734 OFFCURVE",
"207 740 CURVE SMOOTH",
"207 753 OFFCURVE",
"175 768 OFFCURVE",
"161 768 CURVE SMOOTH",
"139 768 OFFCURVE",
"121 760 OFFCURVE",
"105 745 CURVE SMOOTH",
"73 714 OFFCURVE",
"61 670 OFFCURVE",
"61 629 CURVE SMOOTH",
"61 597 OFFCURVE",
"65 564 OFFCURVE",
"75 532 CURVE SMOOTH",
"95 467 OFFCURVE",
"125 415 OFFCURVE",
"153 359 CURVE SMOOTH",
"182 304 OFFCURVE",
"204 234 OFFCURVE",
"204 166 CURVE SMOOTH",
"204 138 OFFCURVE",
"197 102 OFFCURVE",
"184 65 CURVE SMOOTH",
"171 28 OFFCURVE",
"146 0 OFFCURVE",
"115 0 CURVE SMOOTH",
"108 0 OFFCURVE",
"100 2 OFFCURVE",
"88 8 CURVE",
"76 13 OFFCURVE",
"66 15 OFFCURVE",
"60 15 CURVE SMOOTH",
"52 15 OFFCURVE",
"49 11 OFFCURVE",
"49 3 CURVE",
"53 -4 OFFCURVE",
"59 -10 OFFCURVE",
"67 -14 CURVE SMOOTH",
"83 -22 OFFCURVE",
"94 -22 OFFCURVE",
"115 -22 CURVE SMOOTH"
);
}
);
width = 303;
},
{
anchors = (
{
name = bottom;
position = "{110, 0}";
},
{
name = top;
position = "{144, 777}";
}
);
background = {
paths = (
{
closed = 1;
nodes = (
"156 -22 OFFCURVE",
"191 5 OFFCURVE",
"210 43 CURVE SMOOTH",
"229 81 OFFCURVE",
"240 124 OFFCURVE",
"240 161 CURVE SMOOTH",
"240 191 OFFCURVE",
"236 221 OFFCURVE",
"229 251 CURVE SMOOTH",
"215 312 OFFCURVE",
"192 354 OFFCURVE",
"167 406 CURVE SMOOTH",
"155 432 OFFCURVE",
"143 456 OFFCURVE",
"132 479 CURVE SMOOTH",
"111 524 OFFCURVE",
"95 583 OFFCURVE",
"95 637 CURVE SMOOTH",
"95 652 OFFCURVE",
"97 668 OFFCURVE",
"102 683 CURVE SMOOTH",
"112 714 OFFCURVE",
"136 742 OFFCURVE",
"168 742 CURVE SMOOTH",
"172 742 OFFCURVE",
"178 741 OFFCURVE",
"185 737 CURVE SMOOTH",
"191 734 OFFCURVE",
"196 732 OFFCURVE",
"201 732 CURVE SMOOTH",
"205 732 OFFCURVE",
"207 734 OFFCURVE",
"207 740 CURVE SMOOTH",
"207 753 OFFCURVE",
"175 768 OFFCURVE",
"161 768 CURVE SMOOTH",
"139 768 OFFCURVE",
"121 760 OFFCURVE",
"105 745 CURVE SMOOTH",
"73 714 OFFCURVE",
"61 670 OFFCURVE",
"61 629 CURVE SMOOTH",
"61 597 OFFCURVE",
"65 564 OFFCURVE",
"75 532 CURVE SMOOTH",
"95 467 OFFCURVE",
"125 415 OFFCURVE",
"153 359 CURVE SMOOTH",
"182 304 OFFCURVE",
"204 234 OFFCURVE",
"204 166 CURVE SMOOTH",
"204 138 OFFCURVE",
"197 102 OFFCURVE",
"184 65 CURVE SMOOTH",
"171 28 OFFCURVE",
"146 0 OFFCURVE",
"115 0 CURVE SMOOTH",
"108 0 OFFCURVE",
"100 2 OFFCURVE",
"88 8 CURVE",
"76 13 OFFCURVE",
"66 15 OFFCURVE",
"60 15 CURVE SMOOTH",
"52 15 OFFCURVE",
"49 11 OFFCURVE",
"49 3 CURVE",
"53 -4 OFFCURVE",
"59 -10 OFFCURVE",
"67 -14 CURVE SMOOTH",
"83 -22 OFFCURVE",
"94 -22 OFFCURVE",
"115 -22 CURVE SMOOTH"
);
}
);
};
layerId = "156B637B-193E-48A3-AAC8-7B4A3960F885";
paths = (
{
closed = 1;
nodes = (
"162 -22 OFFCURVE",
"199 5 OFFCURVE",
"221 43 CURVE SMOOTH",
"242 81 OFFCURVE",
"253 125 OFFCURVE",
"253 167 CURVE SMOOTH",
"253 229 OFFCURVE",
"237 292 OFFCURVE",
"216 338 CURVE SMOOTH",
"194 383 OFFCURVE",
"167 436 OFFCURVE",
"146 478 CURVE SMOOTH",
"125 521 OFFCURVE",
"108 577 OFFCURVE",
"108 630 CURVE SMOOTH",
"108 642 OFFCURVE",
"110 655 OFFCURVE",
"114 668 CURVE SMOOTH",
"122 693 OFFCURVE",
"141 718 OFFCURVE",
"166 721 CURVE",
"175 714 OFFCURVE",
"188 711 OFFCURVE",
"205 711 CURVE",
"222 732 LINE",
"212 754 OFFCURVE",
"187 769 OFFCURVE",
"163 769 CURVE SMOOTH",
"139 769 OFFCURVE",
"118 761 OFFCURVE",
"101 745 CURVE SMOOTH",
"66 714 OFFCURVE",
"51 668 OFFCURVE",
"51 623 CURVE SMOOTH",
"51 593 OFFCURVE",
"56 562 OFFCURVE",
"66 530 CURVE SMOOTH",
"85 466 OFFCURVE",
"116 412 OFFCURVE",
"144 356 CURVE SMOOTH",
"172 300 OFFCURVE",
"194 233 OFFCURVE",
"194 173 CURVE SMOOTH",
"194 150 OFFCURVE",
"188 116 OFFCURVE",
"176 83 CURVE SMOOTH",
"165 49 OFFCURVE",
"143 23 OFFCURVE",
"117 23 CURVE SMOOTH",
"112 23 OFFCURVE",
"104 26 OFFCURVE",
"91 31 CURVE SMOOTH",
"79 36 OFFCURVE",
"69 39 OFFCURVE",
"62 39 CURVE SMOOTH",
"46 39 OFFCURVE",
"39 27 OFFCURVE",
"39 12 CURVE SMOOTH",
"39 3 OFFCURVE",
"44 -3 OFFCURVE",
"55 -9 CURVE SMOOTH",
"77 -20 OFFCURVE",
"99 -22 OFFCURVE",
"117 -22 CURVE SMOOTH"
);
}
);
width = 307;
}
);
note = S;
unicode = 0053;
},
{
glyphname = Schwa;
layers = (
{
layerId = "27A8C2A5-6B67-4598-967C-E5EC4FB8AE70";
paths = (
{
closed = 1;
nodes = (
"228 -3 OFFCURVE",
"244 -2 OFFCURVE",
"259 1 CURVE",
"275 7 OFFCURVE",
"289 15 OFFCURVE",
"302 23 CURVE SMOOTH",
"330 40 OFFCURVE",
"344 65 OFFCURVE",
"357 97 CURVE SMOOTH",
"370 128 OFFCURVE",
"376 154 OFFCURVE",
"379 196 CURVE SMOOTH",
"382 236 OFFCURVE",
"383 262 OFFCURVE",
"383 305 CURVE SMOOTH",
"383 362 LINE",
"383 487 LINE SMOOTH",
"383 535 OFFCURVE",
"378 579 OFFCURVE",
"366 617 CURVE SMOOTH",
"342 694 OFFCURVE",
"291 745 OFFCURVE",
"226 745 CURVE SMOOTH",
"181 745 OFFCURVE",
"135 718 OFFCURVE",
"78 680 CURVE SMOOTH",
"75 678 OFFCURVE",
"76 675 OFFCURVE",
"78 673 CURVE",
"81 670 OFFCURVE",
"87 668 OFFCURVE",
"94 668 CURVE",
"140 698 OFFCURVE",
"181 713 OFFCURVE",
"218 713 CURVE SMOOTH",
"301 713 OFFCURVE",
"346 630 OFFCURVE",
"346 503 CURVE SMOOTH",
"346 474 OFFCURVE",
"346 445 OFFCURVE",
"345 416 CURVE",
"197 416 LINE SMOOTH",
"106 416 OFFCURVE",
"62 353 OFFCURVE",
"62 244 CURVE SMOOTH",
"62 214 LINE SMOOTH",
"62 68 OFFCURVE",
"104 -3 OFFCURVE",
"213 -3 CURVE SMOOTH"
);
},
{
closed = 1;
nodes = (
"130 33 OFFCURVE",
"99 80 OFFCURVE",
"99 196 CURVE SMOOTH",
"99 220 OFFCURVE",
"100 243 OFFCURVE",
"102 264 CURVE SMOOTH",
"106 304 OFFCURVE",
"109 329 OFFCURVE",
"120 347 CURVE SMOOTH",
"131 365 OFFCURVE",
"137 374 OFFCURVE",
"153 379 CURVE SMOOTH",
"168 384 OFFCURVE",
"175 384 OFFCURVE",
"194 384 CURVE SMOOTH",
"344 384 LINE",
"343 352 OFFCURVE",
"342 318 OFFCURVE",
"342 285 CURVE SMOOTH",
"342 281 LINE SMOOTH",
"342 250 OFFCURVE",
"335 198 OFFCURVE",
"318 139 CURVE SMOOTH",
"301 81 OFFCURVE",
"269 33 OFFCURVE",
"227 33 CURVE SMOOTH"
);
}
);
width = 446;
},
{
layerId = "156B637B-193E-48A3-AAC8-7B4A3960F885";
paths = (
{
closed = 1;
nodes = (
"322 -10 OFFCURVE",
"397 105 OFFCURVE",
"397 314 CURVE SMOOTH",
"397 498 LINE SMOOTH",
"397 549 OFFCURVE",
"390 595 OFFCURVE",
"377 635 CURVE SMOOTH",
"350 717 OFFCURVE",
"297 771 OFFCURVE",
"224 771 CURVE SMOOTH",
"175 771 OFFCURVE",
"122 748 OFFCURVE",
"65 702 CURVE",
"61 699 OFFCURVE",
"58 695 OFFCURVE",
"57 691 CURVE",
"57 688 LINE SMOOTH",
"57 675 OFFCURVE",
"63 661 OFFCURVE",
"76 661 CURVE SMOOTH",
"80 661 OFFCURVE",
"83 662 OFFCURVE",
"85 665 CURVE",
"141 718 OFFCURVE",
"183 734 OFFCURVE",
"215 734 CURVE SMOOTH",
"290 734 OFFCURVE",
"333 637 OFFCURVE",
"333 515 CURVE SMOOTH",
"333 494 OFFCURVE",
"333 467 OFFCURVE",
"332 432 CURVE",
"195 438 LINE",
"188 438 LINE SMOOTH",
"93 438 OFFCURVE",
"44 365 OFFCURVE",
"44 252 CURVE SMOOTH",
"44 221 LINE SMOOTH",
"44 68 OFFCURVE",
"92 -10 OFFCURVE",
"210 -10 CURVE SMOOTH"
);
},
{
closed = 1;
nodes = (
"136 29 OFFCURVE",
"107 87 OFFCURVE",
"107 202 CURVE SMOOTH",
"107 236 OFFCURVE",
"109 264 OFFCURVE",
"111 287 CURVE SMOOTH",
"115 333 OFFCURVE",
"124 367 OFFCURVE",
"141 380 CURVE SMOOTH",
"158 393 OFFCURVE",
"167 394 OFFCURVE",
"191 394 CURVE SMOOTH",
"331 394 LINE",
"330 364 OFFCURVE",
"329 323 OFFCURVE",
"329 293 CURVE SMOOTH",
"329 289 LINE SMOOTH",
"329 131 OFFCURVE",
"294 52 OFFCURVE",
"225 33 CURVE SMOOTH",
"214 30 OFFCURVE",
"204 29 OFFCURVE",
"196 29 CURVE SMOOTH"
);
}
);
width = 446;
},
{
associatedMasterId = "27A8C2A5-6B67-4598-967C-E5EC4FB8AE70";
components = (
{
name = estimated;
transform = "{-1, 0, 0, -1, 445, 678}";
}
);
layerId = "C0AA1D28-4EA9-4951-8427-5F911181BADF";
name = "Oct 18 17, 14:40";
width = 446;
}
);
unicode = 018F;
},
{
glyphname = T;
layers = (
{
anchors = (
{
name = bottom;
position = "{160, 0}";
},
{
name = center;
position = "{160, 377}";
},
{
name = top;
position = "{160, 754}";
}
);
layerId = "27A8C2A5-6B67-4598-967C-E5EC4FB8AE70";
paths = (
{
closed = 1;
nodes = (
"169 -6 OFFCURVE",
"173 -4 OFFCURVE",
"175 -1 CURVE SMOOTH",
"180 4 OFFCURVE",
"180 9 OFFCURVE",
"180 21 CURVE SMOOTH",
"180 23 LINE SMOOTH",
"180 27 OFFCURVE",
"180 52 OFFCURVE",
"179 97 CURVE SMOOTH",
"179 143 OFFCURVE",
"179 170 OFFCURVE",
"179 180 CURVE SMOOTH",
"179 586 LINE SMOOTH",
"179 603 OFFCURVE",
"179 629 OFFCURVE",
"179 664 CURVE SMOOTH",
"178 698 OFFCURVE",
"178 718 OFFCURVE",
"178 722 CURVE",
"178 722 LINE",
"187 723 LINE",
"190 723 OFFCURVE",
"206 723 OFFCURVE",
"231 723 CURVE SMOOTH",
"257 723 OFFCURVE",
"272 723 OFFCURVE",
"276 723 CURVE SMOOTH",
"289 723 OFFCURVE",
"295 728 OFFCURVE",
"295 738 CURVE SMOOTH",
"295 749 OFFCURVE",
"291 755 OFFCURVE",
"274 755 CURVE SMOOTH",
"260 755 OFFCURVE",
"223 755 OFFCURVE",
"164 754 CURVE SMOOTH",
"105 754 OFFCURVE",
"72 754 OFFCURVE",
"64 754 CURVE SMOOTH",
"46 754 OFFCURVE",
"33 753 OFFCURVE",
"24 751 CURVE",
"6 748 OFFCURVE",
"5 744 OFFCURVE",
"5 735 CURVE SMOOTH",
"5 725 OFFCURVE",
"16 720 OFFCURVE",
"26 720 CURVE SMOOTH",
"139 720 LINE SMOOTH",
"140 720 OFFCURVE",
"141 684 OFFCURVE",
"141 612 CURVE SMOOTH",
"141 585 OFFCURVE",
"141 563 OFFCURVE",
"141 547 CURVE SMOOTH",
"140 531 OFFCURVE",
"140 521 OFFCURVE",
"140 518 CURVE SMOOTH",
"140 482 OFFCURVE",
"141 429 OFFCURVE",
"143 358 CURVE SMOOTH",
"144 287 OFFCURVE",
"145 233 OFFCURVE",
"145 198 CURVE SMOOTH",
"145 109 LINE SMOOTH",
"145 67 OFFCURVE",
"145 38 OFFCURVE",
"145 20 CURVE SMOOTH",
"145 6 OFFCURVE",
"151 -6 OFFCURVE",
"165 -6 CURVE SMOOTH"
);
}
);
width = 319;
},
{
anchors = (
{
name = bottom;
position = "{131, 0}";
},
{
name = center;
position = "{131, 379}";
},
{
name = top;
position = "{131, 758}";
}
);
layerId = "156B637B-193E-48A3-AAC8-7B4A3960F885";
paths = (
{
closed = 1;
nodes = (
"154 -7 OFFCURVE",
"164 9 OFFCURVE",
"164 42 CURVE SMOOTH",
"164 62 OFFCURVE",
"163 92 OFFCURVE",
"160 132 CURVE SMOOTH",
"157 171 OFFCURVE",
"156 202 OFFCURVE",
"156 222 CURVE SMOOTH",
"156 248 OFFCURVE",
"154 287 OFFCURVE",
"151 337 CURVE SMOOTH",
"148 387 OFFCURVE",
"147 426 OFFCURVE",
"147 452 CURVE SMOOTH",
"147 466 OFFCURVE",
"147 488 OFFCURVE",
"148 517 CURVE SMOOTH",
"148 545 OFFCURVE",
"149 566 OFFCURVE",
"149 581 CURVE SMOOTH",
"149 624 OFFCURVE",
"146 665 OFFCURVE",
"142 704 CURVE",
"145 704 OFFCURVE",
"148 704 OFFCURVE",
"152 704 CURVE SMOOTH",
"156 704 OFFCURVE",
"162 704 OFFCURVE",
"170 703 CURVE SMOOTH",
"178 703 OFFCURVE",
"184 702 OFFCURVE",
"188 702 CURVE SMOOTH",
"205 702 OFFCURVE",
"218 712 OFFCURVE",
"218 729 CURVE SMOOTH",
"218 745 OFFCURVE",
"202 757 OFFCURVE",
"186 757 CURVE SMOOTH",
"175 757 OFFCURVE",
"162 756 OFFCURVE",
"145 755 CURVE SMOOTH",
"111 753 OFFCURVE",
"58 749 OFFCURVE",
"26 738 CURVE SMOOTH",
"10 732 OFFCURVE",
"2 725 OFFCURVE",
"2 717 CURVE SMOOTH",
"2 701 OFFCURVE",
"18 690 OFFCURVE",
"35 690 CURVE SMOOTH",
"42 690 OFFCURVE",
"51 691 OFFCURVE",
"63 692 CURVE SMOOTH",
"76 694 OFFCURVE",
"84 695 OFFCURVE",
"89 695 CURVE",
"96 681 OFFCURVE",
"99 650 OFFCURVE",
"99 602 CURVE SMOOTH",
"99 589 OFFCURVE",
"99 573 OFFCURVE",
"98 553 CURVE SMOOTH",
"98 533 OFFCURVE",
"97 520 OFFCURVE",
"97 515 CURVE SMOOTH",
"97 480 OFFCURVE",
"100 428 OFFCURVE",
"104 359 CURVE SMOOTH",
"108 290 OFFCURVE",
"111 238 OFFCURVE",
"111 203 CURVE SMOOTH",
"111 186 OFFCURVE",
"109 159 OFFCURVE",
"107 124 CURVE SMOOTH",
"104 88 OFFCURVE",
"103 62 OFFCURVE",
"103 43 CURVE SMOOTH",
"103 18 OFFCURVE",
"113 -7 OFFCURVE",
"135 -7 CURVE SMOOTH"
);
}
);
width = 262;
}
);
note = T;
unicode = 0054;
},
{
glyphname = Tbar;
layers = (
{
layerId = "27A8C2A5-6B67-4598-967C-E5EC4FB8AE70";
paths = (
{
closed = 1;
nodes = (
"196 -6 OFFCURVE",
"202 7 OFFCURVE",
"202 33 CURVE SMOOTH",
"202 58 OFFCURVE",
"201 97 OFFCURVE",
"199 149 CURVE SMOOTH",
"198 201 OFFCURVE",
"197 240 OFFCURVE",
"197 266 CURVE SMOOTH",
"197 275 OFFCURVE",
"198 285 OFFCURVE",
"200 295 CURVE",
"196 309 OFFCURVE",
"193 324 OFFCURVE",
"191 341 CURVE",
"244 348 OFFCURVE",
"271 354 OFFCURVE",
"271 361 CURVE SMOOTH",
"271 367 OFFCURVE",
"263 372 OFFCURVE",
"256 372 CURVE SMOOTH",
"240 372 OFFCURVE",
"217 371 OFFCURVE",
"188 368 CURVE",
"187 390 OFFCURVE",
"186 422 OFFCURVE",
"186 465 CURVE SMOOTH",
"186 478 OFFCURVE",
"186 499 OFFCURVE",
"187 525 CURVE SMOOTH",
"187 552 OFFCURVE",
"187 573 OFFCURVE",
"187 586 CURVE SMOOTH",
"187 630 OFFCURVE",
"185 674 OFFCURVE",
"180 716 CURVE",
"182 723 OFFCURVE",
"189 726 OFFCURVE",
"201 726 CURVE SMOOTH",
"204 726 OFFCURVE",
"210 726 OFFCURVE",
"219 725 CURVE SMOOTH",
"228 724 OFFCURVE",
"234 723 OFFCURVE",
"238 723 CURVE SMOOTH",
"250 723 OFFCURVE",
"257 728 OFFCURVE",
"257 738 CURVE SMOOTH",
"257 747 OFFCURVE",
"246 755 OFFCURVE",
"236 755 CURVE SMOOTH",
"184 755 OFFCURVE",
"64 740 OFFCURVE",
"64 726 CURVE SMOOTH",
"64 716 OFFCURVE",
"75 709 OFFCURVE",
"85 709 CURVE SMOOTH",
"91 709 OFFCURVE",
"101 710 OFFCURVE",
"113 712 CURVE SMOOTH",
"125 714 OFFCURVE",
"135 715 OFFCURVE",
"142 715 CURVE SMOOTH",
"153 715 OFFCURVE",
"159 681 OFFCURVE",
"159 612 CURVE SMOOTH",
"159 585 OFFCURVE",
"159 563 OFFCURVE",
"158 547 CURVE SMOOTH",
"158 531 OFFCURVE",
"158 521 OFFCURVE",
"158 518 CURVE SMOOTH",
"158 479 OFFCURVE",
"160 429 OFFCURVE",
"164 366 CURVE",
"111 361 OFFCURVE",
"85 355 OFFCURVE",
"85 349 CURVE SMOOTH",
"85 341 OFFCURVE",
"96 335 OFFCURVE",
"106 335 CURVE SMOOTH",
"124 335 OFFCURVE",
"144 336 OFFCURVE",
"166 338 CURVE",
"170 276 OFFCURVE",
"172 229 OFFCURVE",
"172 198 CURVE SMOOTH",
"172 179 OFFCURVE",
"170 151 OFFCURVE",
"168 114 CURVE SMOOTH",
"166 78 OFFCURVE",
"164 51 OFFCURVE",
"164 34 CURVE SMOOTH",
"164 18 OFFCURVE",
"171 -6 OFFCURVE",
"185 -6 CURVE SMOOTH"
);
}
);
width = 352;
},
{
layerId = "156B637B-193E-48A3-AAC8-7B4A3960F885";
paths = (
{
closed = 1;
nodes = (
"218 -7 OFFCURVE",
"228 9 OFFCURVE",
"228 42 CURVE SMOOTH",
"228 62 OFFCURVE",
"226 92 OFFCURVE",
"224 132 CURVE SMOOTH",
"221 171 OFFCURVE",
"219 202 OFFCURVE",
"219 222 CURVE SMOOTH",
"219 248 OFFCURVE",
"218 287 OFFCURVE",
"215 337 CURVE SMOOTH",
"212 387 OFFCURVE",
"210 426 OFFCURVE",
"210 452 CURVE SMOOTH",
"210 466 OFFCURVE",
"211 488 OFFCURVE",
"211 517 CURVE SMOOTH",
"212 545 OFFCURVE",
"212 566 OFFCURVE",
"212 581 CURVE SMOOTH",
"212 624 OFFCURVE",
"210 665 OFFCURVE",
"206 704 CURVE",
"208 704 OFFCURVE",
"211 704 OFFCURVE",
"216 704 CURVE SMOOTH",
"220 704 OFFCURVE",
"226 704 OFFCURVE",
"233 703 CURVE SMOOTH",
"241 703 OFFCURVE",
"247 702 OFFCURVE",
"251 702 CURVE SMOOTH",
"269 702 OFFCURVE",
"282 712 OFFCURVE",
"282 729 CURVE SMOOTH",
"282 745 OFFCURVE",
"266 757 OFFCURVE",
"250 757 CURVE SMOOTH",
"239 757 OFFCURVE",
"225 756 OFFCURVE",
"208 755 CURVE SMOOTH",
"174 753 OFFCURVE",
"122 749 OFFCURVE",
"90 738 CURVE SMOOTH",
"74 732 OFFCURVE",
"66 725 OFFCURVE",
"66 717 CURVE SMOOTH",
"66 701 OFFCURVE",
"82 690 OFFCURVE",
"99 690 CURVE SMOOTH",
"105 690 OFFCURVE",
"115 691 OFFCURVE",
"127 692 CURVE SMOOTH",
"139 694 OFFCURVE",
"148 695 OFFCURVE",
"153 695 CURVE",
"159 681 OFFCURVE",
"162 650 OFFCURVE",
"162 602 CURVE SMOOTH",
"162 589 OFFCURVE",
"162 573 OFFCURVE",
"162 553 CURVE SMOOTH",
"161 533 OFFCURVE",
"161 520 OFFCURVE",
"161 515 CURVE SMOOTH",
"161 480 OFFCURVE",
"163 428 OFFCURVE",
"167 359 CURVE SMOOTH",
"172 290 OFFCURVE",
"174 238 OFFCURVE",
"174 203 CURVE SMOOTH",
"174 186 OFFCURVE",
"173 159 OFFCURVE",
"170 124 CURVE SMOOTH",
"168 88 OFFCURVE",
"167 62 OFFCURVE",
"167 43 CURVE SMOOTH",
"167 18 OFFCURVE",
"177 -7 OFFCURVE",
"199 -7 CURVE SMOOTH"
);
},
{
closed = 1;
nodes = (
"118 391 OFFCURVE",
"153 392 OFFCURVE",
"200 394 CURVE SMOOTH",
"247 395 OFFCURVE",
"282 396 OFFCURVE",
"306 396 CURVE SMOOTH",
"322 396 OFFCURVE",
"334 403 OFFCURVE",
"334 419 CURVE SMOOTH",
"334 439 OFFCURVE",
"318 449 OFFCURVE",
"286 449 CURVE SMOOTH",
"279 449 OFFCURVE",
"269 448 OFFCURVE",
"255 447 CURVE",
"241 446 OFFCURVE",
"231 445 OFFCURVE",
"224 445 CURVE SMOOTH",
"77 445 LINE SMOOTH",
"63 445 OFFCURVE",
"55 437 OFFCURVE",
"55 423 CURVE SMOOTH",
"55 402 OFFCURVE",
"68 391 OFFCURVE",
"95 391 CURVE SMOOTH"
);
}
);
width = 342;
}
);
note = Tbar;
unicode = 0166;
},
{
glyphname = U;
layers = (
{
anchors = (
{
name = bottom;
position = "{186, 0}";
},
{
name = ogonek;
position = "{249, 7}";
},
{
name = top;
position = "{157, 754}";
},
{
name = topright;
position = "{285, 729}";
}
);
layerId = "27A8C2A5-6B67-4598-967C-E5EC4FB8AE70";
paths = (
{
closed = 1;
nodes = (
"223 -19 OFFCURVE",
"237 -15 OFFCURVE",
"249 -8 CURVE SMOOTH",
"273 7 OFFCURVE",
"285 29 OFFCURVE",
"293 60 CURVE SMOOTH",
"302 91 OFFCURVE",
"303 115 OFFCURVE",
"303 144 CURVE SMOOTH",
"303 181 OFFCURVE",
"303 236 OFFCURVE",
"302 310 CURVE SMOOTH",
"300 383 OFFCURVE",
"300 440 OFFCURVE",
"300 480 CURVE SMOOTH",
"300 500 OFFCURVE",
"300 530 OFFCURVE",
"300 570 CURVE SMOOTH",
"299 610 OFFCURVE",
"299 640 OFFCURVE",
"299 660 CURVE SMOOTH",
"299 736 LINE SMOOTH",
"299 751 OFFCURVE",
"290 759 OFFCURVE",
"280 759 CURVE SMOOTH",
"270 759 OFFCURVE",
"260 751 OFFCURVE",
"260 736 CURVE SMOOTH",
"260 717 OFFCURVE",
"261 688 OFFCURVE",
"263 651 CURVE SMOOTH",
"264 613 OFFCURVE",
"265 585 OFFCURVE",
"265 566 CURVE SMOOTH",
"265 563 OFFCURVE",
"266 521 OFFCURVE",
"269 438 CURVE SMOOTH",
"272 355 OFFCURVE",
"273 293 OFFCURVE",
"273 251 CURVE SMOOTH",
"273 137 LINE SMOOTH",
"273 125 OFFCURVE",
"273 114 OFFCURVE",
"272 104 CURVE",
"271 84 OFFCURVE",
"265 57 OFFCURVE",
"255 42 CURVE SMOOTH",
"246 25 OFFCURVE",
"228 13 OFFCURVE",
"204 13 CURVE SMOOTH",
"191 13 OFFCURVE",
"180 19 OFFCURVE",
"169 29 CURVE SMOOTH",
"148 49 OFFCURVE",
"137 78 OFFCURVE",
"127 116 CURVE SMOOTH",
"117 154 OFFCURVE",
"113 179 OFFCURVE",
"110 206 CURVE SMOOTH",
"101 294 OFFCURVE",
"89 547 OFFCURVE",
"89 709 CURVE SMOOTH",
"89 710 OFFCURVE",
"89 713 OFFCURVE",
"90 717 CURVE",
"90 720 OFFCURVE",
"90 723 OFFCURVE",
"90 724 CURVE SMOOTH",
"90 739 OFFCURVE",
"85 748 OFFCURVE",
"69 748 CURVE SMOOTH",
"59 748 OFFCURVE",
"54 739 OFFCURVE",
"54 722 CURVE SMOOTH",
"54 720 OFFCURVE",
"54 717 OFFCURVE",
"54 714 CURVE",
"54 710 OFFCURVE",
"54 708 OFFCURVE",
"54 707 CURVE SMOOTH",
"54 570 OFFCURVE",
"69 284 OFFCURVE",
"74 231 CURVE",
"74 230 OFFCURVE",
"75 225 OFFCURVE",
"75 214 CURVE SMOOTH",
"76 203 OFFCURVE",
"76 193 OFFCURVE",
"77 183 CURVE SMOOTH",
"79 162 OFFCURVE",
"84 125 OFFCURVE",
"92 98 CURVE SMOOTH",
"99 70 OFFCURVE",
"113 38 OFFCURVE",
"131 17 CURVE SMOOTH",
"148 -4 OFFCURVE",
"175 -19 OFFCURVE",
"207 -19 CURVE SMOOTH"
);
}
);
width = 372;
},
{
anchors = (
{
name = bottom;
position = "{201, 0}";
},
{
name = ogonek;
position = "{361, 5}";
},
{
name = top;
position = "{181, 758}";
},
{
name = topright;
position = "{297, 713}";
}
);
layerId = "156B637B-193E-48A3-AAC8-7B4A3960F885";
paths = (
{
closed = 1;
nodes = (
"251 -18 OFFCURVE",
"266 -15 OFFCURVE",
"278 -8 CURVE SMOOTH",
"303 5 OFFCURVE",
"315 23 OFFCURVE",
"323 53 CURVE SMOOTH",
"331 83 OFFCURVE",
"333 107 OFFCURVE",
"333 141 CURVE SMOOTH",
"333 203 OFFCURVE",
"330 290 OFFCURVE",
"324 402 CURVE SMOOTH",
"317 514 OFFCURVE",
"314 598 OFFCURVE",
"314 653 CURVE SMOOTH",
"314 661 OFFCURVE",
"316 671 OFFCURVE",
"318 685 CURVE SMOOTH",
"321 698 OFFCURVE",
"322 708 OFFCURVE",
"322 714 CURVE SMOOTH",
"322 731 LINE",
"297 754 LINE",
"280 754 OFFCURVE",
"260 743 OFFCURVE",
"260 727 CURVE SMOOTH",
"260 708 OFFCURVE",
"261 679 OFFCURVE",
"264 641 CURVE SMOOTH",
"266 603 OFFCURVE",
"267 575 OFFCURVE",
"267 556 CURVE SMOOTH",
"267 549 OFFCURVE",
"268 540 OFFCURVE",
"268 527 CURVE SMOOTH",
"269 514 OFFCURVE",
"269 504 OFFCURVE",
"269 498 CURVE SMOOTH",
"269 491 LINE SMOOTH",
"269 470 OFFCURVE",
"271 438 OFFCURVE",
"275 396 CURVE SMOOTH",
"280 355 OFFCURVE",
"282 323 OFFCURVE",
"282 302 CURVE SMOOTH",
"282 107 LINE SMOOTH",
"282 85 OFFCURVE",
"281 75 OFFCURVE",
"276 52 CURVE SMOOTH",
"272 30 OFFCURVE",
"259 17 OFFCURVE",
"240 17 CURVE SMOOTH",
"208 17 OFFCURVE",
"178 53 OFFCURVE",
"162 97 CURVE SMOOTH",
"145 142 OFFCURVE",
"135 188 OFFCURVE",
"135 217 CURVE SMOOTH",
"135 248 OFFCURVE",
"128 315 OFFCURVE",
"121 333 CURVE",
"121 372 OFFCURVE",
"119 430 OFFCURVE",
"116 507 CURVE SMOOTH",
"113 584 OFFCURVE",
"111 642 OFFCURVE",
"111 681 CURVE SMOOTH",
"111 728 OFFCURVE",
"99 752 OFFCURVE",
"75 752 CURVE SMOOTH",
"60 752 OFFCURVE",
"46 737 OFFCURVE",
"46 721 CURVE SMOOTH",
"46 713 OFFCURVE",
"49 706 OFFCURVE",
"54 701 CURVE",
"54 687 OFFCURVE",
"54 662 OFFCURVE",
"53 627 CURVE SMOOTH",
"53 592 OFFCURVE",
"53 564 OFFCURVE",
"53 544 CURVE SMOOTH",
"53 474 OFFCURVE",
"54 423 OFFCURVE",
"58 353 CURVE SMOOTH",
"62 282 OFFCURVE",
"69 229 OFFCURVE",
"81 171 CURVE SMOOTH",
"93 112 OFFCURVE",
"112 70 OFFCURVE",
"136 36 CURVE SMOOTH",
"160 0 OFFCURVE",
"193 -18 OFFCURVE",
"234 -18 CURVE SMOOTH"
);
}
);
width = 401;
}
);
note = U;
unicode = 0055;
},
{
glyphname = V;
layers = (
{
layerId = "27A8C2A5-6B67-4598-967C-E5EC4FB8AE70";
paths = (
{
closed = 1;
nodes = (
"183 -9 OFFCURVE",
"189 -1 OFFCURVE",
"194 13 CURVE",
"195 52 OFFCURVE",
"225 313 OFFCURVE",
"243 462 CURVE SMOOTH",
"251 537 OFFCURVE",
"258 590 OFFCURVE",
"262 623 CURVE SMOOTH",
"263 631 OFFCURVE",
"265 644 OFFCURVE",
"268 662 CURVE SMOOTH",
"273 697 OFFCURVE",
"276 722 OFFCURVE",
"276 747 CURVE",
"266 755 LINE",
"268 755 LINE",
"262 759 LINE",
"250 759 OFFCURVE",
"244 752 OFFCURVE",
"243 740 CURVE SMOOTH",
"242 727 OFFCURVE",
"240 708 OFFCURVE",
"236 684 CURVE SMOOTH",
"232 659 OFFCURVE",
"230 643 OFFCURVE",
"229 634 CURVE SMOOTH",
"227 610 OFFCURVE",
"220 552 OFFCURVE",
"211 460 CURVE SMOOTH",
"201 369 OFFCURVE",
"193 295 OFFCURVE",
"187 241 CURVE SMOOTH",
"185 224 OFFCURVE",
"181 182 OFFCURVE",
"176 126 CURVE SMOOTH",
"173 98 OFFCURVE",
"171 74 OFFCURVE",
"169 55 CURVE",
"167 71 OFFCURVE",
"163 102 OFFCURVE",
"156 146 CURVE SMOOTH",
"150 190 OFFCURVE",
"146 222 OFFCURVE",
"143 241 CURVE SMOOTH",
"93 584 LINE SMOOTH",
"82 647 OFFCURVE",
"75 690 OFFCURVE",
"70 714 CURVE",
"70 715 OFFCURVE",
"69 724 OFFCURVE",
"68 728 CURVE SMOOTH",
"68 731 OFFCURVE",
"66 739 OFFCURVE",
"64 743 CURVE SMOOTH",
"62 747 OFFCURVE",
"59 752 OFFCURVE",
"55 754 CURVE SMOOTH",
"53 755 OFFCURVE",
"51 756 OFFCURVE",
"48 756 CURVE SMOOTH",
"41 756 OFFCURVE",
"34 748 OFFCURVE",
"34 738 CURVE SMOOTH",
"34 713 OFFCURVE",
"44 664 OFFCURVE",
"56 617 CURVE SMOOTH",
"61 593 OFFCURVE",
"64 579 OFFCURVE",
"65 573 CURVE SMOOTH",
"120 216 LINE SMOOTH",
"136 111 OFFCURVE",
"150 37 OFFCURVE",
"160 -5 CURVE",
"162 -5 OFFCURVE",
"167 -7 OFFCURVE",
"171 -8 CURVE",
"172 -8 OFFCURVE",
"174 -9 OFFCURVE",
"175 -9 CURVE SMOOTH"
);
},
{
closed = 1;
nodes = (
"169 52 LINE",
"170 49 LINE",
"167 49 LINE"
);
}
);
width = 325;
},
{
layerId = "156B637B-193E-48A3-AAC8-7B4A3960F885";
paths = (
{
closed = 1;
nodes = (
"179 -17 OFFCURVE",
"183 -9 OFFCURVE",
"187 6 CURVE SMOOTH",
"196 37 OFFCURVE",
"206 96 OFFCURVE",
"215 163 CURVE SMOOTH",
"225 229 OFFCURVE",
"236 319 OFFCURVE",
"246 395 CURVE SMOOTH",
"255 470 OFFCURVE",
"266 563 OFFCURVE",
"271 620 CURVE SMOOTH",
"277 676 OFFCURVE",
"285 745 OFFCURVE",
"286 755 CURVE",
"265 766 LINE",
"251 766 OFFCURVE",
"239 759 OFFCURVE",
"229 746 CURVE",
"229 630 OFFCURVE",
"215 511 OFFCURVE",
"192 346 CURVE SMOOTH",
"180 264 OFFCURVE",
"172 203 OFFCURVE",
"167 166 CURVE",
"166 174 OFFCURVE",
"157 233 OFFCURVE",
"140 343 CURVE SMOOTH",
"123 453 OFFCURVE",
"106 550 OFFCURVE",
"89 635 CURVE SMOOTH",
"72 721 OFFCURVE",
"58 763 OFFCURVE",
"47 763 CURVE SMOOTH",
"33 763 OFFCURVE",
"23 757 OFFCURVE",
"20 744 CURVE",
"29 697 OFFCURVE",
"49 578 OFFCURVE",
"81 385 CURVE SMOOTH",
"112 191 OFFCURVE",
"136 61 OFFCURVE",
"152 -6 CURVE",
"158 -13 OFFCURVE",
"166 -17 OFFCURVE",
"175 -17 CURVE SMOOTH"
);
}
);
width = 350;
}
);
note = V;
unicode = 0056;
},
{
glyphname = W;
layers = (
{
anchors = (
{
name = bottom;
position = "{230, 0}";
},
{
name = top;
position = "{210, 754}";
}
);
layerId = "27A8C2A5-6B67-4598-967C-E5EC4FB8AE70";
paths = (
{
closed = 1;
nodes = (
"162 -13 OFFCURVE",
"168 0 OFFCURVE",
"168 26 CURVE SMOOTH",
"168 44 LINE",
"175 119 OFFCURVE",
"192 301 OFFCURVE",
"218 590 CURVE",
"218 591 OFFCURVE",
"218 591 OFFCURVE",
"218 591 CURVE SMOOTH",
"219 592 OFFCURVE",
"219 592 OFFCURVE",
"219 592 CURVE",
"222 590 LINE",
"250 362 OFFCURVE",
"273 179 OFFCURVE",
"294 42 CURVE SMOOTH",
"294 38 OFFCURVE",
"295 33 OFFCURVE",
"295 27 CURVE",
"296 14 OFFCURVE",
"296 7 OFFCURVE",
"299 -1 CURVE SMOOTH",
"301 -9 OFFCURVE",
"308 -13 OFFCURVE",
"318 -13 CURVE SMOOTH",
"333 -13 OFFCURVE",
"336 -4 OFFCURVE",
"336 11 CURVE SMOOTH",
"336 14 OFFCURVE",
"338 31 OFFCURVE",
"341 62 CURVE SMOOTH",
"345 92 OFFCURVE",
"348 125 OFFCURVE",
"353 163 CURVE SMOOTH",
"357 200 OFFCURVE",
"359 227 OFFCURVE",
"361 242 CURVE SMOOTH",
"363 262 OFFCURVE",
"370 331 OFFCURVE",
"381 449 CURVE SMOOTH",
"392 567 OFFCURVE",
"401 655 OFFCURVE",
"408 714 CURVE",
"409 716 OFFCURVE",
"412 730 OFFCURVE",
"412 736 CURVE SMOOTH",
"412 739 OFFCURVE",
"412 741 OFFCURVE",
"411 742 CURVE",
"418 748 OFFCURVE",
"422 754 OFFCURVE",
"422 761 CURVE SMOOTH",
"422 770 OFFCURVE",
"411 777 OFFCURVE",
"403 777 CURVE SMOOTH",
"383 777 OFFCURVE",
"377 769 OFFCURVE",
"377 753 CURVE SMOOTH",
"377 751 OFFCURVE",
"377 748 OFFCURVE",
"377 744 CURVE SMOOTH",
"378 739 OFFCURVE",
"378 736 OFFCURVE",
"378 734 CURVE SMOOTH",
"378 702 OFFCURVE",
"375 657 OFFCURVE",
"368 599 CURVE SMOOTH",
"360 541 OFFCURVE",
"356 501 OFFCURVE",
"355 479 CURVE SMOOTH",
"318 74 LINE",
"315 76 LINE",
"305 180 OFFCURVE",
"243 588 OFFCURVE",
"232 646 CURVE",
"231 647 OFFCURVE",
"231 650 OFFCURVE",
"230 655 CURVE",
"229 663 OFFCURVE",
"229 665 OFFCURVE",
"225 670 CURVE SMOOTH",
"222 675 OFFCURVE",
"216 677 OFFCURVE",
"207 677 CURVE",
"203 675 OFFCURVE",
"201 671 OFFCURVE",
"201 670 CURVE",
"201 668 OFFCURVE",
"200 659 OFFCURVE",
"200 657 CURVE",
"199 655 OFFCURVE",
"199 644 OFFCURVE",
"197 624 CURVE SMOOTH",
"196 604 OFFCURVE",
"195 588 OFFCURVE",
"194 578 CURVE SMOOTH",
"192 562 OFFCURVE",
"188 535 OFFCURVE",
"182 497 CURVE SMOOTH",
"176 459 OFFCURVE",
"172 430 OFFCURVE",
"170 409 CURVE SMOOTH",
"168 387 OFFCURVE",
"165 333 OFFCURVE",
"160 246 CURVE SMOOTH",
"154 159 OFFCURVE",
"150 106 OFFCURVE",
"148 87 CURVE",
"146 87 LINE",
"120 307 OFFCURVE",
"99 511 OFFCURVE",
"81 699 CURVE",
"81 702 OFFCURVE",
"81 706 OFFCURVE",
"81 710 CURVE SMOOTH",
"81 712 OFFCURVE",
"81 716 OFFCURVE",
"81 720 CURVE",
"81 724 OFFCURVE",
"81 727 OFFCURVE",
"81 729 CURVE SMOOTH",
"81 745 OFFCURVE",
"76 752 OFFCURVE",
"55 752 CURVE SMOOTH",
"47 752 OFFCURVE",
"38 746 OFFCURVE",
"34 739 CURVE",
"39 731 OFFCURVE",
"46 690 OFFCURVE",
"56 615 CURVE SMOOTH",
"66 539 OFFCURVE",
"77 457 OFFCURVE",
"87 368 CURVE SMOOTH",
"97 279 OFFCURVE",
"104 227 OFFCURVE",
"106 212 CURVE SMOOTH",
"107 202 OFFCURVE",
"110 183 OFFCURVE",
"115 157 CURVE SMOOTH",
"123 105 OFFCURVE",
"130 58 OFFCURVE",
"133 36 CURVE",
"133 31 LINE SMOOTH",
"133 29 OFFCURVE",
"133 25 OFFCURVE",
"132 21 CURVE SMOOTH",
"132 16 OFFCURVE",
"132 12 OFFCURVE",
"132 9 CURVE SMOOTH",
"132 -6 OFFCURVE",
"138 -13 OFFCURVE",
"151 -13 CURVE SMOOTH"
);
}
);
width = 461;
},
{
anchors = (
{
name = bottom;
position = "{247, 0}";
},
{
name = top;
position = "{218, 758}";
}
);
layerId = "156B637B-193E-48A3-AAC8-7B4A3960F885";
paths = (
{
closed = 1;
nodes = (
"174 -14 OFFCURVE",
"188 0 OFFCURVE",
"188 14 CURVE SMOOTH",
"188 58 OFFCURVE",
"190 106 OFFCURVE",
"195 158 CURVE SMOOTH",
"203 262 OFFCURVE",
"210 319 OFFCURVE",
"227 436 CURVE",
"228 430 OFFCURVE",
"231 408 OFFCURVE",
"236 371 CURVE SMOOTH",
"242 333 OFFCURVE",
"248 294 OFFCURVE",
"254 254 CURVE SMOOTH",
"267 175 OFFCURVE",
"283 81 OFFCURVE",
"301 27 CURVE SMOOTH",
"311 0 OFFCURVE",
"319 -14 OFFCURVE",
"327 -14 CURVE SMOOTH",
"347 -14 OFFCURVE",
"357 1 OFFCURVE",
"357 21 CURVE SMOOTH",
"357 125 OFFCURVE",
"375 269 OFFCURVE",
"395 375 CURVE SMOOTH",
"414 479 OFFCURVE",
"433 624 OFFCURVE",
"433 727 CURVE",
"439 734 OFFCURVE",
"443 742 OFFCURVE",
"443 750 CURVE SMOOTH",
"443 766 OFFCURVE",
"428 777 OFFCURVE",
"412 777 CURVE SMOOTH",
"383 777 OFFCURVE",
"376 765 OFFCURVE",
"376 735 CURVE SMOOTH",
"376 634 OFFCURVE",
"364 525 OFFCURVE",
"345 385 CURVE SMOOTH",
"336 315 OFFCURVE",
"329 262 OFFCURVE",
"326 225 CURVE",
"320 257 OFFCURVE",
"312 300 OFFCURVE",
"298 354 CURVE SMOOTH",
"272 460 OFFCURVE",
"253 551 OFFCURVE",
"253 633 CURVE SMOOTH",
"253 648 LINE SMOOTH",
"253 668 OFFCURVE",
"241 678 OFFCURVE",
"217 678 CURVE SMOOTH",
"204 678 OFFCURVE",
"191 661 OFFCURVE",
"191 647 CURVE SMOOTH",
"191 628 LINE SMOOTH",
"191 608 OFFCURVE",
"189 580 OFFCURVE",
"186 543 CURVE SMOOTH",
"180 468 OFFCURVE",
"174 424 OFFCURVE",
"163 330 CURVE SMOOTH",
"157 283 OFFCURVE",
"154 255 OFFCURVE",
"153 246 CURVE",
"152 247 OFFCURVE",
"148 297 OFFCURVE",
"139 396 CURVE SMOOTH",
"130 495 OFFCURVE",
"119 579 OFFCURVE",
"107 648 CURVE SMOOTH",
"94 717 OFFCURVE",
"80 752 OFFCURVE",
"64 752 CURVE SMOOTH",
"49 752 OFFCURVE",
"38 744 OFFCURVE",
"29 728 CURVE",
"44 691 OFFCURVE",
"123 125 OFFCURVE",
"123 62 CURVE SMOOTH",
"123 11 OFFCURVE",
"135 -14 OFFCURVE",
"160 -14 CURVE SMOOTH"
);
}
);
width = 494;
}
);
note = W;
unicode = 0057;
},
{
glyphname = X;
layers = (
{
layerId = "27A8C2A5-6B67-4598-967C-E5EC4FB8AE70";
paths = (
{
closed = 1;
nodes = (
"52 -6 OFFCURVE",
"54 -5 OFFCURVE",
"57 -5 CURVE",
"61 -3 OFFCURVE",
"64 -3 OFFCURVE",
"66 1 CURVE",
"68 4 OFFCURVE",
"69 5 OFFCURVE",
"71 11 CURVE SMOOTH",
"72 16 OFFCURVE",
"72 17 OFFCURVE",
"73 23 CURVE SMOOTH",
"74 27 OFFCURVE",
"74 29 OFFCURVE",
"74 30 CURVE",
"82 75 OFFCURVE",
"129 297 OFFCURVE",
"135 307 CURVE",
"142 283 OFFCURVE",
"153 226 OFFCURVE",
"171 136 CURVE SMOOTH",
"172 131 OFFCURVE",
"173 122 OFFCURVE",
"176 110 CURVE",
"178 98 OFFCURVE",
"179 88 OFFCURVE",
"181 81 CURVE SMOOTH",
"183 66 OFFCURVE",
"186 43 OFFCURVE",
"186 26 CURVE SMOOTH",
"186 22 OFFCURVE",
"187 19 OFFCURVE",
"189 17 CURVE SMOOTH",
"193 13 OFFCURVE",
"196 13 OFFCURVE",
"204 13 CURVE SMOOTH",
"215 13 OFFCURVE",
"220 20 OFFCURVE",
"220 34 CURVE SMOOTH",
"220 39 OFFCURVE",
"220 45 OFFCURVE",
"218 53 CURVE SMOOTH",
"217 61 OFFCURVE",
"216 65 OFFCURVE",
"216 65 CURVE",
"205 116 LINE",
"152 386 LINE",
"152 394 OFFCURVE",
"153 401 OFFCURVE",
"154 410 CURVE SMOOTH",
"155 427 OFFCURVE",
"160 452 OFFCURVE",
"162 464 CURVE",
"164 477 OFFCURVE",
"171 512 OFFCURVE",
"172 518 CURVE",
"191 613 OFFCURVE",
"205 676 OFFCURVE",
"213 707 CURVE",
"214 708 OFFCURVE",
"216 714 OFFCURVE",
"220 724 CURVE SMOOTH",
"224 734 OFFCURVE",
"226 742 OFFCURVE",
"226 747 CURVE SMOOTH",
"226 754 OFFCURVE",
"220 758 OFFCURVE",
"208 758 CURVE SMOOTH",
"200 758 OFFCURVE",
"192 749 OFFCURVE",
"188 733 CURVE SMOOTH",
"184 717 OFFCURVE",
"182 706 OFFCURVE",
"180 689 CURVE SMOOTH",
"179 681 OFFCURVE",
"179 675 OFFCURVE",
"178 674 CURVE",
"156 554 OFFCURVE",
"143 479 OFFCURVE",
"139 450 CURVE",
"135 476 OFFCURVE",
"126 520 OFFCURVE",
"114 581 CURVE SMOOTH",
"102 642 OFFCURVE",
"94 681 OFFCURVE",
"90 700 CURVE SMOOTH",
"90 703 OFFCURVE",
"90 707 OFFCURVE",
"89 713 CURVE SMOOTH",
"89 720 OFFCURVE",
"89 725 OFFCURVE",
"88 728 CURVE SMOOTH",
"87 735 OFFCURVE",
"81 743 OFFCURVE",
"69 743 CURVE SMOOTH",
"64 743 OFFCURVE",
"59 739 OFFCURVE",
"53 730 CURVE",
"54 717 OFFCURVE",
"58 698 OFFCURVE",
"65 675 CURVE SMOOTH",
"72 651 OFFCURVE",
"77 636 OFFCURVE",
"78 629 CURVE SMOOTH",
"81 617 OFFCURVE",
"86 593 OFFCURVE",
"94 560 CURVE SMOOTH",
"110 491 OFFCURVE",
"118 447 OFFCURVE",
"118 401 CURVE SMOOTH",
"118 394 OFFCURVE",
"118 386 OFFCURVE",
"117 377 CURVE SMOOTH",
"116 361 OFFCURVE",
"112 338 OFFCURVE",
"109 326 CURVE SMOOTH",
"107 314 OFFCURVE",
"101 284 OFFCURVE",
"99 276 CURVE SMOOTH",
"87 220 OFFCURVE",
"72 155 OFFCURVE",
"53 83 CURVE SMOOTH",
"41 40 OFFCURVE",
"34 14 OFFCURVE",
"34 6 CURVE SMOOTH",
"34 0 OFFCURVE",
"44 -6 OFFCURVE",
"49 -6 CURVE SMOOTH"
);
}
);
width = 280;
},
{
layerId = "156B637B-193E-48A3-AAC8-7B4A3960F885";
paths = (
{
closed = 1;
nodes = (
"68 -6 OFFCURVE",
"77 12 OFFCURVE",
"86 47 CURVE SMOOTH",
"93 73 OFFCURVE",
"113 160 OFFCURVE",
"146 307 CURVE",
"153 279 OFFCURVE",
"162 232 OFFCURVE",
"174 164 CURVE SMOOTH",
"186 96 OFFCURVE",
"193 54 OFFCURVE",
"197 37 CURVE SMOOTH",
"200 21 OFFCURVE",
"210 13 OFFCURVE",
"226 13 CURVE SMOOTH",
"238 13 OFFCURVE",
"244 21 OFFCURVE",
"244 39 CURVE SMOOTH",
"244 55 OFFCURVE",
"240 70 OFFCURVE",
"234 93 CURVE",
"231 104 OFFCURVE",
"229 114 OFFCURVE",
"227 121 CURVE SMOOTH",
"213 184 OFFCURVE",
"175 375 OFFCURVE",
"175 389 CURVE SMOOTH",
"175 418 OFFCURVE",
"192 487 OFFCURVE",
"216 579 CURVE SMOOTH",
"240 671 OFFCURVE",
"250 715 OFFCURVE",
"250 735 CURVE SMOOTH",
"250 749 OFFCURVE",
"239 757 OFFCURVE",
"226 757 CURVE SMOOTH",
"219 757 OFFCURVE",
"214 752 OFFCURVE",
"209 743 CURVE SMOOTH",
"205 734 OFFCURVE",
"200 716 OFFCURVE",
"194 691 CURVE SMOOTH",
"191 676 OFFCURVE",
"185 646 OFFCURVE",
"175 599 CURVE SMOOTH",
"166 553 OFFCURVE",
"158 514 OFFCURVE",
"151 482 CURVE",
"144 518 OFFCURVE",
"139 542 OFFCURVE",
"137 554 CURVE SMOOTH",
"134 567 OFFCURVE",
"131 583 OFFCURVE",
"129 593 CURVE",
"128 597 OFFCURVE",
"127 604 OFFCURVE",
"125 611 CURVE SMOOTH",
"115 666 OFFCURVE",
"107 702 OFFCURVE",
"102 718 CURVE SMOOTH",
"97 734 OFFCURVE",
"89 742 OFFCURVE",
"80 742 CURVE SMOOTH",
"67 742 OFFCURVE",
"57 734 OFFCURVE",
"57 715 CURVE SMOOTH",
"57 711 OFFCURVE",
"58 705 OFFCURVE",
"60 697 CURVE SMOOTH",
"105 493 OFFCURVE",
"119 441 OFFCURVE",
"119 400 CURVE SMOOTH",
"119 380 OFFCURVE",
"112 340 OFFCURVE",
"99 282 CURVE SMOOTH",
"86 224 OFFCURVE",
"65 135 OFFCURVE",
"35 16 CURVE",
"34 16 OFFCURVE",
"34 14 OFFCURVE",
"34 13 CURVE SMOOTH",
"34 1 OFFCURVE",
"49 -6 OFFCURVE",
"62 -6 CURVE SMOOTH"
);
}
);
width = 304;
}
);
note = X;
unicode = 0058;
},
{
glyphname = Y;
layers = (
{
anchors = (
{
name = bottom;
position = "{126, 0}";
},
{
name = top;
position = "{106, 754}";
},
{
name = topleft;
position = "{10, 754}";
}
);
layerId = "27A8C2A5-6B67-4598-967C-E5EC4FB8AE70";
paths = (
{
closed = 1;
nodes = (
"144 -12 OFFCURVE",
"151 2 OFFCURVE",
"151 17 CURVE SMOOTH",
"151 18 OFFCURVE",
"151 19 OFFCURVE",
"151 21 CURVE SMOOTH",
"150 22 OFFCURVE",
"150 23 OFFCURVE",
"150 24 CURVE",
"147 27 LINE",
"149 71 OFFCURVE",
"149 139 OFFCURVE",
"149 229 CURVE SMOOTH",
"149 242 OFFCURVE",
"148 262 OFFCURVE",
"146 289 CURVE SMOOTH",
"144 316 OFFCURVE",
"142 336 OFFCURVE",
"142 349 CURVE SMOOTH",
"142 357 LINE",
"148 372 LINE",
"148 376 OFFCURVE",
"148 381 OFFCURVE",
"147 389 CURVE SMOOTH",
"146 396 OFFCURVE",
"146 401 OFFCURVE",
"146 405 CURVE SMOOTH",
"146 451 OFFCURVE",
"153 516 OFFCURVE",
"159 551 CURVE SMOOTH",
"165 586 OFFCURVE",
"181 679 OFFCURVE",
"185 700 CURVE",
"186 704 OFFCURVE",
"187 710 OFFCURVE",
"189 720 CURVE SMOOTH",
"192 729 OFFCURVE",
"193 736 OFFCURVE",
"193 741 CURVE SMOOTH",
"193 745 OFFCURVE",
"192 748 OFFCURVE",
"191 749 CURVE SMOOTH",
"188 752 OFFCURVE",
"186 752 OFFCURVE",
"178 752 CURVE SMOOTH",
"167 752 OFFCURVE",
"157 730 OFFCURVE",
"149 686 CURVE SMOOTH",
"141 642 OFFCURVE",
"134 594 OFFCURVE",
"129 541 CURVE SMOOTH",
"124 487 OFFCURVE",
"121 458 OFFCURVE",
"119 454 CURVE",
"102 478 OFFCURVE",
"60 693 OFFCURVE",
"56 747 CURVE",
"44 755 LINE",
"34 755 OFFCURVE",
"24 749 OFFCURVE",
"24 739 CURVE SMOOTH",
"24 728 OFFCURVE",
"29 706 OFFCURVE",
"39 674 CURVE SMOOTH",
"51 633 OFFCURVE",
"60 592 OFFCURVE",
"72 527 CURVE SMOOTH",
"79 494 OFFCURVE",
"83 471 OFFCURVE",
"85 458 CURVE",
"86 457 OFFCURVE",
"87 449 OFFCURVE",
"91 436 CURVE SMOOTH",
"97 409 OFFCURVE",
"101 390 OFFCURVE",
"101 379 CURVE SMOOTH",
"101 369 OFFCURVE",
"103 354 OFFCURVE",
"107 333 CURVE SMOOTH",
"111 313 OFFCURVE",
"113 297 OFFCURVE",
"113 286 CURVE SMOOTH",
"113 277 OFFCURVE",
"114 264 OFFCURVE",
"117 246 CURVE SMOOTH",
"119 228 OFFCURVE",
"120 214 OFFCURVE",
"120 205 CURVE SMOOTH",
"120 184 OFFCURVE",
"119 151 OFFCURVE",
"118 108 CURVE SMOOTH",
"116 65 OFFCURVE",
"115 33 OFFCURVE",
"115 12 CURVE SMOOTH",
"115 1 OFFCURVE",
"120 -12 OFFCURVE",
"129 -12 CURVE SMOOTH"
);
}
);
width = 252;
},
{
anchors = (
{
name = bottom;
position = "{133, 0}";
},
{
name = top;
position = "{133, 758}";
},
{
name = topleft;
position = "{10, 758}";
}
);
layerId = "156B637B-193E-48A3-AAC8-7B4A3960F885";
paths = (
{
closed = 1;
nodes = (
"149 -12 OFFCURVE",
"165 0 OFFCURVE",
"165 17 CURVE SMOOTH",
"165 42 LINE SMOOTH",
"165 48 OFFCURVE",
"164 56 OFFCURVE",
"163 66 CURVE",
"162 76 OFFCURVE",
"161 84 OFFCURVE",
"161 89 CURVE SMOOTH",
"161 119 OFFCURVE",
"160 163 OFFCURVE",
"159 222 CURVE SMOOTH",
"157 281 OFFCURVE",
"156 325 OFFCURVE",
"156 354 CURVE SMOOTH",
"156 370 LINE",
"155 374 OFFCURVE",
"156 380 OFFCURVE",
"157 388 CURVE",
"158 395 OFFCURVE",
"159 401 OFFCURVE",
"159 404 CURVE SMOOTH",
"159 443 OFFCURVE",
"167 499 OFFCURVE",
"183 573 CURVE SMOOTH",
"199 647 OFFCURVE",
"207 703 OFFCURVE",
"207 741 CURVE SMOOTH",
"207 748 OFFCURVE",
"198 751 OFFCURVE",
"180 751 CURVE SMOOTH",
"171 751 OFFCURVE",
"163 744 OFFCURVE",
"156 729 CURVE SMOOTH",
"149 714 OFFCURVE",
"144 694 OFFCURVE",
"140 671 CURVE SMOOTH",
"132 624 OFFCURVE",
"128 577 OFFCURVE",
"125 533 CURVE SMOOTH",
"123 511 OFFCURVE",
"121 497 OFFCURVE",
"120 491 CURVE",
"118 498 OFFCURVE",
"115 512 OFFCURVE",
"110 535 CURVE SMOOTH",
"106 557 OFFCURVE",
"102 580 OFFCURVE",
"97 604 CURVE SMOOTH",
"86 651 OFFCURVE",
"75 703 OFFCURVE",
"61 733 CURVE SMOOTH",
"54 749 OFFCURVE",
"47 756 OFFCURVE",
"40 756 CURVE SMOOTH",
"29 756 OFFCURVE",
"15 749 OFFCURVE",
"15 739 CURVE SMOOTH",
"15 686 OFFCURVE",
"34 612 OFFCURVE",
"53 560 CURVE SMOOTH",
"73 506 OFFCURVE",
"92 433 OFFCURVE",
"92 379 CURVE SMOOTH",
"92 359 OFFCURVE",
"95 331 OFFCURVE",
"102 292 CURVE SMOOTH",
"108 254 OFFCURVE",
"111 225 OFFCURVE",
"111 206 CURVE SMOOTH",
"111 184 OFFCURVE",
"110 152 OFFCURVE",
"108 109 CURVE SMOOTH",
"107 66 OFFCURVE",
"106 34 OFFCURVE",
"106 12 CURVE SMOOTH",
"106 -1 OFFCURVE",
"118 -12 OFFCURVE",
"131 -12 CURVE SMOOTH"
);
}
);
width = 265;
}
);
note = Y;
unicode = 0059;
},
{
glyphname = Z;
layers = (
{
anchors = (
{
name = bottom;
position = "{124, 0}";
},
{
name = top;
position = "{109, 754}";
}
);
layerId = "27A8C2A5-6B67-4598-967C-E5EC4FB8AE70";
paths = (
{
closed = 1;
nodes = (
"63 -9 OFFCURVE",
"83 -8 OFFCURVE",
"109 -7 CURVE SMOOTH",
"135 -5 OFFCURVE",
"155 -5 OFFCURVE",
"168 -5 CURVE",
"177 4 LINE",
"177 17 OFFCURVE",
"163 24 OFFCURVE",
"135 24 CURVE SMOOTH",
"128 24 OFFCURVE",
"117 23 OFFCURVE",
"103 21 CURVE SMOOTH",
"89 20 OFFCURVE",
"78 19 OFFCURVE",
"70 19 CURVE",
"70 29 OFFCURVE",
"74 42 OFFCURVE",
"81 59 CURVE SMOOTH",
"88 76 OFFCURVE",
"92 88 OFFCURVE",
"93 95 CURVE SMOOTH",
"104 161 OFFCURVE",
"117 255 OFFCURVE",
"133 378 CURVE SMOOTH",
"149 501 OFFCURVE",
"159 577 OFFCURVE",
"163 605 CURVE",
"165 613 OFFCURVE",
"166 628 OFFCURVE",
"167 649 CURVE SMOOTH",
"170 690 OFFCURVE",
"174 725 OFFCURVE",
"183 745 CURVE",
"183 757 OFFCURVE",
"178 763 OFFCURVE",
"167 763 CURVE SMOOTH",
"156 763 OFFCURVE",
"141 762 OFFCURVE",
"120 758 CURVE SMOOTH",
"100 755 OFFCURVE",
"84 753 OFFCURVE",
"73 753 CURVE SMOOTH",
"63 753 OFFCURVE",
"55 753 OFFCURVE",
"49 755 CURVE",
"42 747 LINE",
"42 734 OFFCURVE",
"57 727 OFFCURVE",
"87 727 CURVE SMOOTH",
"95 727 OFFCURVE",
"106 728 OFFCURVE",
"121 729 CURVE SMOOTH",
"136 731 OFFCURVE",
"147 732 OFFCURVE",
"154 732 CURVE",
"154 710 OFFCURVE",
"151 688 OFFCURVE",
"146 654 CURVE SMOOTH",
"144 636 OFFCURVE",
"142 625 OFFCURVE",
"141 619 CURVE",
"131 545 OFFCURVE",
"105 361 OFFCURVE",
"95 287 CURVE",
"91 268 OFFCURVE",
"87 238 OFFCURVE",
"83 199 CURVE SMOOTH",
"74 119 OFFCURVE",
"63 54 OFFCURVE",
"34 4 CURVE",
"38 -4 OFFCURVE",
"42 -9 OFFCURVE",
"49 -9 CURVE SMOOTH"
);
}
);
width = 247;
},
{
anchors = (
{
name = bottom;
position = "{130, 0}";
},
{
name = top;
position = "{130, 758}";
}
);
layerId = "156B637B-193E-48A3-AAC8-7B4A3960F885";
paths = (
{
closed = 1;
nodes = (
"66 -9 OFFCURVE",
"87 -9 OFFCURVE",
"115 -7 CURVE SMOOTH",
"142 -6 OFFCURVE",
"163 -5 OFFCURVE",
"176 -5 CURVE",
"192 10 LINE",
"192 15 LINE SMOOTH",
"192 35 OFFCURVE",
"174 45 OFFCURVE",
"139 45 CURVE SMOOTH",
"131 45 OFFCURVE",
"121 45 OFFCURVE",
"108 43 CURVE SMOOTH",
"95 42 OFFCURVE",
"88 42 OFFCURVE",
"86 42 CURVE",
"160 329 OFFCURVE",
"197 561 OFFCURVE",
"197 735 CURVE SMOOTH",
"197 750 OFFCURVE",
"186 764 OFFCURVE",
"170 764 CURVE SMOOTH",
"160 764 OFFCURVE",
"144 762 OFFCURVE",
"123 759 CURVE SMOOTH",
"102 755 OFFCURVE",
"86 753 OFFCURVE",
"76 753 CURVE SMOOTH",
"65 753 OFFCURVE",
"56 754 OFFCURVE",
"47 757 CURVE",
"47 756 LINE",
"34 740 LINE",
"34 735 LINE SMOOTH",
"34 714 OFFCURVE",
"52 704 OFFCURVE",
"88 704 CURVE SMOOTH",
"94 704 OFFCURVE",
"102 704 OFFCURVE",
"109 705 CURVE SMOOTH",
"124 706 OFFCURVE",
"141 708 OFFCURVE",
"145 708 CURVE",
"143 666 OFFCURVE",
"135 597 OFFCURVE",
"123 502 CURVE SMOOTH",
"99 311 OFFCURVE",
"55 64 OFFCURVE",
"24 15 CURVE",
"31 -1 OFFCURVE",
"40 -9 OFFCURVE",
"53 -9 CURVE SMOOTH"
);
}
);
width = 261;
}
);
note = Z;
unicode = 005A;
},
{
glyphname = M.boldened;
layers = (
{
background = {
paths = (
{
closed = 1;
nodes = (
"368 -19 OFFCURVE",
"384 7 OFFCURVE",
"384 33 CURVE SMOOTH",
"384 112 OFFCURVE",
"381 232 OFFCURVE",
"375 391 CURVE SMOOTH",
"370 550 OFFCURVE",
"366 670 OFFCURVE",
"366 750 CURVE SMOOTH",
"366 758 OFFCURVE",
"358 768 OFFCURVE",
"353 768 CURVE SMOOTH",
"339 768 OFFCURVE",
"329 759 OFFCURVE",
"327 746 CURVE",
"327 747 LINE",
"327 741 LINE",
"327 740 LINE",
"324 701 OFFCURVE",
"319 659 OFFCURVE",
"313 615 CURVE SMOOTH",
"300 523 OFFCURVE",
"290 483 OFFCURVE",
"265 372 CURVE SMOOTH",
"253 316 OFFCURVE",
"244 278 OFFCURVE",
"240 256 CURVE",
"221 256 LINE",
"219 263 OFFCURVE",
"214 285 OFFCURVE",
"206 333 CURVE SMOOTH",
"197 379 OFFCURVE",
"188 423 OFFCURVE",
"180 464 CURVE SMOOTH",
"162 548 OFFCURVE",
"138 654 OFFCURVE",
"115 711 CURVE SMOOTH",
"105 737 OFFCURVE",
"95 751 OFFCURVE",
"91 751 CURVE",
"96 752 LINE",
"68 737 LINE",
"73 743 LINE",
"72 700 OFFCURVE",
"72 657 OFFCURVE",
"72 614 CURVE SMOOTH",
"72 571 OFFCURVE",
"72 506 OFFCURVE",
"74 420 CURVE SMOOTH",
"75 334 OFFCURVE",
"75 270 OFFCURVE",
"75 227 CURVE SMOOTH",
"75 208 OFFCURVE",
"74 182 OFFCURVE",
"73 146 CURVE SMOOTH",
"71 110 OFFCURVE",
"70 83 OFFCURVE",
"70 64 CURVE SMOOTH",
"70 25 OFFCURVE",
"80 10 OFFCURVE",
"104 10 CURVE",
"98 8 LINE",
"105 17 OFFCURVE",
"110 28 OFFCURVE",
"110 41 CURVE SMOOTH",
"110 86 OFFCURVE",
"108 155 OFFCURVE",
"106 246 CURVE SMOOTH",
"104 337 OFFCURVE",
"102 406 OFFCURVE",
"102 452 CURVE SMOOTH",
"102 479 OFFCURVE",
"102 519 OFFCURVE",
"104 572 CURVE",
"123 574 LINE",
"127 554 OFFCURVE",
"136 520 OFFCURVE",
"152 462 CURVE SMOOTH",
"182 351 OFFCURVE",
"197 274 OFFCURVE",
"197 202 CURVE SMOOTH",
"197 146 OFFCURVE",
"207 116 OFFCURVE",
"223 116 CURVE SMOOTH",
"232 116 OFFCURVE",
"239 122 OFFCURVE",
"244 135 CURVE SMOOTH",
"250 149 OFFCURVE",
"252 159 OFFCURVE",
"254 178 CURVE",
"256 190 OFFCURVE",
"257 194 OFFCURVE",
"257 197 CURVE",
"257 196 LINE",
"257 202 LINE",
"257 203 LINE",
"262 237 OFFCURVE",
"272 287 OFFCURVE",
"289 352 CURVE SMOOTH",
"305 416 OFFCURVE",
"314 460 OFFCURVE",
"319 486 CURVE",
"338 485 LINE",
"338 434 LINE SMOOTH",
"338 388 OFFCURVE",
"339 317 OFFCURVE",
"340 224 CURVE SMOOTH",
"342 130 OFFCURVE",
"342 60 OFFCURVE",
"342 13 CURVE SMOOTH",
"342 -6 OFFCURVE",
"349 -19 OFFCURVE",
"354 -19 CURVE SMOOTH"
);
}
);
};
layerId = "27A8C2A5-6B67-4598-967C-E5EC4FB8AE70";
paths = (
{
closed = 1;
nodes = (
"375 -23 OFFCURVE",
"378 -21 OFFCURVE",
"381 -17 CURVE SMOOTH",
"383 -12 OFFCURVE",
"384 -3 OFFCURVE",
"384 12 CURVE SMOOTH",
"384 42 OFFCURVE",
"383 76 OFFCURVE",
"382 112 CURVE SMOOTH",
"380 149 OFFCURVE",
"379 176 OFFCURVE",
"379 195 CURVE SMOOTH",
"379 245 OFFCURVE",
"377 320 OFFCURVE",
"372 420 CURVE SMOOTH",
"366 521 OFFCURVE",
"363 597 OFFCURVE",
"363 647 CURVE SMOOTH",
"363 746 LINE SMOOTH",
"363 758 OFFCURVE",
"357 765 OFFCURVE",
"350 765 CURVE SMOOTH",
"342 765 OFFCURVE",
"335 757 OFFCURVE",
"333 744 CURVE",
"332 739 OFFCURVE",
"330 729 OFFCURVE",
"328 714 CURVE SMOOTH",
"325 699 OFFCURVE",
"321 680 OFFCURVE",
"317 658 CURVE SMOOTH",
"313 635 OFFCURVE",
"310 618 OFFCURVE",
"308 606 CURVE SMOOTH",
"281 461 OFFCURVE",
"266 380 OFFCURVE",
"262 361 CURVE SMOOTH",
"260 353 OFFCURVE",
"255 323 OFFCURVE",
"247 273 CURVE SMOOTH",
"238 223 OFFCURVE",
"232 193 OFFCURVE",
"231 184 CURVE",
"217 269 OFFCURVE",
"207 325 OFFCURVE",
"202 350 CURVE SMOOTH",
"177 463 OFFCURVE",
"114 717 OFFCURVE",
"103 754 CURVE",
"101 759 OFFCURVE",
"97 762 OFFCURVE",
"92 762 CURVE SMOOTH",
"85 762 OFFCURVE",
"78 756 OFFCURVE",
"78 749 CURVE SMOOTH",
"78 661 LINE SMOOTH",
"78 635 OFFCURVE",
"77 595 OFFCURVE",
"76 542 CURVE SMOOTH",
"75 490 OFFCURVE",
"75 450 OFFCURVE",
"75 424 CURVE SMOOTH",
"75 401 OFFCURVE",
"75 367 OFFCURVE",
"74 322 CURVE SMOOTH",
"74 277 OFFCURVE",
"73 243 OFFCURVE",
"73 221 CURVE SMOOTH",
"73 54 LINE SMOOTH",
"73 20 OFFCURVE",
"83 2 OFFCURVE",
"102 2 CURVE",
"107 7 OFFCURVE",
"109 16 OFFCURVE",
"109 28 CURVE SMOOTH",
"109 39 OFFCURVE",
"108 55 OFFCURVE",
"107 76 CURVE SMOOTH",
"105 97 OFFCURVE",
"104 112 OFFCURVE",
"104 123 CURVE SMOOTH",
"104 158 OFFCURVE",
"104 211 OFFCURVE",
"103 282 CURVE SMOOTH",
"102 353 OFFCURVE",
"102 405 OFFCURVE",
"102 441 CURVE SMOOTH",
"102 516 OFFCURVE",
"103 583 OFFCURVE",
"105 643 CURVE",
"113 632 OFFCURVE",
"197 201 OFFCURVE",
"205 147 CURVE SMOOTH",
"207 127 OFFCURVE",
"216 116 OFFCURVE",
"226 116 CURVE SMOOTH",
"236 116 OFFCURVE",
"246 127 OFFCURVE",
"249 145 CURVE",
"252 164 OFFCURVE",
"258 194 OFFCURVE",
"267 236 CURVE SMOOTH",
"280 302 OFFCURVE",
"319 510 OFFCURVE",
"336 619 CURVE SMOOTH",
"337 623 OFFCURVE",
"338 625 OFFCURVE",
"338 626 CURVE",
"339 619 OFFCURVE",
"339 605 OFFCURVE",
"341 585 CURVE SMOOTH",
"342 564 OFFCURVE",
"342 548 OFFCURVE",
"342 537 CURVE SMOOTH",
"342 525 OFFCURVE",
"342 506 OFFCURVE",
"341 481 CURVE SMOOTH",
"341 456 OFFCURVE",
"340 437 OFFCURVE",
"340 425 CURVE SMOOTH",
"340 388 OFFCURVE",
"342 333 OFFCURVE",
"344 261 CURVE SMOOTH",
"347 188 OFFCURVE",
"348 133 OFFCURVE",
"348 96 CURVE SMOOTH",
"348 5 LINE SMOOTH",
"348 -13 OFFCURVE",
"351 -23 OFFCURVE",
"370 -23 CURVE SMOOTH"
);
}
);
width = 458;
},
{
anchors = (
{
name = bottom;
position = "{227, 0}";
},
{
name = top;
position = "{227, 758}";
}
);
background = {
paths = (
{
closed = 1;
nodes = (
"374 -36 OFFCURVE",
"382 -31 OFFCURVE",
"387 -23 CURVE",
"391 -17 OFFCURVE",
"392 -6 OFFCURVE",
"392 12 CURVE SMOOTH",
"392 42 OFFCURVE",
"392 76 OFFCURVE",
"390 113 CURVE SMOOTH",
"389 131 OFFCURVE",
"388 147 OFFCURVE",
"388 161 CURVE SMOOTH",
"387 174 OFFCURVE",
"387 186 OFFCURVE",
"387 195 CURVE SMOOTH",
"387 248 OFFCURVE",
"384 325 OFFCURVE",
"379 421 CURVE SMOOTH",
"374 521 OFFCURVE",
"371 597 OFFCURVE",
"371 647 CURVE SMOOTH",
"371 746 LINE SMOOTH",
"371 764 OFFCURVE",
"360 778 OFFCURVE",
"344 778 CURVE SMOOTH",
"329 778 OFFCURVE",
"317 765 OFFCURVE",
"314 746 CURVE",
"314 745 LINE",
"313 741 OFFCURVE",
"312 731 OFFCURVE",
"309 716 CURVE",
"309 716 LINE",
"306 700 OFFCURVE",
"303 681 OFFCURVE",
"299 660 CURVE SMOOTH",
"294 637 OFFCURVE",
"292 620 OFFCURVE",
"290 609 CURVE",
"289 608 LINE",
"262 464 OFFCURVE",
"247 382 OFFCURVE",
"244 363 CURVE",
"243 363 LINE",
"242 355 OFFCURVE",
"236 326 OFFCURVE",
"228 275 CURVE SMOOTH",
"220 225 OFFCURVE",
"214 195 OFFCURVE",
"212 186 CURVE",
"239 186 LINE",
"224 273 OFFCURVE",
"214 328 OFFCURVE",
"209 353 CURVE SMOOTH",
"185 466 OFFCURVE",
"122 720 OFFCURVE",
"110 758 CURVE",
"109 758 LINE",
"105 769 OFFCURVE",
"97 775 OFFCURVE",
"87 775 CURVE SMOOTH",
"72 775 OFFCURVE",
"59 763 OFFCURVE",
"59 749 CURVE SMOOTH",
"59 661 LINE SMOOTH",
"59 635 OFFCURVE",
"59 595 OFFCURVE",
"58 542 CURVE SMOOTH",
"57 490 OFFCURVE",
"56 450 OFFCURVE",
"56 424 CURVE SMOOTH",
"56 401 OFFCURVE",
"56 367 OFFCURVE",
"56 322 CURVE SMOOTH",
"55 277 OFFCURVE",
"55 243 OFFCURVE",
"55 221 CURVE SMOOTH",
"55 54 LINE SMOOTH",
"55 12 OFFCURVE",
"69 -11 OFFCURVE",
"96 -11 CURVE",
"105 -7 LINE",
"113 0 OFFCURVE",
"117 12 OFFCURVE",
"117 28 CURVE SMOOTH",
"117 38 OFFCURVE",
"117 52 OFFCURVE",
"115 77 CURVE SMOOTH",
"113 98 OFFCURVE",
"112 113 OFFCURVE",
"112 123 CURVE SMOOTH",
"112 158 OFFCURVE",
"112 211 OFFCURVE",
"111 282 CURVE SMOOTH",
"110 353 OFFCURVE",
"109 405 OFFCURVE",
"109 441 CURVE SMOOTH",
"109 511 OFFCURVE",
"111 579 OFFCURVE",
"113 643 CURVE",
"89 636 LINE",
"94 629 OFFCURVE",
"178 208 OFFCURVE",
"186 146 CURVE SMOOTH",
"189 120 OFFCURVE",
"202 103 OFFCURVE",
"220 103 CURVE SMOOTH",
"238 103 OFFCURVE",
"253 120 OFFCURVE",
"256 143 CURVE",
"256 142 LINE",
"260 161 OFFCURVE",
"265 192 OFFCURVE",
"274 233 CURVE SMOOTH",
"288 299 OFFCURVE",
"327 507 OFFCURVE",
"344 617 CURVE",
"344 618 LINE",
"345 622 OFFCURVE",
"345 620 OFFCURVE",
"342 617 CURVE",
"320 625 LINE",
"320 619 OFFCURVE",
"321 605 OFFCURVE",
"322 584 CURVE",
"322 584 LINE",
"323 564 OFFCURVE",
"324 548 OFFCURVE",
"324 537 CURVE SMOOTH",
"324 525 OFFCURVE",
"323 506 OFFCURVE",
"323 481 CURVE SMOOTH",
"322 457 OFFCURVE",
"322 437 OFFCURVE",
"322 425 CURVE SMOOTH",
"322 388 OFFCURVE",
"323 333 OFFCURVE",
"326 260 CURVE SMOOTH",
"327 222 OFFCURVE",
"328 189 OFFCURVE",
"329 161 CURVE SMOOTH",
"330 135 OFFCURVE",
"329 114 OFFCURVE",
"329 96 CURVE SMOOTH",
"329 5 LINE SMOOTH",
"329 -23 OFFCURVE",
"340 -36 OFFCURVE",
"364 -36 CURVE SMOOTH"
);
}
);
};
layerId = "156B637B-193E-48A3-AAC8-7B4A3960F885";
paths = (
{
closed = 1;
nodes = (
"374 -36 OFFCURVE",
"382 -31 OFFCURVE",
"387 -23 CURVE",
"391 -17 OFFCURVE",
"392 -6 OFFCURVE",
"392 12 CURVE SMOOTH",
"392 42 OFFCURVE",
"392 76 OFFCURVE",
"390 113 CURVE SMOOTH",
"389 131 OFFCURVE",
"388 147 OFFCURVE",
"388 161 CURVE SMOOTH",
"387 174 OFFCURVE",
"387 186 OFFCURVE",
"387 195 CURVE SMOOTH",
"387 248 OFFCURVE",
"384 325 OFFCURVE",
"379 421 CURVE SMOOTH",
"374 521 OFFCURVE",
"371 597 OFFCURVE",
"371 647 CURVE SMOOTH",
"371 746 LINE SMOOTH",
"371 764 OFFCURVE",
"360 778 OFFCURVE",
"344 778 CURVE SMOOTH",
"329 778 OFFCURVE",
"317 765 OFFCURVE",
"314 746 CURVE",
"314 745 LINE",
"313 741 OFFCURVE",
"312 731 OFFCURVE",
"309 716 CURVE",
"309 716 LINE",
"306 700 OFFCURVE",
"303 681 OFFCURVE",
"299 660 CURVE SMOOTH",
"294 637 OFFCURVE",
"292 620 OFFCURVE",
"290 609 CURVE",
"289 608 LINE",
"262 464 OFFCURVE",
"247 382 OFFCURVE",
"244 363 CURVE",
"243 363 LINE",
"242 355 OFFCURVE",
"236 326 OFFCURVE",
"228 275 CURVE SMOOTH",
"220 225 OFFCURVE",
"214 195 OFFCURVE",
"212 186 CURVE",
"239 186 LINE",
"224 273 OFFCURVE",
"214 328 OFFCURVE",
"209 353 CURVE SMOOTH",
"185 466 OFFCURVE",
"122 720 OFFCURVE",
"110 758 CURVE",
"109 758 LINE",
"105 769 OFFCURVE",
"97 775 OFFCURVE",
"87 775 CURVE SMOOTH",
"72 775 OFFCURVE",
"59 763 OFFCURVE",
"59 749 CURVE SMOOTH",
"59 661 LINE SMOOTH",
"59 635 OFFCURVE",
"59 595 OFFCURVE",
"58 542 CURVE SMOOTH",
"57 490 OFFCURVE",
"56 450 OFFCURVE",
"56 424 CURVE SMOOTH",
"56 401 OFFCURVE",
"56 367 OFFCURVE",
"56 322 CURVE SMOOTH",
"55 277 OFFCURVE",
"55 243 OFFCURVE",
"55 221 CURVE SMOOTH",
"55 54 LINE SMOOTH",
"55 12 OFFCURVE",
"69 -11 OFFCURVE",
"96 -11 CURVE",
"105 -7 LINE",
"113 0 OFFCURVE",
"117 12 OFFCURVE",
"117 28 CURVE SMOOTH",
"117 38 OFFCURVE",
"117 52 OFFCURVE",
"115 77 CURVE SMOOTH",
"113 98 OFFCURVE",
"112 113 OFFCURVE",
"112 123 CURVE SMOOTH",
"112 158 OFFCURVE",
"112 211 OFFCURVE",
"111 282 CURVE SMOOTH",
"110 353 OFFCURVE",
"109 405 OFFCURVE",
"109 441 CURVE SMOOTH",
"109 511 OFFCURVE",
"111 579 OFFCURVE",
"113 643 CURVE",
"89 636 LINE",
"94 629 OFFCURVE",
"178 208 OFFCURVE",
"186 146 CURVE SMOOTH",
"189 120 OFFCURVE",
"202 103 OFFCURVE",
"220 103 CURVE SMOOTH",
"238 103 OFFCURVE",
"253 120 OFFCURVE",
"256 143 CURVE",
"256 142 LINE",
"260 161 OFFCURVE",
"265 192 OFFCURVE",
"274 233 CURVE SMOOTH",
"288 299 OFFCURVE",
"327 507 OFFCURVE",
"344 617 CURVE",
"344 618 LINE",
"345 622 OFFCURVE",
"345 620 OFFCURVE",
"342 617 CURVE",
"320 625 LINE",
"320 619 OFFCURVE",
"321 605 OFFCURVE",
"322 584 CURVE",
"322 584 LINE",
"323 564 OFFCURVE",
"324 548 OFFCURVE",
"324 537 CURVE SMOOTH",
"324 525 OFFCURVE",
"323 506 OFFCURVE",
"323 481 CURVE SMOOTH",
"322 457 OFFCURVE",
"322 437 OFFCURVE",
"322 425 CURVE SMOOTH",
"322 388 OFFCURVE",
"323 333 OFFCURVE",
"326 260 CURVE SMOOTH",
"327 222 OFFCURVE",
"328 189 OFFCURVE",
"329 161 CURVE SMOOTH",
"330 135 OFFCURVE",
"329 114 OFFCURVE",
"329 96 CURVE SMOOTH",
"329 5 LINE SMOOTH",
"329 -23 OFFCURVE",
"340 -36 OFFCURVE",
"364 -36 CURVE SMOOTH"
);
}
);
width = 453;
}
);
note = M;
},
{
glyphname = M.concept2;
layers = (
{
background = {
paths = (
{
closed = 1;
nodes = (
"361 -19 OFFCURVE",
"377 7 OFFCURVE",
"377 33 CURVE SMOOTH",
"377 73 OFFCURVE",
"377 116 OFFCURVE",
"375 162 CURVE SMOOTH",
"375 226 OFFCURVE",
"372 302 OFFCURVE",
"369 391 CURVE SMOOTH",
"362 550 OFFCURVE",
"359 670 OFFCURVE",
"359 750 CURVE SMOOTH",
"359 758 OFFCURVE",
"352 768 OFFCURVE",
"346 768 CURVE SMOOTH",
"332 768 OFFCURVE",
"322 759 OFFCURVE",
"320 746 CURVE",
"320 747 LINE",
"320 741 LINE",
"320 740 LINE",
"317 701 OFFCURVE",
"313 659 OFFCURVE",
"306 615 CURVE SMOOTH",
"292 523 OFFCURVE",
"283 483 OFFCURVE",
"258 372 CURVE SMOOTH",
"246 316 OFFCURVE",
"237 278 OFFCURVE",
"233 256 CURVE",
"214 256 LINE",
"212 263 OFFCURVE",
"208 285 OFFCURVE",
"199 333 CURVE SMOOTH",
"190 379 OFFCURVE",
"182 423 OFFCURVE",
"173 464 CURVE SMOOTH",
"155 548 OFFCURVE",
"131 654 OFFCURVE",
"108 711 CURVE SMOOTH",
"98 737 OFFCURVE",
"88 751 OFFCURVE",
"84 751 CURVE",
"89 752 LINE",
"62 737 LINE",
"66 743 LINE",
"65 700 OFFCURVE",
"65 657 OFFCURVE",
"65 614 CURVE SMOOTH",
"65 571 OFFCURVE",
"65 506 OFFCURVE",
"67 420 CURVE SMOOTH",
"68 334 OFFCURVE",
"68 270 OFFCURVE",
"68 227 CURVE SMOOTH",
"68 208 OFFCURVE",
"67 182 OFFCURVE",
"66 146 CURVE SMOOTH",
"64 110 OFFCURVE",
"63 83 OFFCURVE",
"63 64 CURVE SMOOTH",
"63 25 OFFCURVE",
"73 10 OFFCURVE",
"98 10 CURVE",
"91 8 LINE",
"99 17 OFFCURVE",
"103 28 OFFCURVE",
"103 41 CURVE SMOOTH",
"103 86 OFFCURVE",
"102 155 OFFCURVE",
"99 246 CURVE SMOOTH",
"96 337 OFFCURVE",
"95 406 OFFCURVE",
"95 452 CURVE SMOOTH",
"95 479 OFFCURVE",
"95 519 OFFCURVE",
"97 572 CURVE",
"116 574 LINE",
"120 554 OFFCURVE",
"129 520 OFFCURVE",
"145 462 CURVE SMOOTH",
"175 351 OFFCURVE",
"190 274 OFFCURVE",
"190 202 CURVE SMOOTH",
"190 146 OFFCURVE",
"200 116 OFFCURVE",
"216 116 CURVE SMOOTH",
"226 116 OFFCURVE",
"232 122 OFFCURVE",
"237 135 CURVE SMOOTH",
"243 149 OFFCURVE",
"245 159 OFFCURVE",
"248 178 CURVE",
"250 190 OFFCURVE",
"250 194 OFFCURVE",
"250 197 CURVE",
"250 196 LINE",
"250 202 LINE",
"250 203 LINE",
"255 237 OFFCURVE",
"265 287 OFFCURVE",
"282 352 CURVE SMOOTH",
"298 416 OFFCURVE",
"308 460 OFFCURVE",
"312 486 CURVE",
"332 485 LINE",
"332 434 LINE SMOOTH",
"332 388 OFFCURVE",
"332 317 OFFCURVE",
"333 224 CURVE SMOOTH",
"334 201 OFFCURVE",
"334 180 OFFCURVE",
"334 161 CURVE SMOOTH",
"335 98 OFFCURVE",
"335 48 OFFCURVE",
"335 13 CURVE SMOOTH",
"335 -6 OFFCURVE",
"342 -19 OFFCURVE",
"348 -19 CURVE SMOOTH"
);
}
);
};
layerId = "27A8C2A5-6B67-4598-967C-E5EC4FB8AE70";
paths = (
{
closed = 1;
nodes = (
"361 -19 OFFCURVE",
"377 7 OFFCURVE",
"377 33 CURVE SMOOTH",
"377 73 OFFCURVE",
"377 116 OFFCURVE",
"375 162 CURVE SMOOTH",
"375 226 OFFCURVE",
"372 302 OFFCURVE",
"369 391 CURVE SMOOTH",
"362 550 OFFCURVE",
"359 670 OFFCURVE",
"359 750 CURVE SMOOTH",
"359 758 OFFCURVE",
"352 768 OFFCURVE",
"346 768 CURVE SMOOTH",
"332 768 OFFCURVE",
"322 759 OFFCURVE",
"320 746 CURVE",
"320 747 LINE",
"320 741 LINE",
"320 740 LINE",
"317 701 OFFCURVE",
"313 659 OFFCURVE",
"306 615 CURVE SMOOTH",
"292 523 OFFCURVE",
"283 483 OFFCURVE",
"258 372 CURVE SMOOTH",
"246 316 OFFCURVE",
"237 278 OFFCURVE",
"233 256 CURVE",
"214 256 LINE",
"212 263 OFFCURVE",
"208 285 OFFCURVE",
"199 333 CURVE SMOOTH",
"190 379 OFFCURVE",
"182 423 OFFCURVE",
"173 464 CURVE SMOOTH",
"155 548 OFFCURVE",
"131 654 OFFCURVE",
"108 711 CURVE SMOOTH",
"98 737 OFFCURVE",
"88 751 OFFCURVE",
"84 751 CURVE",
"89 752 LINE",
"62 737 LINE",
"66 743 LINE",
"65 700 OFFCURVE",
"65 657 OFFCURVE",
"65 614 CURVE SMOOTH",
"65 571 OFFCURVE",
"65 506 OFFCURVE",
"67 420 CURVE SMOOTH",
"68 334 OFFCURVE",
"68 270 OFFCURVE",
"68 227 CURVE SMOOTH",
"68 208 OFFCURVE",
"67 182 OFFCURVE",
"66 146 CURVE SMOOTH",
"64 110 OFFCURVE",
"63 83 OFFCURVE",
"63 64 CURVE SMOOTH",
"63 25 OFFCURVE",
"73 10 OFFCURVE",
"98 10 CURVE",
"91 8 LINE",
"99 17 OFFCURVE",
"103 28 OFFCURVE",
"103 41 CURVE SMOOTH",
"103 86 OFFCURVE",
"102 155 OFFCURVE",
"99 246 CURVE SMOOTH",
"96 337 OFFCURVE",
"95 406 OFFCURVE",
"95 452 CURVE SMOOTH",
"95 479 OFFCURVE",
"95 519 OFFCURVE",
"97 572 CURVE",
"116 574 LINE",
"120 554 OFFCURVE",
"129 520 OFFCURVE",
"145 462 CURVE SMOOTH",
"175 351 OFFCURVE",
"190 274 OFFCURVE",
"190 202 CURVE SMOOTH",
"190 146 OFFCURVE",
"200 116 OFFCURVE",
"216 116 CURVE SMOOTH",
"226 116 OFFCURVE",
"232 122 OFFCURVE",
"237 135 CURVE SMOOTH",
"243 149 OFFCURVE",
"245 159 OFFCURVE",
"248 178 CURVE",
"250 190 OFFCURVE",
"250 194 OFFCURVE",
"250 197 CURVE",
"250 196 LINE",
"250 202 LINE",
"250 203 LINE",
"255 237 OFFCURVE",
"265 287 OFFCURVE",
"282 352 CURVE SMOOTH",
"298 416 OFFCURVE",
"308 460 OFFCURVE",
"312 486 CURVE",
"332 485 LINE",
"332 434 LINE SMOOTH",
"332 388 OFFCURVE",
"332 317 OFFCURVE",
"333 224 CURVE SMOOTH",
"334 201 OFFCURVE",
"334 180 OFFCURVE",
"334 161 CURVE SMOOTH",
"335 98 OFFCURVE",
"335 48 OFFCURVE",
"335 13 CURVE SMOOTH",
"335 -6 OFFCURVE",
"342 -19 OFFCURVE",
"348 -19 CURVE SMOOTH"
);
}
);
width = 458;
},
{
anchors = (
{
name = bottom;
position = "{227, 0}";
},
{
name = top;
position = "{227, 758}";
}
);
background = {
paths = (
{
closed = 1;
nodes = (
"374 -36 OFFCURVE",
"382 -31 OFFCURVE",
"387 -23 CURVE",
"391 -17 OFFCURVE",
"392 -6 OFFCURVE",
"392 12 CURVE SMOOTH",
"392 42 OFFCURVE",
"392 76 OFFCURVE",
"390 113 CURVE SMOOTH",
"389 131 OFFCURVE",
"388 147 OFFCURVE",
"388 161 CURVE SMOOTH",
"387 174 OFFCURVE",
"387 186 OFFCURVE",
"387 195 CURVE SMOOTH",
"387 248 OFFCURVE",
"384 325 OFFCURVE",
"379 421 CURVE SMOOTH",
"374 521 OFFCURVE",
"371 597 OFFCURVE",
"371 647 CURVE SMOOTH",
"371 746 LINE SMOOTH",
"371 764 OFFCURVE",
"360 778 OFFCURVE",
"344 778 CURVE SMOOTH",
"329 778 OFFCURVE",
"317 765 OFFCURVE",
"314 746 CURVE",
"314 745 LINE",
"313 741 OFFCURVE",
"312 731 OFFCURVE",
"309 716 CURVE",
"309 716 LINE",
"306 700 OFFCURVE",
"303 681 OFFCURVE",
"299 660 CURVE SMOOTH",
"294 637 OFFCURVE",
"292 620 OFFCURVE",
"290 609 CURVE",
"289 608 LINE",
"262 464 OFFCURVE",
"247 382 OFFCURVE",
"244 363 CURVE",
"243 363 LINE",
"242 355 OFFCURVE",
"236 326 OFFCURVE",
"228 275 CURVE SMOOTH",
"220 225 OFFCURVE",
"214 195 OFFCURVE",
"212 186 CURVE",
"239 186 LINE",
"224 273 OFFCURVE",
"214 328 OFFCURVE",
"209 353 CURVE SMOOTH",
"185 466 OFFCURVE",
"122 720 OFFCURVE",
"110 758 CURVE",
"109 758 LINE",
"105 769 OFFCURVE",
"97 775 OFFCURVE",
"87 775 CURVE SMOOTH",
"72 775 OFFCURVE",
"59 763 OFFCURVE",
"59 749 CURVE SMOOTH",
"59 661 LINE SMOOTH",
"59 635 OFFCURVE",
"59 595 OFFCURVE",
"58 542 CURVE SMOOTH",
"57 490 OFFCURVE",
"56 450 OFFCURVE",
"56 424 CURVE SMOOTH",
"56 401 OFFCURVE",
"56 367 OFFCURVE",
"56 322 CURVE SMOOTH",
"55 277 OFFCURVE",
"55 243 OFFCURVE",
"55 221 CURVE SMOOTH",
"55 54 LINE SMOOTH",
"55 12 OFFCURVE",
"69 -11 OFFCURVE",
"96 -11 CURVE",
"105 -7 LINE",
"113 0 OFFCURVE",
"117 12 OFFCURVE",
"117 28 CURVE SMOOTH",
"117 38 OFFCURVE",
"117 52 OFFCURVE",
"115 77 CURVE SMOOTH",
"113 98 OFFCURVE",
"112 113 OFFCURVE",
"112 123 CURVE SMOOTH",
"112 158 OFFCURVE",
"112 211 OFFCURVE",
"111 282 CURVE SMOOTH",
"110 353 OFFCURVE",
"109 405 OFFCURVE",
"109 441 CURVE SMOOTH",
"109 511 OFFCURVE",
"111 579 OFFCURVE",
"113 643 CURVE",
"89 636 LINE",
"94 629 OFFCURVE",
"178 208 OFFCURVE",
"186 146 CURVE SMOOTH",
"189 120 OFFCURVE",
"202 103 OFFCURVE",
"220 103 CURVE SMOOTH",
"238 103 OFFCURVE",
"253 120 OFFCURVE",
"256 143 CURVE",
"256 142 LINE",
"260 161 OFFCURVE",
"265 192 OFFCURVE",
"274 233 CURVE SMOOTH",
"288 299 OFFCURVE",
"327 507 OFFCURVE",
"344 617 CURVE",
"344 618 LINE",
"345 622 OFFCURVE",
"345 620 OFFCURVE",
"342 617 CURVE",
"320 625 LINE",
"320 619 OFFCURVE",
"321 605 OFFCURVE",
"322 584 CURVE",
"322 584 LINE",
"323 564 OFFCURVE",
"324 548 OFFCURVE",
"324 537 CURVE SMOOTH",
"324 525 OFFCURVE",
"323 506 OFFCURVE",
"323 481 CURVE SMOOTH",
"322 457 OFFCURVE",
"322 437 OFFCURVE",
"322 425 CURVE SMOOTH",
"322 388 OFFCURVE",
"323 333 OFFCURVE",
"326 260 CURVE SMOOTH",
"327 222 OFFCURVE",
"328 189 OFFCURVE",
"329 161 CURVE SMOOTH",
"330 135 OFFCURVE",
"329 114 OFFCURVE",
"329 96 CURVE SMOOTH",
"329 5 LINE SMOOTH",
"329 -23 OFFCURVE",
"340 -36 OFFCURVE",
"364 -36 CURVE SMOOTH"
);
}
);
};
layerId = "156B637B-193E-48A3-AAC8-7B4A3960F885";
paths = (
{
closed = 1;
nodes = (
"367 -26 OFFCURVE",
"387 1 OFFCURVE",
"387 33 CURVE SMOOTH",
"387 68 OFFCURVE",
"387 111 OFFCURVE",
"385 162 CURVE SMOOTH",
"384 226 OFFCURVE",
"382 302 OFFCURVE",
"378 391 CURVE SMOOTH",
"372 550 OFFCURVE",
"369 670 OFFCURVE",
"369 750 CURVE SMOOTH",
"369 762 OFFCURVE",
"358 775 OFFCURVE",
"346 775 CURVE SMOOTH",
"328 775 OFFCURVE",
"313 764 OFFCURVE",
"310 747 CURVE",
"310 741 LINE",
"308 703 OFFCURVE",
"303 662 OFFCURVE",
"296 616 CURVE SMOOTH",
"282 524 OFFCURVE",
"273 484 OFFCURVE",
"249 373 CURVE SMOOTH",
"236 318 OFFCURVE",
"228 279 OFFCURVE",
"223 258 CURVE",
"222 264 OFFCURVE",
"217 290 OFFCURVE",
"208 335 CURVE SMOOTH",
"200 380 OFFCURVE",
"191 424 OFFCURVE",
"183 466 CURVE SMOOTH",
"165 549 OFFCURVE",
"141 656 OFFCURVE",
"118 714 CURVE SMOOTH",
"105 743 OFFCURVE",
"95 758 OFFCURVE",
"84 759 CURVE",
"57 743 LINE",
"56 700 OFFCURVE",
"55 657 OFFCURVE",
"55 614 CURVE SMOOTH",
"55 571 OFFCURVE",
"56 506 OFFCURVE",
"57 420 CURVE SMOOTH",
"58 334 OFFCURVE",
"59 270 OFFCURVE",
"59 227 CURVE SMOOTH",
"59 208 OFFCURVE",
"58 182 OFFCURVE",
"56 146 CURVE SMOOTH",
"55 110 OFFCURVE",
"54 83 OFFCURVE",
"54 64 CURVE SMOOTH",
"54 27 OFFCURVE",
"63 3 OFFCURVE",
"98 3 CURVE",
"108 14 OFFCURVE",
"113 26 OFFCURVE",
"113 41 CURVE SMOOTH",
"113 86 OFFCURVE",
"111 155 OFFCURVE",
"109 246 CURVE SMOOTH",
"106 337 OFFCURVE",
"104 406 OFFCURVE",
"104 452 CURVE SMOOTH",
"104 479 OFFCURVE",
"105 519 OFFCURVE",
"106 572 CURVE",
"111 552 OFFCURVE",
"121 515 OFFCURVE",
"136 460 CURVE SMOOTH",
"165 350 OFFCURVE",
"180 274 OFFCURVE",
"180 202 CURVE SMOOTH",
"180 140 OFFCURVE",
"192 108 OFFCURVE",
"216 108 CURVE SMOOTH",
"230 108 OFFCURVE",
"241 117 OFFCURVE",
"247 132 CURVE SMOOTH",
"252 147 OFFCURVE",
"255 158 OFFCURVE",
"257 177 CURVE SMOOTH",
"259 187 OFFCURVE",
"260 193 OFFCURVE",
"260 196 CURVE",
"260 202 LINE",
"265 236 OFFCURVE",
"275 286 OFFCURVE",
"291 350 CURVE SMOOTH",
"307 414 OFFCURVE",
"317 459 OFFCURVE",
"322 485 CURVE",
"322 434 LINE SMOOTH",
"322 388 OFFCURVE",
"322 317 OFFCURVE",
"324 224 CURVE SMOOTH",
"324 201 OFFCURVE",
"324 180 OFFCURVE",
"325 161 CURVE SMOOTH",
"325 98 OFFCURVE",
"326 48 OFFCURVE",
"326 13 CURVE SMOOTH",
"326 -13 OFFCURVE",
"335 -26 OFFCURVE",
"348 -26 CURVE SMOOTH"
);
}
);
width = 453;
}
);
note = M;
},
